<mxfile host="65bd71144e">
    <diagram id="RfRJTMXxe-k2HBva_PEi" name="Page-1">
        <mxGraphModel dx="766" dy="333" grid="1" gridSize="10" guides="1" tooltips="1" connect="1" arrows="1" fold="1" page="1" pageScale="1" pageWidth="827" pageHeight="1169" math="0" shadow="0">
            <root>
                <mxCell id="0"/>
                <mxCell id="1" parent="0"/>
                <mxCell id="2" value="VPC" style="sketch=0;outlineConnect=0;gradientColor=none;html=1;whiteSpace=wrap;fontSize=12;fontStyle=0;shape=mxgraph.aws4.group;grIcon=mxgraph.aws4.group_vpc;strokeColor=#879196;fillColor=none;verticalAlign=top;align=left;spacingLeft=30;fontColor=#879196;dashed=0;" parent="1" vertex="1">
                    <mxGeometry x="167" y="200" width="540" height="580" as="geometry"/>
                </mxCell>
                <mxCell id="212" value="" style="rounded=0;whiteSpace=wrap;html=1;strokeColor=#BFBDFF;fillColor=#EBF0FF;" parent="1" vertex="1">
                    <mxGeometry x="186" y="250" width="504" height="360" as="geometry"/>
                </mxCell>
                <mxCell id="23" value="Public subnet" style="points=[[0,0],[0.25,0],[0.5,0],[0.75,0],[1,0],[1,0.25],[1,0.5],[1,0.75],[1,1],[0.75,1],[0.5,1],[0.25,1],[0,1],[0,0.75],[0,0.5],[0,0.25]];outlineConnect=0;gradientColor=none;html=1;whiteSpace=wrap;fontSize=12;fontStyle=0;container=1;pointerEvents=0;collapsible=0;recursiveResize=0;shape=mxgraph.aws4.group;grIcon=mxgraph.aws4.group_security_group;grStroke=0;strokeColor=#248814;fillColor=#E9F3E6;verticalAlign=top;align=left;spacingLeft=30;fontColor=#248814;dashed=0;" parent="1" vertex="1">
                    <mxGeometry x="220" y="380" width="180" height="220" as="geometry"/>
                </mxCell>
                <mxCell id="88" value="" style="edgeStyle=none;html=1;strokeColor=#666666;endArrow=openThin;endFill=0;startSize=4;endSize=4;" parent="1" source="53" target="78" edge="1">
                    <mxGeometry relative="1" as="geometry"/>
                </mxCell>
                <mxCell id="53" value="" style="verticalLabelPosition=bottom;sketch=0;html=1;fillColor=#4D4D4D;strokeColor=none;verticalAlign=top;align=center;points=[[0,0.5,0],[0.125,0.25,0],[0.25,0,0],[0.5,0,0],[0.75,0,0],[0.875,0.25,0],[1,0.5,0],[0.875,0.75,0],[0.75,1,0],[0.5,1,0],[0.125,0.75,0]];pointerEvents=1;shape=mxgraph.cisco_safe.compositeIcon;bgIcon=ellipse;resIcon=mxgraph.cisco_safe.design.users;gradientColor=#ffffff;" parent="1" vertex="1">
                    <mxGeometry x="405" y="4" width="50" height="50" as="geometry"/>
                </mxCell>
                <mxCell id="67" value="AWS Cloud" style="points=[[0,0],[0.25,0],[0.5,0],[0.75,0],[1,0],[1,0.25],[1,0.5],[1,0.75],[1,1],[0.75,1],[0.5,1],[0.25,1],[0,1],[0,0.75],[0,0.5],[0,0.25]];outlineConnect=0;gradientColor=none;html=1;whiteSpace=wrap;fontSize=12;fontStyle=0;container=0;pointerEvents=0;collapsible=0;recursiveResize=0;shape=mxgraph.aws4.group;grIcon=mxgraph.aws4.group_aws_cloud_alt;strokeColor=#232F3E;fillColor=none;verticalAlign=top;align=left;spacingLeft=30;fontColor=#232F3E;dashed=0;" parent="1" vertex="1">
                    <mxGeometry x="150" y="105" width="580" height="695" as="geometry"/>
                </mxCell>
                <mxCell id="126" value="EC2" style="points=[[0,0],[0.25,0],[0.5,0],[0.75,0],[1,0],[1,0.25],[1,0.5],[1,0.75],[1,1],[0.75,1],[0.5,1],[0.25,1],[0,1],[0,0.75],[0,0.5],[0,0.25]];outlineConnect=0;gradientColor=none;html=1;whiteSpace=wrap;fontSize=12;fontStyle=0;container=1;pointerEvents=0;collapsible=0;recursiveResize=0;shape=mxgraph.aws4.group;grIcon=mxgraph.aws4.group_ec2_instance_contents;strokeColor=#D86613;fillColor=none;verticalAlign=top;align=left;spacingLeft=30;fontColor=#D86613;dashed=0;" parent="1" vertex="1">
                    <mxGeometry x="250" y="410" width="130" height="170" as="geometry"/>
                </mxCell>
                <mxCell id="118" value="Private subnet" style="points=[[0,0],[0.25,0],[0.5,0],[0.75,0],[1,0],[1,0.25],[1,0.5],[1,0.75],[1,1],[0.75,1],[0.5,1],[0.25,1],[0,1],[0,0.75],[0,0.5],[0,0.25]];outlineConnect=0;gradientColor=none;html=1;whiteSpace=wrap;fontSize=12;fontStyle=0;container=1;pointerEvents=0;collapsible=0;recursiveResize=0;shape=mxgraph.aws4.group;grIcon=mxgraph.aws4.group_security_group;grStroke=0;strokeColor=#147EBA;fillColor=#E6F2F8;verticalAlign=top;align=left;spacingLeft=30;fontColor=#147EBA;dashed=0;" parent="1" vertex="1">
                    <mxGeometry x="218.38" y="620" width="181.62" height="120" as="geometry"/>
                </mxCell>
                <mxCell id="91" value="" style="edgeStyle=none;html=1;strokeColor=#666666;entryX=0.5;entryY=0;entryDx=0;entryDy=0;entryPerimeter=0;endArrow=openThin;endFill=0;endSize=4;startSize=4;" parent="1" source="78" target="162" edge="1">
                    <mxGeometry relative="1" as="geometry">
                        <Array as="points">
                            <mxPoint x="430" y="150"/>
                        </Array>
                    </mxGeometry>
                </mxCell>
                <mxCell id="78" value="" style="sketch=0;points=[[0,0,0],[0.25,0,0],[0.5,0,0],[0.75,0,0],[1,0,0],[0,1,0],[0.25,1,0],[0.5,1,0],[0.75,1,0],[1,1,0],[0,0.25,0],[0,0.5,0],[0,0.75,0],[1,0.25,0],[1,0.5,0],[1,0.75,0]];outlineConnect=0;fontColor=#232F3E;gradientColor=#945DF2;gradientDirection=north;fillColor=#5A30B5;strokeColor=#ffffff;dashed=0;verticalLabelPosition=bottom;verticalAlign=top;align=center;html=1;fontSize=12;fontStyle=0;aspect=fixed;shape=mxgraph.aws4.resourceIcon;resIcon=mxgraph.aws4.route_53;" parent="1" vertex="1">
                    <mxGeometry x="405" y="84" width="50" height="50" as="geometry"/>
                </mxCell>
                <mxCell id="109" value="Public subnet" style="points=[[0,0],[0.25,0],[0.5,0],[0.75,0],[1,0],[1,0.25],[1,0.5],[1,0.75],[1,1],[0.75,1],[0.5,1],[0.25,1],[0,1],[0,0.75],[0,0.5],[0,0.25]];outlineConnect=0;gradientColor=none;html=1;whiteSpace=wrap;fontSize=12;fontStyle=0;container=1;pointerEvents=0;collapsible=0;recursiveResize=0;shape=mxgraph.aws4.group;grIcon=mxgraph.aws4.group_security_group;grStroke=0;strokeColor=#248814;fillColor=#E9F3E6;verticalAlign=top;align=left;spacingLeft=30;fontColor=#248814;dashed=0;" parent="1" vertex="1">
                    <mxGeometry x="505" y="380" width="150" height="220" as="geometry"/>
                </mxCell>
                <mxCell id="213" style="edgeStyle=none;html=1;strokeColor=#666666;startArrow=openThin;startFill=0;endArrow=openThin;endFill=0;jumpSize=6;startSize=4;endSize=4;" parent="1" edge="1">
                    <mxGeometry relative="1" as="geometry">
                        <mxPoint x="315.67999999999995" y="466" as="sourcePoint"/>
                        <mxPoint x="316" y="490" as="targetPoint"/>
                    </mxGeometry>
                </mxCell>
                <mxCell id="38" value="" style="shape=image;verticalLabelPosition=bottom;labelBackgroundColor=#ffffff;verticalAlign=top;aspect=fixed;imageAspect=0;image=data:image/png,iVBORw0KGgoAAAANSUhEUgAAAMgAAABDCAYAAADZL0qFAAAABGdBTUEAALGPC/xhBQAAACBjSFJNAAB6JgAAgIQAAPoAAACA6AAAdTAAAOpgAAA6mAAAF3CculE8AAAACXBIWXMAAAsTAAALEwEAmpwYAAABWWlUWHRYTUw6Y29tLmFkb2JlLnhtcAAAAAAAPHg6eG1wbWV0YSB4bWxuczp4PSJhZG9iZTpuczptZXRhLyIgeDp4bXB0az0iWE1QIENvcmUgNS40LjAiPgogICA8cmRmOlJERiB4bWxuczpyZGY9Imh0dHA6Ly93d3cudzMub3JnLzE5OTkvMDIvMjItcmRmLXN5bnRheC1ucyMiPgogICAgICA8cmRmOkRlc2NyaXB0aW9uIHJkZjphYm91dD0iIgogICAgICAgICAgICB4bWxuczp0aWZmPSJodHRwOi8vbnMuYWRvYmUuY29tL3RpZmYvMS4wLyI+CiAgICAgICAgIDx0aWZmOk9yaWVudGF0aW9uPjE8L3RpZmY6T3JpZW50YXRpb24+CiAgICAgIDwvcmRmOkRlc2NyaXB0aW9uPgogICA8L3JkZjpSREY+CjwveDp4bXBtZXRhPgpMwidZAAAnRElEQVR4Ae19C5RlVXnm3ue+qrpuVdPNyyZhoTNKBEfH6CRoZoyNCNh0V3XDSjcrSFyCQHcVjxB8IDOYLiDgIjySIN3VzdNkohhqFKiqBjSo5STAiIJGpc0i5qEONNDYj7r1uK9zznzfv8+599xzz7mPqupZK2udvereex77+e//vf+9S6kkJRBIIJBAIIFAAoEEAgkEEggkEEggkEAggUACgQQCCQQSCCQQSCCQQCCBQAKBBAIJBBIIJBBIIJBAIIFAAoEEAgkEEggkEOgIArqjXI2ZtHIDD0wNwSeBl8t06arGfjb2oNtGTOnGGrutozE/R78ccOA4xzdbau9+r3drHTU66jQ2FnPnw2g5+hHTROhxfRY6b7NehpV1Xi7UdJe3Pmz8Yo298J8u8ZeNjK5Ngzi8yfPqG1WWPPeHu8RmmoqzzXB6eHMKiGOFH7e9Z5l6OY5juT5K6g3Dpm2HAhk4pqgU99zPy/fBPHHz5Odf6q8/33U4KsEJzlPwWbgd9jH8nvdR8xsuu9j7zWwzAn/Ms0Y8XmwbUk4GEkDI3ZdlVu5cv6phYtjoUhAkqoOBiT/m/qH+Vbs3r2zIFnjf8DzqJjw5UXmW49liYOCP4651uYGxwT/A58b+nRs+fdTd55wkXfLfh/sX99zkA0NT3TORcBvBe7bXbnxRCBns552bewfuO3t1A+7sfm+mbb3BfnRyDRwNZlt917oBwVn/ocGHtkTSNoMAeVSJmM/vHPwgClwCvvteMN+jwDreQHvPOJa1Y27rYz8WDrF9lCBcuspFoG4Zt/t2bThDu/pazPTbUSl+9Kv4fWy2UvlTddUTJQE08vnjjvw1BO7k71p3rM6kb9FK5x3loIxuP/7ICusPtdZV5bh5/P54ZtvEDTJ2QqBTGBChRqerfX8+dLyVc7+hB3LvQn0YKSqYKRZdbZ09u23ifwsnRL5ayx58Vnxh6IR0yhl2tX4P3vXg8zLa/mph2+RjkrebvtQqj7jw+sk3+bHBD2GGNwF8J1vKTbta/bN29MTMyMQeKen1LXjdf/e5R+u0fYPruOdgFleg/Ot4/5RlpXYc3vroP8s87n2HCxzqTKWUymO+Rjdn1eh4mW/JcBytLtSuegduKaVfwlx9HnP1pOBrm/baIQjfC7KDOO6ycqkrVQ5tVBzl2oB8Cq8zANEs++J+srBt6s5OGkXm1unbQJrTgTQ713/Yymb+VvdAOBUNbrBNvSKjnAPzE4XhqY1SkUcAsZV6AOsfG7zXOq7vEulvCrTmYmjtIBBbqfeC0GE16KOzf/6SwuWT9zchc3wdVFuhBkxXB3YOfkWt6jnfPbRQFMLVqqp7M33ufOXnhbcX3kp4oB1DeB6yUsI4qdTfqaN6TlRlj0eAsEj37mzpVhDJZ2tl4vvQ/k0A4fvHNtyvc+mLVRaarwNc5vjZZhU4sVB9UjnpCwtXPPIrwYNTX9RkcuTelUz6/+hVPaeouQrATtwB/DMQSIViUbn6ysLI5H3S1xtGAZMlEMnDII4t4+Xee9f9erqa+bLuy3yAA3QrgA/bzaHf6KtTtH9/dnjiKypATFGAQC9bpN2XoTal+seGPmmt7r0SjbhuoVQEspZBJBX+uoXyAidE9/fcAbXgGhlcSLy1aCHqlVbfWStcxNLWTZoEWCjNAgGqbNMpVuedAwtEnqGBnUPrpYJTX5R+RlUGziTcpG/n0Lvw/hLntbkqkG5BxjFbLqL/S/vMlkvuXLngHFygfLtVxDg5fScqHeFL6bHjnDeBC5/lHi6hi5qqQQ4fEkcZE3rSwE8Hzsa9ggFv1Ibt00INdio1qlb1nugeKs4gbxGfkjNbnsfYSLDXDoxt+G2QlNugzkhFXXw1EMfgo3pl78VuiXgA6TZXKbFNMBziRAUE8BGVqk7J2Inkr87KvIA4rtMrc6c4B4vzbtkuq7JTNbhTWlCpVA+Q+F7gzi3SV5aj7bCY5BHHwI6ht4I4ntP5zAcwN2V3rlQE/lRUxa1gvucooQGWO4/dsTkvkiZKLfTajycQ1rH1norJ535MuK6rKiAGivEsyJGTlUWuXjRYcWdkUu4QpGU56NNeG939CEcddfIPrDsWBU8GV2L5PNoBsN0MeNUK3KN3WjmWC1UPae9+ElSzLOAYlBJksix3O4jKz9WL5xzHcnxy6Es/YFDS+ezRjrY+j3qVWvNK+0ku/VLgn0pnTkKJAemt6TNHyJTmM1weI3evznI8RooY+L5fzYkmgT7IWHJQHwifBWWBsWjrDCl3cFX8PEuGmK8AkUP67tL9uY3u4SKpGPAWPOAc80M4pkCoC4DB+waOe/5s3Cv1pryvEp7hzlc5FOYlzpBwgEPAHdspg8hsPdBzHdq4Hc/ACKAykzC7SQHicLX7jO5JrVFgFqiCk87+4Rc4q9UKEKkLqbdmwSr+tjSxuje2rXjA0d3I9PBmItNKUUfYiJk4eSVf5p7EUqXa5Wj34f57zjlZ7IPFEMmaApFApecx0RoAlbtQq+SKNB9cdbT0QUHihPvFF19YR3Fri85sWee5RaH3+DGbyrr/pqqGyQcTcVXa2tq/a8P7hblw0jpI2nUHVEpD30A9Zrx+KRknoJr3H9R+c2lOqiVwYCl//KaOlNTjOP21/N1faLX6uxnCj5oBuPxWSCYiPOe6GaE07UM8Rz9gD50qzdGmMAmE6101/xBGGnXbuj/7yRqR0K7slEiIZ1CrBu4beqtruc/q3vSxkFAlNE5mEW6ZfQKTQYddTdxumdoiywkHi8REHyD+gKMqTZMbWD3pFcpOTagH1/YIkSxS3dJ2CngR1QyemSHGvPQek/vRiEfCAD6naTu5iuy2ecyu4sQzL993+omCha3TqN7Rf4Z6FCetE1Wr6oCzxCVOr6ZDxEt+zrkecxWefmbz8kCaxEHQry3+9y4wF8APCLtB5dJ3gMszL1trhh/fsE3pK39c4208adowCFe9InYK80Un1mlB/bEhgT4JgrxDsm0ed9oSCYkD/RzYteFt0GOehWp5DNU3lKe0ik6kVhsGVNp9PTpD/Wn0YOvv5Qrk5k9L6E3o1lVZUq7uy/5Gf7F/XN5S3QqI6lCJ+FsKxXa989WRqFo+OC2l87uGzgPQ1lKMI1uUreLA8ZCG4Z+DCpZt+1nBPGnheqivES4aakaxaqOu0/JjQ8PSLXLhtimqW/VCnM76XeiqsQehl4u8JVMD0uXH1v8n1PBV8apRvY6SHJFNGMI8xhmQscO+etQQSEuCFfICkVShyl3Tv3PoDlIaJVgskQSJw9VQq2rE0UpyOzoL1NDqxZnLJr8n3a+rgk2jaYeCTQXaPtAgkrlyCYPc0L9r6E8lP70ZRyLVFYvG2kk49PqAMKG+bPdeUkqEx2tDJbJgwP0cBuffuwuV50BI3439mPfPOgvVF6ROWgNBImG7LhSlqs2L0fzYuceJFFukFPX6jckEisWl+DdxJVo/p8EKpnbUn206ylLW43ASZOH1gYEpqlXrsv5b1/T3jbkKObmaPbrnPtiSL8EuoA0gz/ysoV/OjwVVtaL7M9dAet0p76OIJEwcOSEOeADFtglVW7slO4FuBfvM0TfJU2O7xDKg1qyrVq9UG7yLvzZcPUN9FZz00xjk3sKW8S+CC4j7Lb5gF298pIiTINNwnarpav9xz18Mkf0uALxZ5EKtwoSl4ZH5SaFS/S+CyJ10YRREhnUhevbAsW4HUTVKJhqgFYcG+3EwEm9EldvUqoO0kYxx3Ukb4TxOCw0+nHcp98ZjJYa13WtPQpqeCGZB4siFZGVnrbxzwXB/ILjeMXghjOPngJxZqDdw9kTYs6zV2DKui4UuwPCPgD+qMDx5TU2SkFg84ui/+5yTQYvPgIiPdktVEgf1jrhE4qhgnSmrZkpjsyOT4yKZqAa3SGGO2iJrV69Yr4a6AX6gHwQy/VfRxzmw5Uit1AoiIqXH7kEaaDcAcGwxepzw32vtXivE0alBOGpQpTA8cQeIgzovIwikkcDQ0uL1o8F+z8bfkcm9gUS72OR63sTFlu+gHNVgz6ju3zn4P6Em/zeMzzCWVvBuVfV3jrVk7Fgpn7kc6oxtm3UrC65s2oM+o2uugwZjCjCk4f5H+V2Dvk1nH/9XZ/VxvqCC/YZKWYQ/iYP2YzviKKOurDNTemhmeHJEmqSN0yZFI06bQhGvyUXDjaWgu1YxCLxyJ3rHNvyaIOJyEEk8YI3nCi3mbfUpAOQErp3gNiwpi+BOaWfB/vrMtqnHMVlc0GL/W9WM1/LeVZ7KBEl9hYtFU5AfkT+IRrwv6Sx+qo5RE7g2spgkHjKrbky26+Gi2sC46JbGGgRsp88BbhcCObkwGWU/dT6ONasMTLY+X1EgksLIngn4OjcKFC2dRf2tCJ+II4a71Ze92ieS1z72jbn8ro2ngv0+rXsyq9sa5GZeSBw5p1B+aHZ48gIBERlinIoegOFyEAi8AVYKkoJ1hYkE6oZdhqhejd5MiLEO6ldcKV/uxMGyXtTfd+/Q8fDgXAMOyFbCbZGYeyhZtGPfKN0w3J2TGURyeRX68iYcjge0dXjr5AtYTb5d53NE2zBHzJEDY2JOy+/asE3qaWuLRGO/RnxGqB/Le3sDFiBhd6Cf5yNa4kYQB9tjZ8IdcuAN9OHZXZ+2Pl+lalQYmZgAzIbEPZ2SRdFWBIf24bgFsVr9uauxin8rFlXfDXh8RySH8VbFG+TECQ21KkwctLOoqnWQlkogJA4LXHIvpMUbct3scckCUYpWPvseLCB9RfrkGdAd9K/zLAQFRTpSyoZbd0V6pbIhwZonuQrpgdAD58uFy/c8IyD0VqY7bww5vdX+FStKo06h9AvowdTTi+gFEYeMAuY6vFpwj8LGvnngTgTo0aMXocql4ZCXUmY9pV4eJMzu4+3xtb51h5a1YrEXJFrELXHVHf38ioRkQO4hP6VgMDkIDbFgR+xBX2egGZB4OkIyrxIXzKssRLJtahKhcEMyNSlNgmtBJGJ/WViIBjRTn0Hs1g+AZ8fA6GeZ1sRBOzMPtapQ/nJNcsh4O5fmSyWQChaQ0E/3ace1fl+4gsaCV7Mk4SJaSQ1kNw/sGroJ75Gml9q2qcb/5qIgJpquSWDmpWL/RBAHFuRMXyzrZilK7mnQ06+ps1+GREBtoMhH8avFjZlN9WDy4MeDXplNaahYsmCnj+pZrXqyO6Xi2l6PejPVquNoxCWByCDvII1RHmVh7oPDcv3GSGdTIMzT69V0f0VkAdGuuH/oBPCXx9EuZs6lJAyrVvRKWmAqX0q5qSvwvs9bOO62TRJJifFPiNubhHYRJBIa7nGJuOLCuEc3kanqcFnel2RRZcic4C7OZjzi+KhkooZBJtVFWjqSVsHSXP2muZHHnlLl6mcQ/8Lmw5yFQ4dnq+yonvT1CMy7gDFI4tnqorPxWUFsni/bcq3r9YpsViY6zAXRVSIhVnp3zW57bK/YEqPjXQGsoQ/UrZEQNPmImrXfpyvOOiDRGU7JPZMfu1Q506naZ+rDpbMQUXqPSA+Om9KO6cATUn5lRj/rlCqn64Xq2Y5tfxjXKIs6KtUz1aH5jyD3/bX8oy3QSDJ1+OUjCyRaquQ+ATX4aLi7aZTTNjDJ9LKIdzlw8BcR3Heho6tkKLJi3mFLzdkYaQviLFwOIrGdQcnQ3nA3uOq6lM6tiYPeKiGOypcgOT4q9VNyU3PpMrVqqPOqLGNsFUamboNb7lR07uMgBnoWgl4rDtAWr5KlvgSR/rOZLePP+S67zhuLyMlYmi3j8Gys/4Cbsc734pMoyYKJ6mAaKs9BwPeWwAsfHcwjclUvRkodWDAowjerexvz+RX0mzwzFz32Xf9R7C8dFA+uBQeZlhV+NSqqmH5l6yRjhqZjy/EFiQrhZ2LHoeCSkiDLuCBL/68Wvgbp4LvCG1UWepoyqR6oyIctWwki27bTBzXHgWMCiwlL6AU5OSXJ8PgUcGYQUnIS0h0uYPHYhSWY3xDnoz4n/tP6L3vkGeQlEMfUhfKK4+3Q5qhXZa6Wh0Ao0LwEn/VFMKZO1n2538GCYdg3naJdQEMPuuwE9me8c/aqJ/aLJGnjj/brj/y9ErrtVYCctrZTJXGrTrhdIpgDw44G3+2zI4+8LoS59R6DqKyUQNw77nYrgiP7E/eQ6gXTRfgYhK/BTZ63+lqMGhhV3ygQ20tw594GHX0IMIlal6gCablmga66mw5fOfWvLKbdFKVeKyT1au/gh5KEhvvw5NTA7qENMMGmQCQZeLraqVBRlROWVKuoQv81iOMPJJMxyLuWHH4DSyUQAyhfZfB0WjdnbwIX/wcQwhosxBmxzRbNJJM4ShDbxwPyk3j6PlA3RC52lXkqi9+5tr8+0uC3f2zjuarXOgMLTARu2CdukyidufIvZlOv3Cb1ekQl1wEO07d74zu1a5+KKMDjQMzgkwizkaAmcjbE7jhinDZ3zWrjaaLSibrAdnvstPXUnJ54TYiSnA0Bof0HFt4NtRDRu+DODsxytuvaLFGcKfX8RF0zviBEdUNz0109WXMZuCk8Vjs3bIP9+CkgE5GHKlMQ6anGWKKOzlcunR2ZmpZ1JUo6ypiwAt1VB0KZyTRAJDNbJ/YgEnwD4rWnVAaGOwLUkDOsBYQKN9w6WATMODNFSg5DHIJT06LGNuTs4mapBNLYlPHS9M5uGd8/sGNwI4jjuwAz7QFOQnBLLl2gMPzgAt05+CWsan5UXQY34D5wt5P7O+eqDa07n8Gckgg5uc0Jxh1Q+7NChNS/taePesRx1NimN9uu/QCMz9N1FmCBcy6Y5K4lDbSYS6AepJrC4ptSh4u/zC1UJudY+cEiVdD5/K+K71eZ9DelPXBss3aEO8aIIkR/IFW8agYrPBKdvH0UAZCSs/sviWa4p7xyx+BZTsYawxz4dTQOFiQAyUKb8XbZyERE21cgozsyiUSCvkHl3pPfPfQh7bhPginBFhJ7I9y3qD6AAaZTsJN2gziMS93Ma22AUYU6edZJ453UU8+z9x2GI2DlFDzwQlksE8wFj2pMjNkqWwPZC8DNrhfp8sG1lnrJhLs3Zu3o7p88pG7khVRmgHJ0X9oV+ydS0/5jTV+4egwOzv3uII5vwdt0OiOpQNgOkMdu+MxXsOOjurgPAhjF88LIAld99sBVT8yIxCzhOTtHzx+Jj7cOkIJEwo8wFuiGjhcdK51fxNe+l8ziJiQ1V6AdC8GDTGahrs4kjQxhmEwGOxInQByflnz7BtGxtdGMRzIsw5fZ64KJUgXgQiuPVnRj7DvLMi0mOFYKNn8tP4GwDXIEcJ2Zkckvq2L1ZgAcGkvTqikVpDS4lGv1Zm7CItXv0ctwfO/RjYZic58jn6RU6o/F5oEbF/UGdU6CrgL7Q1np9A1SuOZqnZbxF8vuBdjx9hbncJHGMhGGzykS6h8TI8Tni/k4iABG3Ff1aYEJKlGCdLyg15LR0oZm5YGvOnpKKTS84HgkSydf0OkF5U9Y05+lbUVGACPiScCiF42Su9aNYYNgVH2pw/+kYO37PWmDnJgu7SMVcMpG6LwAzuTvHvpdx3W/p9KpPjAHMg+ZH+lH6y9GUTuYw09hD/oO6S9V1xY7BVtXV3/baQfqJTq9osqECULcy/WIlP1fIBIift0oNvWwfexHRPSrq/+mb8emd3Ndga+KVqY9x/JlBWyfQ8OP/hvm+Da4eFlcODMvvJRx58suwpzPlc1TdLVyL7LHFVHuzegFsamFnuRX1fUvMT8jKpbWfyKluVeGSBeX/HH570Eh/mU3v9oy4eWv7Juk00KVyu4EAkjf7IVnNK7/0GOVTeXg5TuELS3rRRWlauV7f+qbn7rpQvu8PnHsGvpdnXK/BU8j2Bm2x3Y/FxoqVkXlsyNYa7tbGjZLCUua0yNHIOSC3q7Egn75AkiKH3HPBToukyUDMJySnq0KVDHLsuypFbvPXsN3mXK1BzUE2KqUaPzyOe2+g4JAKavnDlnVxkQD20M6M5AFeIa/W6QSelC8bbHYovlz6v1ojIRFxO3m07qP1Oe51bfiPCEnaZAjX+S5eRtH0+IunpZaFIK2CKOfaRTRx7sG7wOT4r4YMinhIhiwITxKXNqKPHjB0hsPbp38hfHymXUeqeNIfNEmouTgaTmuEEcKfWD/6pKt83Y5lhTVdtWXuVwkCcsaJ8iiieTIEYjfOXJqeKdStj0ESXKIfnW8MsjrTxA5rPFs/VrKydCzparpNCWJmUg+iEq18u+QOJ+DW8cPI9stYuQiMAHXdeSFikQbAsbcafC7f1yqW3VQECijex/Cfup/tQZyjADmegPhUv/49/wNXjNPe+5O1Qqd0f9D2jT7w+v9kodH4Ivo4sFnYGxoFJL1E+LObUY+MA56rAAux/6EHDHkcfUj0Kt6ld72ByEOrSg5fOIIrp3V85srwq0VtyCXYyR1RfXnRkAkJnphCURyZAmEg/J83YeuePznGN0mMT7poQirQdxoRc/Wyt73cmA5laI9gLAHw+RYVcvEvQdIWDnd7SxUXqBXA7d1VUuQRdtgq8x2/QkMh98C1ymQgYRlKefDENHTeIdFMICFot7/MCKZ1/wNXiM8BMjF1Dxp5nkZXBu9cB88NDzxA+PK7i7UQWqHiJPfbr6MtHyNRyeBo24HZ2UfMQD51Gvi8UKwEaF23VoY3vOA9JEu8COZSIBwGOTHNqxFiOu3AVsLeME2WxOH0SgI2fq8NveTY0xjLqsgkuEGIlmETcLKjnyi0Q6gwJ37HQSmboPBatr0VSTeGW6XwakZOHsiNQxJy/UKEklnSQIgodsjAYLbPUIgkQQSDjkr2Ygfy/7Hgq2ulhcHQFgA3OGRPf+CBavTsQTxHl11N2jbXt/qg7CMIUi9tbBdrmMQH+oiJ64jMiKHqLaAm5VAqqPSVsAwl/sOv1BpaBxtC9Joxcqo+gjCuB4yAYhgDsF6DAFzezT6WHlEztBitfuel+2QbVtYbAZPOglxKP0tMByQKNaYsF27RZWEK3KAkDI8GE3i/VoRCbUAun0biURsz7Ue8rVoLfCqq8yBct1fMpITiEgOD+CcYvX3/CF2HZJrBAFjEK1iW+Aql0IzNi5Pn0+3apUEpqeLXHzDDsYprBI/CZvnI9C5g6uyghZUeZD7Uyt2n/fg/Nav7RO34Ci8V4jqxQLej9AMPx0lcKgRShcgIaRTg+5MQkypQul20enFLz/aalKj2xOS0wdqLw1i125jLlIgYAcHSJxF5wOu2W5dr2cdLvarwCYEAf+o8Fphi9QjfewsDDym3daPjVqFve6QHEp/E3ADcYS8ac01YAC6Cg9VRh1euBtG0pMQqFhMhEqG87Uwj3E4bIikUOLOxGEsQmqc/DjsxQB2HHoSV3lzN5f+BANdCzE/DTVo6mpszHk7QuDPJodF1UHRCiKBHoQlBzyPlnB8E5c8F67jpq6zylUG+vFsKQpnH7UQymAXcdDdKqtQvBbVXC0uzC3wbG1HHk6i55OPbCJ3onNM+tWeNz4xUcBOyYsRobxFOFUjApbhquwBA3gdI/jzyHo6fogjnHBOYsfZ6xm5DYFxImQGjRIIHis4ReCxKh+oprPrBWkYBYEV9nrxZb6iLUq1asf604G5T4laZQzy4NyHG+W84cysTAY24oOI9buSGRDseg68go+DSLi9uTWRQGoCxxiftQ22p4aWsE0Md66VtPIkej2JRsBwN5frnh3y9MBZyz0PCPQS1C0CqO7ZkrbE8PARurn1+DdKJhttzF3+6A/BPe8BYIRb1sjD1A+1glut9R/m711/igCMot943WyJDGZ0cPBDVYz3CGQkcYgN47o3QUKxxmCPMKmw3HlyhuveWtg6+Ybo9b67tHk0bZ6AunECXJtM0a/JQ41Tof7e81gZtcsaWrj0a//XeKyOAHF43kUvarrM7cfasmiQk3jDjLHeR7kSF3VVD2SxVlZ6AIuWF8tjHH6NtaQnEDx5Nmw7sCUQCT2WwRlorImwE8MdQZlbQSS75DVxsc40G0sE7v5/ShDTLPVAE7M1b+3edA5OCOEGmH4ALKxuxQ/ZlyBBnT8wKOVJqqrr3pgulC+AnpuHEcjFNn+89HaUqX+r+fIteH6uLG421BF7I2rSjKNvsfKZE8CdQhwM6kDOysBj94+Fqr1Datm32PAZlvYHG9uf+BfNCGA8VtD83AX749jd97QQB23EI5HW/AsPo7bU1tEKD1jAHHxd9pyYsPpWkgOaBoJasYdciGN46hPSPaMCLnAN6/Dl499YuWvoLMd2vuEdBEEiqYfqN46HRMLD6XhoAw72GzpQ2Dbx35XsJAU+tkiL40wtKuzoFWO2wLF5qjciK84THODgWnsnmqtuRgCTh9wBwFwYnnoZzPxW6Np8Htb/GerCkxA38ewsZuC/V6Bk4MEADZ/bcI8Pj8JhPnqGQJtXSixTI4cGNiOAih4kx/28EN0oFwVbTwLrjE/xfCK+TOwbxljRY3ULiOMvRbLRNjxSadV/qB1E7aZSD2Ee8rCHKLo513GJs2qIY7Z8P/baBInDzCE9o1CFD2+b+Fv42WFngZ5SOC2l9R53ApLeLW4bvo7xaJ490qovUG+XlhbP3jzP1tzInqdwZOmILKaZvnReZ6wEQUWeLdKTUX8BzvFvAErE4iHyQUxjkeohiN6fIkr++wVH/XB+LveDhk8e9/jYPfZzyLcXYfWPwUMFz3BTMJ0JqS9Wvz9z+dRfmeGs7QABWzGxNuBo81r6YGiMuwIRY1X+KvRwrslo8VgtVkS1ahdHxbDdY/cbQgDMPm6tyLwH6ij1UUqOuNJ4DgmMqAt3BsSxbfIS1iNqeVhFZQQ4mSyIxHGsM4VI0hZPS2kFTEKC7m4ekbudv7SLRMrJTfPXUgnE1NgKUZvbrD+hvx2RtdipNubMl/8CE8gtqstjKJJrg8vQXgDQbgZCc1porAYnB7G/QHK4YxGf9HYQ0VuxfvK2+E/qbch3CkI4VkQQB8cFSIDgtP6cDJJ2TQeGINbIDApLofAXpFFcKD0RsUXJWk3YK0+PFaIMXigc3XO+PH8YZy+PGmSp5evkwpB7m3YR1Y+0v+RJba3OA7z4yOBbdGljkPfDIC+U74PNYYiD4S5xErjGZB97ynGcM6HCGZtE6VY4hAVjCCKtTztqbOg32Sk5g1gumr/aEog9U6K1FESqYC1memgKLiaRsLzDD+jZAqefEruAp5PHJZahY0cA7nruz2mucEclEckM2cYm/+83LR6aEqzLhtpRcUv4lw4l/vJjh36998jH/Cgahl0FSEjg10NKOtTtsc2WR/KTstijRljjsRuxB+WEPpyZ7HJ7iWSPHr2pbQHj7gH3fs1N63PEISEeq8W5c7Fj00dy9rSxXeizXn+waxNpBpHdSECPE8188S4ykat7BjmIY3jyUslFh067PUKEMRghNRFY3R+GLQtFSk5LoSoXkwCzFLZFamdNTIba4/Ak1174F68N5HiOJOOlZKT+81rjnCBHMcTDAIz/Yaqb5NkLLFKw1pwHFeDHIBKeuk3XZngKzBMSiRCIfpXl1JqTCYrmdimWaQMggdf+sXd6TqPLky85Ph5UoOV4fAbxBa6jnoXcpqwB7mRyplpICZ+1S2/Kmz5nsm8Ahv6iqJnW4ORG9Fi26brqoEdUUcjABb85Ru665Sr+vY5eN3epbNJC6M8iPFYvmuNjU67teRxJ0JAQfj/5q3HgAx9ovd8MHYwLCTnxD0XkiZ/bvOadUYlgc0D9K1TurREHDfI4yWFK179FTQKRbJv6Js4BN0SSsXKAaRSjJfZIp8DjSJgtUzyB+PEr3EWm1Q+hF4IQ3HkZEAflugZQWCSDRfr30spiTwhhWxSlmDhUvI47/+BtwJH/CPPmUToI9cO19wHhZFMZcPxSWqW+3nJ0fDlqFg/pGkSU6ONAGAKIcV4Uw1QYzIfRrN18/HKsB8fggKiBLs5fSkgJPTdhnRkNRSQj4S575CXA+Gf8Z0GYOXpjeLK96NKMAobr6QUpa8Jp4BkCZ5Wk7+OGKqiIeZQgtw5+UkC6PhDHIbidPzTPUBeu8RCZFpMeNqcQ4qC9f0LxJ61VvURvzg/bJOwWcJAb/ulPuVxxnW9LEycp6ScW9v4OcEcWmUsiJVGUC6v450vg9ytz9FbtxmmVl0m5xSxYeob73BVT34TMPR3rI1QryWhJJJxrr123BMcMcXkGa2UGrrnXYwklnkCkp+aLR73A+n9Fr+rtw0DT8unN9uAexlRpqvDab31Rcp7a5CkK1NLmkqIUop+eJ4WzcgGwSR52DMLswVpJRq5zuO/P5Tkz8BJdxhB32jBtOaJnsAPrriU7g/uwD8DLYMtpdmmfLG2XDDZaDUDyIRrSudHAocPDug0TEi8KMOYmLC7iX71kKPGANlYa/9UrpSuu+f+PRJraqRxrZULhibpHHVy4GZPt0MbAuPDJ5QCzHG0uGLqPpNL2u4F4T4trfbHEwUGRaNkHJLj+LnIOFJ9BO71sCx/AMdsLrx6l/haZQzKJvmOJmArz9yeYz5etlT0r0C9uY+b4SMC90s/DpetkAY+ZSfydMRfmbkwcH+w+qOvTmOvfQn/+EYy2Fypmxm+X8GWoE9Si62aHcTaBLDnERy03irzG5sydR808rRDb9T+Hit+H4cGR7rwBLeer6MzuGvAWO7BguyJJTIe5dwOw3Iyw7f8Me7QXcVJADP1T/NuLHThX6VnMlG/9kCO1Tt44sIJ/BbxW56MkOCs4HCeeydRVr4f3UYn5G/PS4luJrF8EIj4gHpHRUdZTryuqnuAzb1UX/+PiY1gUvAGvjscH522p3dxPI1kb2wQiwQYaFa6oVn5h8C12Wp8G4j8ZdJGFxHkZfODpuREJm0Et5vyrYJOLvvbgyHEOHPe9dWjrNwEpBKNZP7PT6ilR47zxSBte/t57z/v1tF35AqDyIYwrDeBQLX8K3qQ7oBr9A64ZxdCp5G3dfa7ae0GysPmvwFR8DAXegjbpDfkl1O0bZeNaGKata23xloNslQiQ5Uw1FaJFpaZNjLeLFIf0XVTRMutS6vfLAta9OzaeKP8/z28sDr5CJG1g3wks/XY6/W2FD1HvAs/4L6B5TjPXlWrN8X3cGGuZurwIjZv/RZj/EbhWi4F3W/xpm6FWIQfg/ddSecbJOXWzVjwh2+fCtczLcMEB+P8GzhwsbTiyD+zFSqvlnojgUDtw6QazN11zbMFx8b49fLkYp5u2xHIHIB0mR2Ju2PHg/PgDYZtxMPDhHny/1Ln02437JY6qtZC0cPkHUxjOwXfJ9b8DCBCZDIf7d9DZLrvIcRli6Zw5d9lEZPZOpG1kweRhAoEEAgkEEggkEEggkEAggUACgQQCCQQSCCQQSCCQQCCBQAKBBAIJBBIIJBBIIJBAIIFAAoEEAgkEEggkEEggkEAggUACgQQCCQQSCCwVAv8PTkAoONIuKMsAAAAASUVORK5CYII=;" parent="1" vertex="1">
                    <mxGeometry x="276.39" y="432" width="80.58" height="27" as="geometry"/>
                </mxCell>
                <mxCell id="122" value="Private subnet" style="points=[[0,0],[0.25,0],[0.5,0],[0.75,0],[1,0],[1,0.25],[1,0.5],[1,0.75],[1,1],[0.75,1],[0.5,1],[0.25,1],[0,1],[0,0.75],[0,0.5],[0,0.25]];outlineConnect=0;gradientColor=none;html=1;whiteSpace=wrap;fontSize=12;fontStyle=0;container=1;pointerEvents=0;collapsible=0;recursiveResize=0;shape=mxgraph.aws4.group;grIcon=mxgraph.aws4.group_security_group;grStroke=0;strokeColor=#147EBA;fillColor=#E6F2F8;verticalAlign=top;align=left;spacingLeft=30;fontColor=#147EBA;dashed=0;" parent="1" vertex="1">
                    <mxGeometry x="505" y="630" width="150" height="110" as="geometry"/>
                </mxCell>
                <mxCell id="123" value="&lt;p class=&quot;p1&quot; style=&quot;margin: 0px ; font-stretch: normal ; line-height: normal&quot;&gt;ap-northeast-1c&lt;/p&gt;" style="points=[[0,0],[0.25,0],[0.5,0],[0.75,0],[1,0],[1,0.25],[1,0.5],[1,0.75],[1,1],[0.75,1],[0.5,1],[0.25,1],[0,1],[0,0.75],[0,0.5],[0,0.25]];outlineConnect=0;gradientColor=none;html=1;whiteSpace=wrap;fontSize=12;fontStyle=0;container=1;pointerEvents=0;collapsible=0;recursiveResize=0;shape=mxgraph.aws4.group;grIcon=mxgraph.aws4.group_region;strokeColor=#147EBA;fillColor=none;verticalAlign=top;align=left;spacingLeft=30;fontColor=#147EBA;dashed=1;" parent="1" vertex="1">
                    <mxGeometry x="480" y="331" width="190" height="429" as="geometry"/>
                </mxCell>
                <mxCell id="127" value="" style="sketch=0;points=[[0,0,0],[0.25,0,0],[0.5,0,0],[0.75,0,0],[1,0,0],[0,1,0],[0.25,1,0],[0.5,1,0],[0.75,1,0],[1,1,0],[0,0.25,0],[0,0.5,0],[0,0.75,0],[1,0.25,0],[1,0.5,0],[1,0.75,0]];outlineConnect=0;fontColor=#232F3E;gradientColor=#4D72F3;gradientDirection=north;fillColor=#3334B9;strokeColor=#ffffff;dashed=0;verticalLabelPosition=bottom;verticalAlign=top;align=center;html=1;fontSize=12;fontStyle=0;aspect=fixed;shape=mxgraph.aws4.resourceIcon;resIcon=mxgraph.aws4.rds;" parent="1" vertex="1">
                    <mxGeometry x="294.38" y="657" width="47" height="47" as="geometry"/>
                </mxCell>
                <mxCell id="132" value="&lt;p class=&quot;p1&quot; style=&quot;margin: 0px ; font-stretch: normal ; line-height: normal&quot;&gt;ap-northeast-1a&lt;/p&gt;" style="points=[[0,0],[0.25,0],[0.5,0],[0.75,0],[1,0],[1,0.25],[1,0.5],[1,0.75],[1,1],[0.75,1],[0.5,1],[0.25,1],[0,1],[0,0.75],[0,0.5],[0,0.25]];outlineConnect=0;gradientColor=none;html=1;whiteSpace=wrap;fontSize=12;fontStyle=0;container=1;pointerEvents=0;collapsible=0;recursiveResize=0;shape=mxgraph.aws4.group;grIcon=mxgraph.aws4.group_region;strokeColor=#147EBA;fillColor=none;verticalAlign=top;align=left;spacingLeft=30;fontColor=#147EBA;dashed=1;" parent="1" vertex="1">
                    <mxGeometry x="200" y="331" width="261.98" height="429" as="geometry"/>
                </mxCell>
                <mxCell id="177" value="RDS" style="text;html=1;align=center;verticalAlign=middle;resizable=0;points=[];autosize=1;strokeColor=none;fillColor=none;fontColor=#666666;" parent="132" vertex="1">
                    <mxGeometry x="97" y="373" width="40" height="20" as="geometry"/>
                </mxCell>
                <mxCell id="196" value="&lt;span style=&quot;font-family: &amp;quot;amazon ember&amp;quot; , &amp;quot;helvetica neue&amp;quot; , &amp;quot;roboto&amp;quot; , &amp;quot;arial&amp;quot; , sans-serif&quot;&gt;&lt;font color=&quot;#666666&quot; style=&quot;font-size: 10px&quot;&gt;10.0.11.0/24&lt;/font&gt;&lt;/span&gt;" style="text;html=1;align=center;verticalAlign=middle;resizable=0;points=[];autosize=1;strokeColor=none;fillColor=none;fontStyle=2" parent="132" vertex="1">
                    <mxGeometry x="129.42000000000002" y="249" width="70" height="20" as="geometry"/>
                </mxCell>
                <mxCell id="219" value="" style="shape=image;verticalLabelPosition=bottom;labelBackgroundColor=#ffffff;verticalAlign=top;aspect=fixed;imageAspect=0;image=data:image/png,iVBORw0KGgoAAAANSUhEUgAAAawAAAB7CAYAAAAohLSPAAAAAXNSR0IArs4c6QAAAVlpVFh0WE1MOmNvbS5hZG9iZS54bXAAAAAAADx4OnhtcG1ldGEgeG1sbnM6eD0iYWRvYmU6bnM6bWV0YS8iIHg6eG1wdGs9IlhNUCBDb3JlIDUuNC4wIj4KICAgPHJkZjpSREYgeG1sbnM6cmRmPSJodHRwOi8vd3d3LnczLm9yZy8xOTk5LzAyLzIyLXJkZi1zeW50YXgtbnMjIj4KICAgICAgPHJkZjpEZXNjcmlwdGlvbiByZGY6YWJvdXQ9IiIKICAgICAgICAgICAgeG1sbnM6dGlmZj0iaHR0cDovL25zLmFkb2JlLmNvbS90aWZmLzEuMC8iPgogICAgICAgICA8dGlmZjpPcmllbnRhdGlvbj4xPC90aWZmOk9yaWVudGF0aW9uPgogICAgICA8L3JkZjpEZXNjcmlwdGlvbj4KICAgPC9yZGY6UkRGPgo8L3g6eG1wbWV0YT4KTMInWQAAQABJREFUeAHtnQm4HFd152/3e3parM3ybsALtuVgdmwhG/CmhIANJoYkxqwOJJnJMhk+hwwkYUkgq5nPJCTzkUnIZrOMxxm2cdg+MoCxwRgZQyAYLGNkGWS8aree9PRe9/x/p+p2367eqrqrN7260uuqunW3Orfq/ut/zrm3nCtCIYFCAoUECgkUEigkUEigkEAhgUIChQQKCeQjgVI+xYxvKfeu/P3q9MK0q1acWyhVXMn+Nba3VArEUHWuqn9h4CxJqtWyzsy7Uw/8SZAhTFnsd5PA+te/qbrlRb/sXEUdYkIlR6O8Ld4XZKcS59WHtTyU8dpnFv3h5ZVhW93pqofUDUuWqDuU7+Chklu6pFHWoWAbz0QV0Y3T5WifZ6y81jonQyuKpF4CPBtr7vp6dGvHgq9WG6VeLsfCVibOhedr45iyVEtVV6qW3OZv3BZ2oa9qYreH1cXQC9uWv7NaiTsZcNrh9rt1pRUNHbSj2n8cN0pFA21FEixPVdxp+/70sJNlg9B6Pfjwt6tugZFM4uHZ27fLuVVrG0vbm0Oc9bnqqCyoninnfqkAsVDIN/zBVdVXvvk66wow/kd7nDtpTZjCuUcfc+7oo/qLs66Ox1TbqDtKRxYg1ijV6Oicc84VpNSHjRrgxInn5w+56Wm9TQQha5wHNSubZ0Sdsnnz1+qVBmVPwu7ENtwLd+uyt1kvMBaW6fwRXZEHsOlS2d32lm3uynddN6KWeMmMaPvP/151ZbpEl0+njEoKPJyMzAsL7oYfvm9R9sfCLr2A0wUxgIysK9QG2NeU2lFaPbI7YkQPRL3aDWefJ9pTP04CVP3MYPcqosXUjSbpjjsmC7wC8Q1WSHmWHqn5plxFT+NONzsQBhW2NzMjU7sWxL8Ar5Nn3z2RMg6vv9u+qfle+IYo2b7dg2FQYSOyMjIbtVUAAPaaZxzW/VERSKGm26Fu6JcthSLPg31RHl0BeNEJU4tAfbhhw7mmhgEcvDqPl1sAIytbQn4+5JWXtljQZhLUhxP18KLuW5CAyww8ExIW9HTC/CrTC4ef2vCD3+LJGy2Tynof8IDyjKLLPUzUhqbu++3r7JIm58mIwWtewKVGH25qww1nC6j0bIyKRWV9LEhvzItXCWlIxlVtOBH39/eW/W51mVvS0PmZWU/Qg6PKG4FXdfKdNq67k9fFiLF4uWZlPT4f21HkBbT27nRuxZETC1z7P39mdfnGu81hwj/IeTEh3z3DKO9+scEnrhJwqU8mGbiuePU11a13f0LvQ3U2lRcT8v0xjPJqrEuOG+MGXP4+9/IYmy1vjef++cnm2TfllfBj07o+G6K3fFw2JsnbkP648vSrowufIIabqqcAL56ECfE2BKhmzr7blaajZqe6xglIRDcQyhPmqGHefd+Vd5/uoUliVJG02/+OI3DF5tj2jR7FmXuWv7264Zon4UUhdUG9iTCjZJjIONndSqUpd9+yd1SxxyWvaeyOxagMrACqEKxgRskwiXF4LhI+KIcRnEbGNPDS8MhWV10qVlUOwAoWlAyTGPeYroP3hoqcPBf2yGFEbvfJ6xq3YxwpcEUvycnIgxUsKBkmMW5hYT66JvkybjjnvCrAnLyuYR9zf4xNuE82KlDdd/zYNGyQDdEtUBL1vu0t94+fJ9uHNHhj8wlBapCyGIeyeSR1zVd89nPuxo+8dWyej6oGcPkq2IA+DmIaRhvoChxOS2vG77IZwBmrvCPFMOQx6jq4Xl4hRumcUacvI5QGKo57l72d+9O8/pJNmUgWlZYNap6YINptvOYkm0OWvPZRHKOLdwZWqh2vv2SYRBaVts2wLb0t33jJi5xjDtmIg03uleffIzH7CJsziSwqS5t5W9DLvVvY7aq46IfXPqp9WAZgBftIgtUksqgsbYZIwCS5fnPRH0EnjPwNEs+/eb07hqq/EchhbKrkLeb2t46QbS1GVtWl92+4570jYb+LkVW16wrQqiqPwul1o2NbfqLvotIAtemQUbGtkTKsbcvfAcl0u92BJrEc1qyqA/viYYBtRROim8Qy2Ajc1OmQxcaqurAvs98N0baFrWp+kbKq5A3uGRlv1tjt9j9WGoltC1ZR0ST0JFhlYSjJa5vkvA1si7lmQwojYVg4GpTmpyZqPtWQ+qNejd0CJXfKgXcNvI+iib9vXFwGkrqk0+1Zf+jndc8aaH8w8Rc1mN5bitBGAnTFgvwaZo4aPNuyib8soFR0SJveiOdvST6b7xj8uoVDZ1g4Vrj5soHVYmVRYc+3lQEDlpwxtsqTMEyf+75UgFtYpYL6ujCNWt2LMZ31h35QmQ4ooALU+srusR3NFXimEZ5ZrHHWFfIknN8xWLsWKkCMaNirkmGS2VF4LXlch7flwULDsgexT98PLdy37A90Qfo/1FqHdnmDq0iK07e8YmWuXms2r2r9m/V6VPRH5o6TyK74zGdz7Y+qHAvmVS7r7RUhvQQkMjc1gPUJJ3GlivRSG1xKbFuDZFpDezyYWwVjYPX0ZGjLMhIJF2060e1rPrbP4U2ZEEnPh1c++U0RWPk5SGFJi5FBhdfPficZ6IULL8K85qXAFB4Rq0qC1WJlUGFXdJMB776HpEbN89nAA25Bq/4n1YB5sJHw2g7H8pAZTMs8jcOLzWl/KFwncq4YSlU5iWU8i+HtJZc1Cf0agON5mZPTKvWHlmLpa2knnCuCTxxNzrWPWUt5kzt4+5luxQvv7mugYbBNAtWYXepENIexavdZz3Vbrn9fX/2RvNiBMyxsMMwzWrTsKJB4vzKwB0n2v75Wx7g+XrC2E4MI2tyRaSz2dBjiWQCvRw9CmMEOLWeYDN1YhU9fpIu+4YU8GBVZAaSf1TEAq8JeJdtgDit1MFat/u7tuWkh/D2fK/r5Qv22YFZeEvlue2ZaBbPKtyN8aXolW//5f8r0NlkwKy+8fLeQ3oNfz8a0sOde+6ktTSrAfFu2OEvLm2kNjGFhs3qsOtvUS/2yjGSBi7E83l7KmhaQSU/MCuvF/KrOtqnw5srCQNUfeFqm7Q9sVkk1YMGW6mwp7IascoH0LtlwtwOEwnI67V/7r81glQfLCOtcrOUxVrHWYpb+COWW3B8IwzJvQDlYFGGwEqjodfLraVbFYImhwhtwsJ0Rl95tVQy8AZlnVYTBSoDRJ433YOENONh+8KXDtPLwHsydYTHPaod73Leztl2MTKh28fFO3jLYpVXfz9WqGB0D84b2yFCSHCSzMIhkBUXetkztytN/Oymt2vF935021/VahHayMogibyiB9vLjdu82T8vmWYkBmG04LnaxMqFQqoOQATLOY55WchgL251535wB5BRQrAuYWXR9ZZitzrmnHPjzpr6MVrB4g8Cq6VRf9RWZu0gAQ0piRQxbwUKvh0VPdJFdzqeRd6nFPK1iBYucBZ2yuGqlotXev9bzY5Arw2K5pRCs8mYURXmupbflrJt3toJI4qbZ8sI3NoJVwYzaMqOE6PpLh60wWBGDOUKsYOGf0oJVtWdGyX7oV1Z8koWXhbBcs6cEyy0NglGE9bFf1BHLAKbVx9qD/hlKyjfzceERmFlkuWZAR3zcTTfW56EUHoG5yjdzYeoP7znIxwhze9AyN6TIAOH9l/deVVtxv5hrNdp7grHq1PWX97RSTC4Myz68WHt/bM0CCnY0WLmgI374siuiO9He7oMhsmBW/TGmXuSn/oDhsj6g74l+2UJymCnKS8fU0Ij/wtXXmfjMbhULsmA9o2F+jFVbt3wieTunOvbPUqrErRLhyvtnH9vboApsla6IG44EDrmKO+PvfqFRFTicqotaEhIoL+x3H3j6ee4NpydOFIdDl8CCdIPbt0+7X7xqQ4OTxdAbUlRYk0BF30G8445s9qy+GRZr3GG3KhjUYBmU7+Vucr6m8rgrVzT/rRdW4Csp8uYiv8rCX7ur/925XfuXesnatmBG6ZgRwspLVqzT+FfvXyhWXpdMx4ZZSlWbdT3OnhkWhsuN1zxRbyta578IYyGBzdWD7hdlYXabnu7ca88fizYt2kZUvurc3K/b5b/5NOf++9mLVhJjceHf+KZzv3m1ln6sPtFNTXeZCjIWLV4cjcg6P6tnhnXlu67T1OCCWXFbdWM9/tYbdLr/Udmnr7fIQ+0L33Hu3p/4anNhC/XCtFcwsO4y2P/nkcj2Onftvc5t1mrsebEF3xdFeelkijrwHX8USW2q9OMawxgbpqGmLea2sDq+v6e7bXtmWNs0QTh1Ld1aUZzvWwI1duVLOn6tc3/6an9UbIcpgUM36FX+zxpq3HiUc7f9dENUcTAkCVz/Yefe/4GgspKejfJZQUSxO0oJZGFZPTEsHC3mZTALw6DZA3UVdbSXwdtQBYbhJ9ucu3NrGNOdFfjUBYPqWVY4WrhdAViJ9BJuv8+5f/qB7RZMS2IYFjvEfnjDRyO583vggH6qmpgVPC+Lmd14yYxSBngNht6bvk2ttj0xrGLOVStRji7uRi0y/JbKnuYGFCyrWSaDjpm7RjNVP9KyllOXO7flJc0famyZuIjMRQJN7MqXWrAsL4mx2Fa0AsYdKVbAyMywmLU/HygDC9bTnvUk74RByepabFc+YMPy4UGxri/f1TNbsGIKtpVefpX762Dlu0Q2LB+2PuLc9T/0R9F2WEyjsdbhMZxR1gu78qpAY1ZhYxIsy58aJdPwbfDbxdSWsj5fYAsR+4tvs83MsAp21UaSI4puy658ewqW5SUx+G0HduUrh2Xde5k/KraDlEBbduUrLViWl8RYbNPYsjIxLFzZYVeDYgqh1Io60jG3v0cVGLIqL0QfB8vytqyCLaVnSxllZbarPbEqMGBVLsG0tmqKnLdl+a5iWzCtfGWAZ6BnV6GcG5hWzLIWE5NBFuN6vWlWdM/EsArPwPDWH/1+k2dguyY9/STnrn5pu7NFfB4SaOEZ2K7YwmOwnWTyi7/p0879yXtSlFewrBRCGl6SbiwrE8NaCGxX/hIKJpSOCSGvvGVl8658R/itZ1b+mO23v9PMLDIyiLC4Yh6WpJGU30Gxqw7MyuQXeAzeH5saC2aVL7NCzsj0xo+ZxGs/DcwqjvUeg7VE2hlX9uHbuBja12k199QMi29dTS1Me7kV2xFLYK/WDNy48Kjb3/jlhPat+sXnOnfJOe3PF2d6lwDOFnPZDFPF6he9i7tbzi33OPf6X+2Wqn6+WjrLlcqam1WEsZBAVV9H3/yN21piU2qGNb1QX4Ipb6ZQlJedfX1GyzDVwKoVq0rG3bKlmRVweyaZQhEXPbRZ5DL/v6I8CXuVRbaJ+9gDURb/WzCt/JjWx/9vJNW2rMoLPd4enJUnbSIsBiYTXvI4XW+1w0t4SxQLL8Tvb132jipGsSKMhwSuWnjM3awPN2YKb3u5c6edkClLkTiFBPa9zLnpbSkSNib5zIXOvei4xrjiqH8JXPoKvQBqKawsYb66wU1PL8mSpUg7QAm0Y1mpGNbWZW8zsCqYUHYmFPZpXvJ7wC1EYJVkUVTWKe62eKkF0mVhEKQPQ5G3Lj8WuT0Qg1VKG5a3dX34vvxYhe+exc7UWOT2gQR7RTbd2FbJRWtvjhPTWNRtacON2kT72z/aFuyqUR6jPuo696pdA4s5We0k03t8irlX7QpfLS37rp9vd7aI70UC11zr3Mdv6iFn4S3Yg9AGl6Xdyhc9eVHAFNaVVjS0dhzi1r5zk5t5+vFurjLvpufqS/OWly2xuJnytKscOFRr9/xMyfk40hDIG8bNfedBt++RXa586wOOfR9Geb2f4ntXYYBVldaEMRHTSsaxviCruIdqQdjSqoTBuce4tz3tOHfu0ZoZ2yW8+1vb3eYfadmHHuu96aJTmmrYeyha23LVkrrS4LKbvtVzHcZA07Rv7itSB8bNwV61Un8wrVXd4/ZI9KzivmFdxLSOPirOE29gS5njZt7jSlNPdXO6zWeW1O91ipw7tERx7NXjiVsy9ahzB6/ihIXM9c78jup8geVtV0djW5ZoLb/GOsmcuV6rMfrxef/je/VIWNWyZfVj9trH7TIPQa8WhN34fV/CMOMuvfQSd86G5/iqm7aPP76/FnfEEdFY/M53/OFI21xrkHbykBXegps3N37gsSvDmiTvwGP/5dVu5jknuvLqpXogqvL8KbnKnoN27IW5sHPWlVfoqdVSICUNbqRzhxacnlo+lqOldaKBz47jTNXZQ660fIlb2L7H7fuHb7h9H/qmq+xmFc3hh8zegckmDtBbECB54Qmr3CHJtKIpENPIP35v0K4Fji/70n3uSw95b4RkA7sf733l09wSFUg9s5ohesR0WR8RjSrYo75crq/1Uf+aG7/bvbB+UvTgHZisLm9vwdLyT2mxwrNVjZDTf6uuOhdXK2TVx1ZrQWtQ6qZX3EpX3f9i7d5cO5Vlp7Ryu5LzokJ5vPxgW6VOHLVUvpuJj7WxOI5nXXXfMUTkFgCtl/5878WNk7fgX/7lte7kU05ys7OzBkLLly9z27bd74499lgDg1WrVrm9e/dqH/nKVPHYDvfRj37M3XKLXqAOk9DKjhXcva2vcjpwZc/LBuNryrs82BFg1RB44xY4+b/SzJSrzlccIFTlrVwDXPWg/uKOr+xXPOcPzuuB0kMnEAOsCOWjV7i1f7jJHf/FX3FHXF7/PEHe19GpvO9XD2XzDqThoV3r+zFLHJAd6qAABHBaEYMIwMKfD8Guj6rbg+oxXeN8PRE4aRhUFfvVb3QpYNUUBnG9C7JfETz2wqx8SBl32499hvqWgTcZ0sbBrAwUSgIFAMn6nklfgMlBHathAFiVgS7+43jqJT2ttlGZukrleHYPQCF7ymWfoG0JMCNuVn3T7CiU9tq6pbvtdurrbq+KUjWnK7kHDAz8eb8dti3ptNOebGBF/QAS9c/OHnCrV6+2Jj380CMGVgcOqD8Vpqen3IlPONE9d6OmrsRh2G0eSL31YcMXry8wdgnhw59UA5J1nOJQ5YHKFYERgW318UNufttOA6Tq7JwraSD1AASbApxstNNIB4jVAErHsKjq3LwxKwDM04XyuuVu3d9e7lBBEoYpg8/V3pZVcVLlR2O6xX3nflI1q8pyioOkwnbYMtEcYAFMYFaPS9b8NYWk6q1LW2BW++arbtdcBI4knzO2VRU4OreU76EnQ8Y6GrK3y1vdFiVDDUjwakD2U8b9R/P43aQGpLikarBdXKTyE0AYeyIVQcfcF2JS9tfAfACTKVeaeYM7+pjjLHX4063e8jTPgMCQsmsglXhpBCSNZc3oZYb+B7xgWVHoVkfadHd9L0qZVAMSmypOSzUl1YDkHXbcxRdfZMwKdrVMDV+7Zq2BFvtLlky71WtWG5BNT08bWNHG3bt3u40CrJUroxtv2G2mDYQ862XVi2Ro8WQnkzQfd2IAYephp8M+hRqwtFSqDzEn26pBJdR9cYBNWWBki9WA1TnFKZ9tNboaOCkRwORD9cC8AV3lcYGeGBeM7IhXPbMGWqQbxvXeEwJWrXHxsgn+mG3Iqny8jxvg14gBJ0AKtkM4KCDx+0slY/4s9MF4lqqS5fEfQEgAJFdOl9zquK+pd+CekNivemBVISPbo1svz68Rm20okohufIBKBjInG0eNWcG0CGwX9CLBW3r0TFRKUgsqdGMylkg/rIZeWnK59gAfyojKjNSOPi4qu64i9M+ij1e2OKStt1260H5Fkd08A329rdKNkqH87Ite6FD5AVQA1MG5gwYE7BOOP+44A6r5+Xm3fPlyO4cdC7XhBRec7y/LtqO8joaG6CBrW2wFd9mxwnK6ApaG/zC97Q+TUYSVp6kXsKk8/LhlQ6VXXrNML5dLXWWHdObxIEqakmi0qfwEXKQxQJK6sLxSb4folQCuWakF9wqg4kEQxgVDs/wSY3nVjFv5xrNr6sE07aNh/aT7vla4aArdWJXP4NNt3+lj8mdaKrks8EANCIigsgM89kimxNdCO9ZSSxDvtEg3o7IpH+CCbRGwXXlwhNlh12py6iBhi/J6ibPFbqe39cSqkuzrP+R4kRfLKJVRz8VgYCpBqfvMbkWc9gEXs20BHLLnlmBD7M+4qRnN01NI25a1a39LZVGe/oxFxbTS1I3URZ2U7UGKOEDN60u1G4S09bZKd+SRzt3zg6Aw7aZiVYl0/sOOeTIFWpW2PNiVH9j3PR6NYzAtwApGRSAeoIJN7d27z+3bt88Y14MPPtTkqJG23rFNlxjuOgIW869CvBoGg+inDrz+YFXlY4+I2BOgIyaEWtBsVmJSVWws2KR0DqYEcBkr08Balf0KNWHNoUJp5Dngykcuixw1dLMAeuSBnZntS6C28r+cJ9tZoztSP9fRLi8OFw+FgOUZk93G8U+auPtlJOmD4XTLixoZIAE42Ac8YEQeXMLm2n7GtuxUPwJYMVZBjuM6yg4vQYBy3p/0lWWsw2dr177Kvm/Wk/jxt0e2dVeCILdjEPUKo71W6fDSM6AwUAIg9BfaqwARsfRI1e9ZkAQo0KmUn6e3jeMaqmlVh48rLXmjytKIUisP8AOkJBCxu0qV4cULh7pWKo7nRM+P2bW0q+DLi46i36xx995bz92KMaWNq7T4EKoHkHoN2dlC2rzYoWBXPhw6JI9nTWhevrzRK5t4z7gAMtSFa9ascc9+9rMcNrBhttm3lW3e9brwJVfldwSsUs1fN2pSP8xgGHnNhoWzBPYmvXEzktWYkxwmpKtypWV6S5EThjEu7FMPCgawXcXgxJVOP4m3VD1TsS0EkKqIaRHKR+jBE6gBchhMcOJYcuqRbvmmJ9t5/zOI68XhoiF4xhRGpol7RCNkTkyjVnVcHp6BMCnYD0zIewpGjKuWunEnY1tQ+wGGeAjyuRtsWeATx9iyCNi4GkLGOrrmXfGjepKYWPRiw4Jt3Sr39jC0YhBp4+ru44CC1IEGDNy7sXobNqQQsV32SRcNA2XW05t+nZ33P23rnbpQhZyuZKgUpcko8faPzFUeLE4gGdmrqBcQAzi3x3E6rtaXomhbh3KFoVO6u++pp+yFWfncU2UPsD4mPTvql6XAmLBDoerDAxBA4m/lEUe4Q4fm3FQZ2UYBm9X27Q+4gwcPGlihDozSzbvnPOfZqRldv2327fHbvMvz5fptZ8CSgbTd274vwG/HJR3gUt190Jm3n5gVAFVaKhYFk8KdXQPa/n/5jjt481a37/Ztbu7rP3YHtD+3ebs79B8Pudkv/tDt/+wWnmgDMdR+BLaUhZu8OXZgyxKbo2w8E494zbMGLqutsKs0DIoGd0r3yB5SRCFn5kGhIZOC6SBK3ugjIItvuT7q5d2CcmFu0wLH1XpxoHyADJAkHKV+6cYELSE/vbTFO1z0yKqs7jjvw5pSk5VR1Nqunca8MCwAQy839gdYcQ8Tp7lvBAMtgAobF4DiB0K90Ik1NZZnOZrj5FVYNeamcs3hAlBC9nG5UTb9es9A6sKNnXYkKGWcNlW9StsqnXe4iIuyTVpW1Spd3kwhTXmXXPIiAyi8AY8++mhTARqTmplR/IypAr1aEDa1dOlS+6NsvAgXKvSBcxdedIFt+UlT7zinSzpeRErR2uU17vD2Ogim0FhLfzadZPvMC1AqPFPXLUgFKPByApuq/H1hTJx/9Nc+kWxCy2Nc19e+JzJEk6A0AzuLBkSHDUzMjPKY2zWz4Qnu6LXr6urEuMRk+4juNW4LLsFpGBSVdErHRx19yJl5HJR7IGzqJ1KVAiQEPAa5l5baYSy/Pup9+ABzrcTiTF0QqR9xo8fZw3sIGmj2UUd3BrotkmBde5PaMzBpw9oqsw42mGToxCjCtE3pavOvAAbACkDSYFY6KcrmHXfMk5BBDlUeTAmwOd4dfazYU2JOVkMdUhuWZq5U+tjJokod/DGZVcBkgESdUM8d9qISqQaJU/DAFR3VfhvqiGPTxtUKCXZ6YlryFCTkzRTSlAfQLJ1Z6hY0bs1L5QcgAUQHDsy6FSsilSDsC9Z1hFgXrIo0jz76qLWZcwTmap1//vNtTlaaeskzrumS69d2ZlihAUsXNS4sCgG3agvzsAjGrjR4lY7gbVPPBzYrvAPjAbRV3lZxP/r4He6Rn/9INOJqEK7s00MtdSJ/ZhvDuzAO1DHz9Lr+v1V5/cY1eQi2elNNGxd6CvqL6IVptMgLpuNsQWBr2tZYF40qrylkrNfASoUCStisAEM8Eb1Th5+j1VBPxjq65p37cT2J1yL1wba2B3lbMYi0cTYPK7YrRSACw/L3qbacqwUAREBjKkH2Sac/sScfWtUbeRN6PSj5sIkBeARADPDy5R2lfcoljj/P+LQbh1Z1ZI0LPQRbMaZ+4obBUrA7nX766SYRwIpQ0f0NOKEKPKg5V+zfeutXjXmhCiSw9d6E3q51QBcbzsmyhPoZxnXkXcfCwrxb//o31QaNLoDlLzXa9soMyD2MvNiwCNiVpo5E1aGAakgBxwnsWajzsrSF5ZhQH5r6zyYdi7XJ9oUNyzwKBV5Wl2xmM8880eriJ0sdtUzxTtq8HVlUWGgrthWe9/s5MBLAI2JZkSME3oEwLFhX25CxXtiUutHUgAdUOKrAWW0fUv8SsJvheNEQMtbRNW+YwI/dfbCthxjT45CWVbRKF83D0mAW26oi4ABEBBTEGTjxnHhA0TlUezXVIHOyfkUPTPTy1aqOyJuQBvtGM79KZdbmYlE2f9HzGAGVDi29FxbHUWhVRz9xPTGruC2t8g6DfeAdWNZ9Oy1QIixdttSOYVzEeY/BT3z8k27z5jvMzoWaEAYWeQ1qUYO1UhMqPQ4YP73p4tqcrPjSxpZFdWvfmu9+3Sfp7HRBqn5ZQa2meGeQ5dXWCdTgtfDgPgMoY1YCkwVc3RVvzhIZ27Lr3+83VR/qP/MwJD9egnggCrxw2qD8/RX/lhlXoE2e1/sTlrxJy6C6pfNLS+XMPLApeXACVCC13v1c4jegMen0US+MzdvEvDMHNqsTluttVOewY8GyerJN+a7r1r4eV2i34lswMlzbkyEry6jn170pWUcBViOQEJhYnKkDOQnYwHYELF6FqCPUg1Wp9fycLIvST60tANnUuRYdeRp6t3hFCfjIWwNLwNEAkjbwAsmWgAA82FmE/dTqqEfV6+0Sl3RpJ3mvrArX9ryZQrfyNv30RcaWsFGVp6bErqQhkuwAK2NRAqOdO3e5e+/9obtj850GTFyjd7Z4+OGH3eNyd2fOll8RA5tYt3opgzDW6YJ3zy4MqzQUppCWUaRJZxODTQelS8MrUI4WqAgJOE74fY7TlEe6lcfIe0qjrdnF8EBk5FXAPoZdC7d5wooyD29jSFtHmnS7eb9oxZb6icuRebAALaL3wTtfeBdzwMXHdbcRxaW0aB/i54+y+PP7ACRegvyZerBF3n7q9XltDpYnCn2wqgavQi+0YNsby+BeFEsChDxrYl/2KiOdnnlV7lI6AIRzAg+bR0XlzGRRPy79VQ5qodYW8yLkouVsZHO4sFsBPipHAFhCJVjZGsVZuYCi4mTLigCStNTbDFi1OnTWh7RxPn24bcWW0sYNg1X5OrA3nXDCCWanOiDGtHSpbO56u8B2hXoQlSDqwa9+5Ta7vFtuucWAzKsLAbgjj1xrdi2vFoR1YRPzdYRymbS48IOOHQErvEj282QLgyiPMksr5c0nEJmSG3tVzIrVK8yVXecAK9SFWa9j6QWnWj48AqsakMtr9baoUdLme1Hn6hlzhV/YXvd+yloHbfchbd6+2NZDj/nq6tturMKnbJMOexJAgRqQgOoOxgWg+IDKsCm0Ka9dOkAK8KM+3vK9iztxqCN1usbyamVkrKOWj52WeYMULRhTbfpRYJvqFLc7MC31wzSieVhqkHkIxqCAc4UHLwMWnZ6PHY9MTSgA0fmaHQpWxAK6YlPJttjcK1vcljz8aQqIgSCApYH20E0xYCEf1V87x4obMGPUtiHbCtibpYh+kvUS2y6OFTfC0CuzooxWeQfNPi7edJHc1g+5PXv2uOUrkE0UcKhYuWqlWyI9b0WOGF/84peMCTFZ+NZbv2LpASuAi7SAGg4XBFzcn/a0p9mcrKi0MWdRamQ7OZeCIaMzYAVvy1x0GhYwynTUbatXMPkXDz4DL71taiCb0mRim1elAS3LdbBeIPOs/KK6CM/meakOqw97luKo79C9db1OljqsoOCnXd69evttCP0wq/iTBA3l5cBImAvFEkkswQSwwLj4A0z4qy3NFFacsV4VY2Vhv/L2Kpw7AC7qaBky1tFQRiJvpfRoLitcWB2eqQUVpmUVrdJFNizsVbBxgYgBhgZ0c7YQgJhKUNv5D6pGf6xdnS/zySCvHiS92FRDHcy9khdhxKYEgqQxYNTW6tFzMP+F6EoMINUO80QEzFSXGFjkGKP9OD2JG+ogQqGfuLQsKm26QTKSVQKk889/gYEN6kCAa3Z/tIYgtig8Bg/Jk2b7Aw+YOtC3BbUgk4mxe+GQQQDU9otZsaTRMnkQso9tzAef1x+znYi44JnuDFi6oLRv++OSjtUqTO2nt3yYFStbEGBGGs2McS17wcmOv7nnHW9bfxzGrf7N89xx//bLbuWvnKM1XjRRVTYxC7oZGIGtPA2YNpEYe5bUgw9++4dRmuA3b7n0xapa2bVasofA7d1fS8p0AMcjUsUCJAAWWwJMyOxKGctrxW5wqKBsAvt4CAJUfg6Wr6JV3tzicmBV4TqEoZegb387RuHP+21zunV1G5b1eeSMEgFNDBaVhyI2hGOEgQppYoCxY6m7WckiDlaHeQ/CZgAfQIg89IO2lmeH2/HwdTqOVORRGh1aWvKgCuRP90MlpJ4W1ZZBRWfrv8nrnZ892JIZtWJLaePave3XWxHt9ZvuxS9+kan/psSUVq1abXYr5lPh6bcvXnYJu9TtX6s7HlDzF7/4RWsAKkPsXGz9PKxdu3bJ1f0xO2ZdwmTot82jKM/X6d14/HHTtt3bfjLhOKTjI4zYrEx1pwENr0DsWE5rBTo+FSKgwY51zA3MIXGOaYx4DaJDwqGC1SyO0XlzqFB6WwyXhAIm1iMkbWmJwIq1CBmI9d/YlpI8rsnIw5DBONuwEBXqQOZfsfoETCuaOCzLhl4cYFeoCS0kWEuWOA9Wy6BuCr5MdZMBI2/x5j7fRx3eXmUV+J+wPM+McrJhPSEsJ66vH5ZRMvABVCKAMMYFuzJmQ7xkJTY0ZYvX6sAznhojUlz5VD0zF+r+v9lWco/mXvE2j00K1RXDB8eUp5e2ub+qMyOziTF3CFADrAikUxsUyiV9CcH26j+9Xu/0cjzjIpZRL623tQR9/mExD+xM3o0dNgVLYsULP2F26VSk7kQdGAa8Az//+X9zL3nJJQK5knkGAnCAF2rCNWuiKT3M3/Jzsnz+YV2br89v+6nXl9GZYSXuqLzZQt7l+XlYBkK6wtrSSlLXwbwAINiXsSMxJTz7Ind1rWDBIreyb9kK7spLWlZrt0VyWaldE4Urj8rADHhphQtbSNerBTVu7v84Rux6yPvaWpXXF9sKvlhaa3VKFtWJpTBHKvIUZFCSukIg71WBHPuV22t1stNDvTA2VIKsKwg4efUjjK6lWrCHOmptTOQtV49Wm2tnI6c3u44+4oKsSQbBqbRx0fewBBCo5DwIWdmAheJjRwjKKy9cpzioIucUDNAAIo4VD+hMRyyrPvcKAAStNZCaB6B2DbhU9sJmDhQYLAEpD2aAFAMveSmbv8impZ3U15ZWBmlZVNp0g2IkzL16ylN+ykAGN3acLbyHYFmOFrAu1H0swYR3ICFsy/fu+n40yVgThgErAp6CM9ILs13QSyJ2rYs3XcSphrwWMSlxugYfOgOWTxVvh8Eg+qljek4Gd75hxeoWetO3fe94IeYEIGHjqjz0eG1FCmNKvKlLrWSgJvZkdjBdM+zJ5lwxCVbghB3MB68KBOD2/e1mx3ytMPRzHe3yroLShWEMbVg0L1rVImJV+F88JpYL+zHgQpbJEDIXf65LHCtaQHKZg4VaELaFdyBOFy1Dl/JqeVKnq+WIxm8OQ5aUkYGtCcTSK9OgCdFaggAC4OTBSIABczIAk9C09XVU5/5Cx0oPkHkwMTsWwMUzc4WQ7bh4JfeIHVm6GlgBXAKoyndU5c3K44Nndtra/CyYFvk9aPl0/dmruI61KxrZVVrbVNp0/TCDTnmxL8GOcF83W5XsVwZamB0UiCN8+eZbbMtPWN6Xv3yLrdTOau2oAwE9XNqj1TDwNNQHTefm3KZNm6RuXNmQ1xcYljeucUYw4sYFj4lvbn0rPjJxNixztFjHitDqcH1ShAAA8akQm0cl70G+HMyySnxWhO9bsVAuHn9MLrY1B+WsQQDM7NtXYmWwMZhbtByTgA/UV7657zzk9rzvq5a+FQvKM25NXmsJ0tqVDEgKCfbQb5xnNzArv0q7lRn/eHVeP/V6VSBdwGdFKBOcwoZF/TAuzvVTR6e8lSmpuqIX2vyYViikeD8to2iVLgIgAEKDngGGds3hIlTR6ZtWu/46ro3BURclkJP4on1UfwAdruxTF6sc7xEo0CPgdGEqP+3GXof1tvAMqUxA09SMZKAOnknmawGqjaGetx6fNs6aUs9me2kZVKt0IZPxxeYdd8GF5xu44DgBm0I1CNjgdIHzxUw8aTipDqQ9tAWg+uY3v2Xu7HgJ4tIOI4Ndzc7uN3ZF2r179zhsZT7kfR3DKM+3vSNgaeW9odhl2jEK30i/7ZbObFiwqHheFEslwYqmniBjJuo+H3DIAJRwwpAq0BbMRW0Iy9JkYFvpHdalYPYqsTPKYdKwOXGIbZmqUMxh59WfqrG1bu3z1fea7gRUL/2wqjAvdj1CakahuWjJ0CIv4IHjBfYq7FewLdSEAAnnaoDVIm/atgBOABVqQepS0ZgnjWERVwt91NG1LRkZVDf2dWLIzuIL8Cyodj3a6R4ntmMMiftX9zisyoBKh8awAI16MHay8I34HCAjVmVMiJXe+WqBjpf+kbYh+HhGg6yxY+mceR369uF04dmUdi2QjvKJl/o9erzsjP/pfm1Rylbpjjral1LfpmVQyXQLlSMGzkawKzH3CpUdTAqgiVzUkZG6DHYk0Prxj7fX1IH1K6szLbwFlyxZUrODLdFCuax2wR/u7szHwo71/Oc/r5Z9ElhVrbHaKQUUqyNghZnYz5MtDKI8bFgwqVj/ZKAiH8/6MbYnlmeS3YM0xqbkpGGgRZyCAZFuIgtSNxnLih0FDLzwPBTgHfzmA+7hyz9kqsBRyaUvG1Z0hY2/ObEtQIPPe2Czwp4FaHmg8gysoeKM9QJOEVDxKRMcLaIu9l6Cj+vFg/iGkLGOrnnnT64nyYFtrYts5FZmWlbRKl20lqDuZdR0AITAyuZXYdPyNioNhmHehYMfUFpe6BgsERzgImCBthjg8WxwLhpM61tFiStV5250jz7yEAcNoVpLT9mAHGAF0sfsXnuEsC1RTPa4o+omsb49BpMD+iAYxMWbLjKXdEAF0MITkH3CCs2hYnWLadnN/WRhO6GfZFs+/enPGCNjrhZMjf4gcIy6kZUwcHN/ztnPbpiTZYn0kyyP+LGLK8fjsdrWEbCSz3yvzAAhDCMvNixT9cWftq/Owp6i5ZP8OoL2BWJYmDEqPYhiWWGIGJYYlN7cAStz0mBEBPj0h+PF7j/5knvoZ/6hZrcaxrVRxxn2hhy0NmRMPjplXPkU3p4TIQdGEqnkABQ+sFitTR4GZBrYT1h1xnpZUcMH/27BMcwLkITdefDy6boyJp8wbVtmnuhz5GLDOkP2Bx9aMYi0cTYPyxgWoCWg0D1j6/x5lgUwyWYSlleuflZVA0r8SYhmnwKcvPpQary4rMh+pTJMBxeNEHgbhuXpoVJevexZeR7klMcALBqUw5etxrxKppA17rhj6qNVkjFRXj9xSQCjvH7i1q49Up575xurmpqKPr7I6ussxwSr4ttXsCKOk+rAVvV+7GOfMK9Cc22XowWTj22lDHkS+m9oTYl5YTNLhlbljVMc8nnzpWfWmh3fPbXjhh1wbWd1fxPYwCiSg/Q4xKESnDp+lYGRLZkEWEk9aCDF14U1kJlrulasIM5UfKgHcabQaIeTBqtWlPSFTwCNz4YQcOI48JVtblbfyZr9wg/1TawDxjaHLYP1LDBa0WoaSVBirk2WuOPXOrPDcHEwj+Qg3WPcVsl6ox4Yv54gAOXnXgEmgBbhKfp+2Jd+8OOe6r3ouJVWDoyNNQr9PCzK9WpHtt/epTf6Hq+DsrrnPVmJvqJ02nh1HkwLApExbrXGcuYSObzAgwDzSA7caeOMTRlrktDNhiUw4oEGRGrgFTGZo4/SnKyDfy1se73O62KMiQloSG/OGOzzLIghhfeZOVv8IPY21GkF2ndMgOV1F3jYlQ8Ao9ep+jjflvoxe2mv95ij7eIaMmObSgJV17hSpPqGZSQH7rziXvZzlxkbMlalNwwmBqMOXLoUViQzhV4GsGmhKvyff/t+McZZAx4mA/tPiABO0QK5ZWNYXDjqwH379toKGEeJcsLcCNjECD93+WXu7//+H41BDerarCL95CUrgPfKd11XexvpCFjzWsJhXfIpUmOSAzWNHIc4W/xWbyXmvi6HC+xU/gOMtNFWvxDNfuTKGzhMFXCqAMiSYVTX2zBg+EaFg0jWuCRYkb/HuO/tOuCWP/lIY1J+PhbzryBEa2dYRgnnzaq7VJOO/uaedDaxZFuef0zkqelVi37SMM32akfqfGC/Bsger4OyuuYtnWzJamDFkR+DPYCljHuKRJEEJrL2HAfI2EoTlKJg3oLaAlysTBGcq9Wx8Ckl+M86J00CgOW9Bo3Vw44Uqtp6MLN0svse+tfoXPxbK8/YlQcpACouw9u8TD3YkLX361UxJxzfWBZHSbDKEpcc0MmbV9xzN5wjQJo2jz5AheWXIluW1g1EsyPZ+s+HoM7zwXsUcoxXIEs5EbBX4WjBShkwNdLhgIGKkNUyCDA32Ba2s1tu0YtWIuR1bb7YvMrjWsJQl0YYG+9LK9oQOypbTdp652d0cbg569MiXvVX2XnAVR7T/CkZ6W3k1BU9cMv33IFbtzX8tYtLglXatgwi3QuSKsFWK1ekiTvrSRGDaOhdHfRp53nggNQZegBhU0waZh+2hXrQu5tjz9ooL02YUi2krJdFZ39j/VGmZgSwcOqAZRF0aH/E4+r+tUejt8qsdaSWQa1g7fRpwzojEAXFwiqSIW1cbR6WMaloxYlo/T5AgyA1n0CnqTxc0vUJewveq1AH6i79+Lyc1X4NzDQ+zF9LZHN5BlDYqqCN5Nef7l9ZNrXvgUy7Ck1t6SHuqWdZUfbTyusvbdxCJdEZKjFPmw5zr9avP0MApTVO9Wx45wrUgAS2fAMK8LGV2wVYeAACULAr3NR94DzLMzFZGNCy72bJ9mXzr8TOcMYgAFaUAYtLficrz2ujrrzLo8wwNCJSeEb7b3l5fd4Rp0bFKtLWO71TBmaxIXNVl20KN3atDRR9C0sefTAvJv2mLW/c0p2oQWCFGcXjjuqVWR2lgWQA7OO2R6S6EHAASoAWYMIqFGwBEgAMZwlA7MPPP8kdKxWuhZRt+dAFP2WraDBh2H+wMVrsljULIwCDXeFBuENz6BpCyjpSy2XqefXi/RiXkVlZAcr7nCPrRbFXZyn1+LRxZsMim4EKaIPpVQ0zdiUQj9lVq/Kqh/5R+TQgkpf0AhiJVVvYEX8MltikAC2BId6FWuKJ0FSevVz5wTXOX90RlVdzxrCszXlbldcl7uSTorL47YdZlcur6wXFe3mxBYrbeO5GAxgYkVfvRWwoGooBIY4j1WDUf6gHsWnx/StAB2cMVsPgj5UxjF0JtFAxko70hGjF9wNWHoyNOV6XXvpim5NlCfST57VRZt7lhcMd5XcErBs/8taSXyKExD4Mgj34sv22pzr0hWG/uoU5TLB6hb6RhLME6wGycgWOGD70VEeceVR5nxgZIvwlRNs0rIqUPt1xmm3pQ0p2k4Z5PCyG9WXNVwOU+KAi3nrYsAAVAIs/VIWAGqzrM5tOTcW0ALabLjrFXShWBuj5Mvwl4GjB3CvWMCQAiB/9kdQlOV6bFRyWV45HSOxVPvTItJ4i/5c8WEbUDFiVBiwAw0ADcJFO1gAH+ejP4qPUDfXGrukGTP5eIZmBGIxVLzq1crV2nXkXRuX431p55CGgOqwFtcvimYcF+2oMtbxBdNo4sqwLPAU5TsuqWqXLmyn48l760ktM3QcbApQAF7wDURGiFsTRgpUqUOeFgMb1wMrMVV3zr7BL8QdIEbzqDLDDMxDWxdjt7VjYwyh7//79DXOyLLN+fPv8MduxiIswu9as8G6qRYY7vGAlw7gxj7B9rCNoq1AQqUGxIluWfWRRq1tYCHTC43wdtLVV+y5gRe1kyMi0ys88rl5Czszj01rFFZYDIAFcBMCL1S4AGpwymVRM3Kl6wYBpfUR/v37GUe6i0+vWekDq55602v3Vpqe6b156hsN2RV4YG2Uru4GXVwlSzzHqe+xlH7pvlwM8U7OlXmVQfr7qoOY49Mi0Nq5amgvLiFoBa42BybeLLUBhqj7evjkfhQZmZAvifiJI51PF6b33oUXr62zmXejTJMozUASgQrAEpChLS55ZWW3yBtEN7Yvj28WddWbjaNUL0yqVI9tq3kyB8rAfRZ+znzEHCexVABXqOh+wWbEsE2AFoAEy2KFINyd9LwDEMQ4W/B1zzDH2B/tilQvvGg9To1xYFen5oyzKZf3CZBjE9fZbB4B76vrLG4rpCljRwntRnlGxirT10kq8APHuM29A3RDGqqQKxKZlruz6HEja8sYxnXkK+i4M34LTxnkPwZAt+Lw5xP3NPY+5H+3XjH3e7vQHOOFwAdgANAAKDIhjAnE/c8JK93ZN8v7khSe73Vc81T38C2e571+23n1g4xPdlSevMTVgpFLUcKcyKZs/ZTU7FqwLNsfcL8r74D0PR4WHvzlcW1hcxN5OjqJ6ZFZkPlVjeHJpobSsolU6s2EFDAr1ntmNAIiY3VBvq7zEVea/oLN1QIuYmfL6MlUGK61X5+S4FKsDW5cHMBIiBhCpEomLVYpBHe3aYtmDn27pnvG06HW8FWNKFScPwUGyios3XWQu54AKtisG5DkxJGxMBFR9BM7BmCJWpDmMsmv5NMSpMwRMkTp9586d7pFHHrFyIrCTdkPu7J5xGauS+nH37t1WH6AWfidrkNdrF6OffupAy+fLYdsdsIIUrd74xymOC8JGVV4Zv7EwoikAVgSWWYJ9jVObs7alwfEiI7MyIeBwQeiVVaTI+26tq+jZlV/xApACZAAqthzDsgAi9gEaAsyJvDAplnYiv/7bH6vAY6viPH+kBaTMTqZElAG72rwrGgCsQP8ziOudPj8qvUdmRebnH+sbWN+2YxD1FNFeq3R1G5YYlXkEonoKc2pQFOi0ykucLYjLi5D3JPQvRYCd2bbk0MSXhs2rsF5uc3kaWA3k4mfR9hlsY1VhPWvbtgRJbLe5jkbbmXe8EJloCmnicLgYFNNgLb8LL7zA1HiRjaoOSDQWUDp4cM7Ow6wIsCIYEsAGUMHIUBXyFzlnaP1AsShAyKsTyYtjRsSmIscL3N/xHgTkYGo4dVx88UVWx6Cu1wqPf3qpg2tuFTq6tZPhlNl3l+5d9vbqVCxE4mAeyYF2HOKYh2XegPISK1WiUY7P2teWWsJTUIDmwzi0OWtbllUPuvXKtMVnZGsDTGIicLu4s+pqNysC5pEczPuM++SPnPunH+50v3zakWa/ioApajDgRACfAC+vJgSAYEqo+PD+w+4FOyP9Cj2gOFmwErtf7R2Q8gHWRWAe2B9/J2BXfV5HN7mUq8/SKv+q2KsFYVqAV4a4iwUSBNhDckDuJ45VJkzUBjJiNQG7qoFRm3qrc9frxe+3lCdW5wlsELGGWGureRPKq7Bd+2weFnltzIgHHsDTlhaL1IKtxqN25aWVy7OeGTXP/8KqkkDVKS50uIAVJAfafuJYy4/ll7A5ocbDCQJQkZANpJhjhYRXaNLvJz95k/vJTx70l2EAhPoPIGJL8N6C/tjHvfwVP+dOOukkY2QwNuoA7HDGmGdeqvoFwHzFKy63OVlWmH76ubZB5W0FWvXR27e8xZY562FIghXnxiUOVWBl+x5b4NY+B6K2sZZgVe7tPDp818qHcWkz7cnSlgtKC26LXhpqIQPTwn7FY1ILSbDiRA5x/3XzdrM7PWnFtNm0luCeK8CBEYUhsndNuYe0ZJYxKDUOoCKgPpShxLGyBayM4Ld+QrJF6geHi1/76tbIduUjc7gOX5RtE+XZ5Os1smNVvhIl64FpvfxE7seDTWBFgcmBOktc9F4gNlV7dGE2EbuiHB9a1WHsqforyqsL0gsSYFeCIQF+mkBs3oQqoFXeKA5wUn8ZSGrX5zW1JKgub10BauOd0Kk8ZQlC+3qde8F5JXfrbVHJSbCiiE5x3n5FuiRY9RvHWn4suWTAIxUg6juAAxYFsEQqP9R/h9zf/e0HtGCt1zNTc/qwZs0a95rXvkoAxEK6ESuDdbGP+pEJx4AmrOx82dRuiedk5X29/ZQHCwSs3vyS9e7KO25ruPj6a2pDdOOB14eOo00nbKlNHFYEC9WyFFNJTAt1IK7utho78XoLH/fr6Na+FzEAELy6JjqKfjvFPf2kxhUuwnzs52zn2XDTt9wN23a747T+IgGw8g4ZHKPCW6dlsmBggJVnX5xjnzjUgv4YhkU8cYAa3oEA2E+0fuSrbr63rgrM+To6yqV0Qc/zsDaKXdkKF3aF9R+YRjKkjTMbFplrjErLkMWqvEhFJwQTcHQsjzlZlbtUCIxK95q/32zSb7jCOxVFobm8GCBRAdoqGfIy9ABW81hsl7e9jc3X57fJei88X99Ja57n3z0uWOHCl+23MIhkyBLH3KvTTn+ywEhLxZl9itUs9CxoRXXUc4SIbTl3881froFVljp8+1jKCYBCVQgQAlxsUSMSAEzAinDxpot0vr9rs4KCnzzK83gTrnDhq0gFWP+N+Vh6acnCAnwFfjuMvNQFq7JPgeiTInwuxBa61dv3gliXnwQ8jLYMso4NsiEch/kxA7Oyfjj7yb47cmFR9cK0l2AfnIOBwLTecudPjC0BUIAQdisCQIVq8EG9XKAa3CHnGEUZKKEa9M4UpCUPjhUAFAQMFSLgByA+73MBWJG4RVsGFVcuv6znFS5e+aR8WAWX7ENkw4JZ1d3GzSMPFR1/cejEUkhinwsB6OyALWXqnlu4tclJhCSN5UUOAcSrp/QHi1T+2p92bZ9tMm9/cedfxNeHozLC325xVXeiJe+HGbTLi70IAGFCLwEWxdypaP1AfYRUjhOo7fDs++IXvmRp+GlXXi1BvBOm40OP39InR1A5YhMDvHCdB7hgc5EdLPJOPHfjRse6hskQlufPDT1Oz3mrkAqw8NTg21g+dGMAo0qHDQtGxfeuYFml5fWlmYgv6U0/XKppXK8jjfwuKwVPZSdW5Qtj++zooQyjOrKHMGEfrOVv7rzXPfvT97i3fevB2GZVspUwhF3GutZoBwACzAAxAuDEPowKUCOgUvS2LmxkV9xyvwGiubD30b5+ZFBhCSjc2wlei4MNy4cOcb/0xLp6OskUyN5znJiMsaoaoxHg2OrtzYNA2zpsTpYEb+7n2lKWAGxBK7P70DavJUALANDxB4vgWGU4OXQYWDVbIzqXp2xx6JQOj0vUgoQsTCtUB5I3D6ZAOYRNP32RAQgsJ5rUK0ch2ZRgEjhCAGY4TQAwycVuyZ+1LV/5yldl4zpkLu6UDxhSFwvgetCk3F27dznWNSRkrcMyxT9554V9nnrmy8MqavupAIvU07xdxWGQ7KGfOlAJGqNS50f+VQYAABAsSURBVLPKeuVxGTZlu4JpMeoxmVjc2Fcx9oyxk5xrakGuJg3TkjpwUCyjJlB22rAbQAWX99M/+X139R0PuOu27jL3d7IAQri+o+oDtLyHIMs7EVD/wcA+pTlesLWfummLAdWXHvJooERt6rUCwp9BpJt+bVRDBhvWa09udGdvZChRcf3ERQ4SsJo4ADgGPgKtGpB1YDc2J+v/KDPMSozJ8u5rWOi2c/voO18/4ARYcQzjYtsMnp3LU5Y4dEuHWpDQjVXFxbklSxOOSDqRF6PATsTcKyYKYz8CmLBfMYGXgTlaoklaB7m6f/7z/9Z3vYDHnXd+0+xlACF2K+8xODc7a6pB2BbxtOt5zzvXxJDX9XqZ9lMeZSTd2X250Yjgj7psk96CJIelJAfWIm44cvnZhYcavQXpkHbegb91pdYAOpUUUYCRJAfvEcQxQfhkvU8coYeLVdwJ6+TJydJK39sTzeG5S6vl11jUGLTZGhnIijUOK4fOy+Qd+JmXOvcizd+GLSQH4CKuf7m8/lf1DO6wnrKfTt6B1dJZepmNJgwz4CcH20mL84xnUq8DIN98x20tsallZL2bG/e2LntH1RvEGs8UR6OQwI0yZr+lEq3Y3LF+TRZ2f/rqjkmKk31KYO4aGe0+kqoQPifymDQeIpZFGJAErrnWuY/flKJwnC3KZ6VIWCQZhgRgg3d842ttcSnjIxPZsSbZ9hMKfdKv4xI5X9hiuN1sWOevjy57RHaefmxEE5N3+lWpbVi/ekozWHWyy4T3bJEunW3v5fKFSWPDwtnCM5JQzkXcaOxaMtyE3dC03/lsU3LnWqkFWyQrooYkgT/WzNW/D+dktai3/IFfqruztzhfROUkgbnfEMuK52S1KRJ2dd8lS1t62rXJUkT3KIHf+b36nKy2RYSr7rdNVJwYhgRQBe4+67luy/Xva4tLGRmW2HPCWDrpLMV3xKRexxvLKxo/OZJkW5ueLgcUDN6JULCt3OedudnX1IXs/UESHoOwq3DtwIIxpWNMCDarrP7TG+uOHa3Y1kK12dmiYFajYVb+wekEVqRpi2S+gFbb+2TLkp9kq1NF3Agk0JFlvU+2q6SjwgjauGiq7MKydry0YFfDvBc6sqyCXQ2zKzrWlYZdUUBmhkUmOWOyaQiTylAaLkIHk3gdDS7u/oJgWmJXDWBVsKr8WVVSpri4J1iVdYnivCt7Vqbgu5RtkTebDEKWhfw80wrZVcGqRseqQtl3Y1f0X880qWBZiG98QkuWVbCr0XRQC5aF7erbP+PcSYk1ikfTwMVVa0uWVbCrsbkJYFeuJFf2ze29A31je2JYZF6Y1gx21TOJjORwbPObykdEyzV5G9YvPrfOrpIsgA4s4gYng+nfbfIY/EOR3RXzCL4xFIwpG2NqlF66vL/7O9VwVSp94i9yYw/f7n25RdwI2JZoUxqwoo96Zlhk3rb8HcLGvoqgmCLkJIHavKxi3lVOEu2jmGBeFh9p3PKSZlf2PkovsmaUwPUfdu79H1CmYt5VRskNNnmnScKtau6ZYVHYbW+535YXYf9wZC1cF2FSru0KLXh6IStq//LFg2MPkUii34KltZVzeeq39Kp6sjGt94vshpOEC1aVjhlxk+Ulq9domty6dSiFTgzvYNsvWNUIWJUkb6rApt7oHNE3Pbpv+TvrvqOd6yrODkECt6+acq+89vI+ufMQGroYqqh81b32hF93129cDBc7/td440dXuve+/xnj39BF0sKs7Aqx9MWwKIAvEieRclIYCe334XBo84I+H3HOfq2/hxEzDAUTasuEQjHZfp6yKj3P/d1z6u+EebEF3+aivGwM7GVPfELDW33BrEbDrLh/WYKJScJZQ/1pypozTn/DH1xlo+PGa06yJex7LKbIloME6MyT9QJBn1x5+tViWX13bw6tWsRFaPbH/hOucEs33l1Yekd4G9gApb6YWutK61//purq795uK6aPsEmLumpPcNotcNtJOH0zLL4KGX0ZUndE4sX+cGAtCG8SroObALCivdYfC9pN9EfhGSjh5MmgEHan8l7/zNKKF95dWtBHXcOuKJhRNmaEmMOQVX5lCR+wogzm+rBenR80iSuY1vBl0AtY0Ve5voLft+wP5DQYPppUUYRBS4CH79QDf9Tcl9f/uz6+M+jai/KbJKD+uOEHfxG9OMQnq3uaFLVN2YqI/CXAR36XxGAVlr5hw3nVbguthumL/XwkwFjVK1jRglyHs1MOvKuEHWUSGElS/JPaZuRdYU5cq6A3fPuefCcWEOYr0nVmTGlkxfua2G2kdahnKK12pfgL6fVI7WVlC2HmIm9n+dEVhzafGYqstr95821NtndOFmxrcDLo1W5V6zTtNL+Vh2d72Md+8lzZs8qF/aQH6WXMwhOpHsTxpWPOD4ppdU7RMXtxMqUE6A++av2aZzRJm+fiZS/4WmHPSinKfpPRFawg51WBrcq74tXXVLdu+URhe28lnJzjTAWrTtn8jdYfZkxbXa4Mi0p5szz+phtNRzyprCUpvHG9Dt4JuoKVLuaKz3w28hwsGFT/DCp5c4QyrYjptgArsvBcYM8qK0nBjAYrA8AKu2EnsKJP+Aw7nmq8+SdDwbTyY1reXtgvWNFHTW+CyY7r9fjelb9fLc9PFW8vvQqwS75Den08Y/aPU/cf3lFbXvgG9XjqLF1aUJxukIB08+51z+oqXJjWFVdf56p6VeyauKGC4iCNBFC7TiNbqWDTpKc/rv303bZ0U7mc+/t7miYc1mkiZiW7VYevCGcRwMB66LR9f6obpuKwsRDGlaV4YU1S++TjlAmsuEZbCdk8B01ZMlim4YUaso/DOa6SDqwQAUzrxr+4ytRV9ETBtvKTQVaw8v3x5kvPFLpFnoMFs8qZWeFkkRNY0V+p3kJI2GvYuuxtei7LBdPqVYDJfML/Uw52sVkl84TH/yx71pS6pGBaoVR630/JrFpVsLBLbx4F02olmsxxgD9v32mZVasKNpx9nnpTXVIwrVbiyRSXN7PylQ+MYfkKTj3wJyW82Lwec5KYjL+GcWkzbxd9gRUX9EvPLK3//D9FNi2OFwsL4loJeV0vI+SCDFIp1IBWb4sfbCwlvYBQVMG0epeBdYVsVv2AFd2DjaWkERGbVsG0emdajPX8y5NZ+cdn4AzLV7T/82dWH7zsisJ70Asky1ZPJITITwzOkrVdWnT3V57x2+1OF/GdJMAIyR/TBnII1Z0yoeh7WbkUlkN7JqkIuqGbN2CW6+G5eOfWtW7NXV8vtEJZBBen9cSkn7lWnaodOMPyleMh9fW33l9/s9eJcWEutHFs28ITmTNYcb3YUm64573s1kNe7MOXeDiWR3/gup4TWCGq0pGudPD2Mw0DOS7YVjoZ2KMhhtrNGxCZpg08F9h78R70g2/BttKxLfO2VKcMCqzow5G81N23VCu8Dw0q096q45eOBwZ1auTAMsD2ffBbus10K4zkbhjgdeVdNPYqHFekVs27aF/evOxaDMTh50j8uWJbl8CBQ+qCO9c7XoTrsfnvbTjnPLqjYFtdRMtYBcin+cx9l6I6nh4JbHg7TOFBWO+bJMPjBmC5pYGDFU3ADsNjb0OltocjM+I6Cb1emzwBWW5pkGBF86Zl18Itm1GyYFrNMkAujz2mrzcfVbV5bchskMGzhcKuFUk5yTYZp6p6NpDToMGKFgz07aTbjVTYtZolBIhP6R/LXDWfHWwMM/9vvOTFI74rBnuNmUtnhOQvRxVgmjYUdq1mKdENTAieOWp445bZeqUm3LDhXI3Meq8rvGtrHQOIIw8P6rUTA9wZCcPy1wOdf7JYBJNgvQI/yTRIu1jiKjCc6cpIwAo5M/PfvU7qLrzfGB0IvTKSwyGvjZC6kCGDFaLDrjWlya+V+YJtMb+KrsDON0ywoh+wabHdvPlrJQZm2ASsIsk0SLOY4pDBnqduHCpYIeOhv8VTaavAyhhuvuym8CtdZIHOL8moNwpW1U7UtjLGz76x3enDO54XB71NjwKoWgm2IrvWAdnOli3xbxGtUh2ecfbOELMqz3ZGfaWLmW2NglWF/T026ICt5rQD0VJDDOCLglUxLupa3/qKlWMFVtwgpo9+bexcwAC+GJgWo6PeoK/4zOfGBqzoi7LsWthseLtcLHYtuoLrhWV6VuXZjqJHGmpsS8+FecYlWnM4Mi3GKdjlHVq1YpgqwIRox4dhJRuGJ+GCZlUetoyLG0CqUCZWJ699LI+vu5MlADSKTEZzM8uQEVKa0EE7VWRuVyIDdt+Zs/UF4+kxUo8k2tjPId1AYJFg1KLR0fj+wvqu/dct1hmHo30LoLKg7xwC1KPuibFhWElB4En4e69YpTu2WluPMEwzqQwMp4pqdUGM6o9KEwNWEvwNP3xf5E1o9i0/rAQ9MqkMzF8KtrsBuqsHkuprF7vv9Lpo3pa3b4UFTioDoxv4Y+UPWNUkgBVyh/WxQobN24rtW8T7MKlsyxgVYAVQyXY3DmCFTEeOmL5ju23vWf726vSkeumo341PDWNOVTdB5nXe5m6psElkXDYyqu1yaJgEkGrVZd6eA+NavvFu3JYm52EOLoiuYH1sW95yAhhV0PSmXfrkY/ec5bbe8wlTn03imoSeUQ1jTlWTAFNEjC3DSradT2n4z8Db/C3udIVxZlp0/mx1zh170/+2OVWb37w9avTh8MvcrXAdvbg/xtrWxRuj/uz7YLLP3bA1sdLHBPWLt+fAuFhDD1YyL+cE71E37kyLib+8Lf/LtVfZ3LNJYVSdbhH6BE9bvmaMrcezFLbjzrSsrXJTP3X95UObU9VJlu3OTQzD8hfg3yzZnveek81pwd4tx+RK6PgoTJB9ygu3j631y+lXq4S4I8akPwAo0zVV1KAJUPn12gX+uSC/Z12zAoWl8iwch64ASDGB2hvyhNineu2LZD48btd89/aaNmJcbF02VjFclcfDPpWUW6vjcbiXW7Urc9x9y98p+aN446HQZcVXBgNbV1rRUF6ecdQpq5Sbljv+/NT84JdRariSMT74kD5jIp2+rbtHp/g7DVvXqrWNDc8zDoDau9u5I1a59f/vuoEvFdN4IeN5NPeYvhfJIyFHDQJdAQM7+ig7rP3kHveoc+vWRctMzWoOlV9GKQTXWuWLaMcv9+QvGQCDgU1PL/FRts07zrukM0ruOWtj7dmYpP7ww0iDoA6HAwAMh415DWAoH7jQvt5sNA7S0VE5SEg3WQFQ6W8VAAww8TavcD99KfWUgKD6w4ZfysIQUtWS54cxi6pffLY9BiRyeDUiALZEYyN2Lx/6GQh8V/B+wrJSFhYZi/Jy7GVrAIYQ407gJbgf+xf5a0G7VTlOhABVOzeBO/3cpxN4uc5FQBY1fU6P7Iy/S+KrebSy3x1dhpHVRVMA0wC7GiDzIDYvL4h2H88L4td/7h9qb4cDbNmiKxog8xe9BDZWfwQaGNkh2cp8mL+zzpx8XLHNRwJ8ULLWB/RF+IYRVhH007g6S4TNLfYLCRQSKCRQSKCQwGEvgf8PzPo15oqEOnUAAAAASUVORK5CYII=;" parent="132" vertex="1">
                    <mxGeometry x="79" y="165" width="71.34" height="20.5" as="geometry"/>
                </mxCell>
                <mxCell id="150" value="" style="edgeStyle=orthogonalEdgeStyle;rounded=1;html=1;fontColor=#F58536;startArrow=none;startFill=0;endArrow=openThin;endFill=0;strokeColor=#666666;endSize=4;" parent="132" edge="1">
                    <mxGeometry relative="1" as="geometry">
                        <mxPoint x="230" y="-31" as="sourcePoint"/>
                        <mxPoint x="116" y="99" as="targetPoint"/>
                        <Array as="points">
                            <mxPoint x="116" y="-31"/>
                        </Array>
                    </mxGeometry>
                </mxCell>
                <mxCell id="153" value="" style="edgeStyle=elbowEdgeStyle;elbow=vertical;endArrow=classicThin;html=1;rounded=1;fontColor=#F58536;strokeColor=#666666;endFill=1;entryX=0.5;entryY=0;entryDx=0;entryDy=0;endSize=4;startSize=4;" parent="132" edge="1">
                    <mxGeometry width="50" height="50" relative="1" as="geometry">
                        <mxPoint x="227" y="-115" as="sourcePoint"/>
                        <mxPoint x="377" y="50" as="targetPoint"/>
                        <Array as="points">
                            <mxPoint x="287" y="-30"/>
                        </Array>
                    </mxGeometry>
                </mxCell>
                <mxCell id="221" value="" style="edgeStyle=none;jumpSize=6;html=1;startArrow=openThin;startFill=0;endArrow=openThin;endFill=0;startSize=4;endSize=4;strokeColor=#666666;entryX=0.5;entryY=0;entryDx=0;entryDy=0;entryPerimeter=0;" parent="1" target="127" edge="1">
                    <mxGeometry relative="1" as="geometry">
                        <mxPoint x="318" y="560" as="sourcePoint"/>
                    </mxGeometry>
                </mxCell>
                <mxCell id="37" value="" style="shape=image;verticalLabelPosition=bottom;labelBackgroundColor=#ffffff;verticalAlign=top;aspect=fixed;imageAspect=0;image=data:image/png,iVBORw0KGgoAAAANSUhEUgAAAMkAAABLCAYAAADavqPWAAAABGdBTUEAALGPC/xhBQAAACBjSFJNAAB6JgAAgIQAAPoAAACA6AAAdTAAAOpgAAA6mAAAF3CculE8AAAACXBIWXMAAAsTAAALEwEAmpwYAAABWWlUWHRYTUw6Y29tLmFkb2JlLnhtcAAAAAAAPHg6eG1wbWV0YSB4bWxuczp4PSJhZG9iZTpuczptZXRhLyIgeDp4bXB0az0iWE1QIENvcmUgNS40LjAiPgogICA8cmRmOlJERiB4bWxuczpyZGY9Imh0dHA6Ly93d3cudzMub3JnLzE5OTkvMDIvMjItcmRmLXN5bnRheC1ucyMiPgogICAgICA8cmRmOkRlc2NyaXB0aW9uIHJkZjphYm91dD0iIgogICAgICAgICAgICB4bWxuczp0aWZmPSJodHRwOi8vbnMuYWRvYmUuY29tL3RpZmYvMS4wLyI+CiAgICAgICAgIDx0aWZmOk9yaWVudGF0aW9uPjE8L3RpZmY6T3JpZW50YXRpb24+CiAgICAgIDwvcmRmOkRlc2NyaXB0aW9uPgogICA8L3JkZjpSREY+CjwveDp4bXBtZXRhPgpMwidZAAAnI0lEQVR4Ae2dC5xdVXno1zzzfgDhJVFLIq8gIkRCSqjJyA1aBYSrpFqf9UF71UarYn+gvTnhUu69QsvLqrWi10d9JFe4VUSqyAQjKQ8BQROgtbSRR5BAMORBmMnM3P9/7b1Pzpk558ycMzNnZuL5frPPWns9v/Wt77XWXntPCA1oUKBBgYoUaKqYu59k9oXQvI7L4SwLgdsIvQw+i6dJjaBBgd9BCiAFZRVBpbzfQVI1hlyGAq1l0veLZIVAa/GzEDoY0GKumaTNIJzVEsL/JG/TmhBaVoTQs18MuDGIUaHAfi0k94Tg+Lq5XjM3hE9tI4KQhAO5Hg/hMYKLjkdICIclJDlcuaVcW2n+/BAabhwEbcAEoQAWpE1U7wzh6Hth4Ae57uf6FRd5j2b5uXS9UsuwtFaF9WxrYwjtw2mzsL1GfOwpMG4tCczXjCVoWRjCXl2mWkh1IxYiZeJHaOtvdoVwMO1s/S3WhTb3kDeH+y3vgqkXYAGwKuF5+qLP3tWEOUKSyoKuGu300PZrKHhUVwg3LAnhqVwIRCPS0d0r20Ajo0GBWiiQQzgyDZ/VTxk9uy0bWlfG7cTNMixbsIoM+o7tGXI1cyEXCWR4IiSXPolMEP6GtBvuCuG//lsIkyxVWD6t1ggmGAXGnSXJob29NoRwRHsI790bwlVw5XMyfakFtowLc2pxXAsUrS1SJj6c9JcyLy/yovwhhH2ErUjRXixAt3vDhM9T7lFCly6PEn/yVSE83b9N8kJnstYJB9Evt920NfM5IoQHTgnh3GlcT4ewkqRr1yVlGEYDJioFxo2QwGDRNVEDbw/hLyDoJw4P4YAtIUwmfvH5BRpcYlO+eRPMChPr2sDbIWzEbdoVwokw/au5PZ3r5VxHMMgpCFx8UEL5smAjcvOepMSzCNljlP9X+rqfNn9G3i8XIUAdSTFLZcy/s5sbEG0VmdSERYGd0Q9vKzVgYlGgEs/UbSQ5+Jer9yG2Z3eGsIHdp5ezbpDzZbRmOPE09m/v6IQJbyP5LPgQLS9fRrg7hCVE3sxg/hAGPQbGjFLzAqGFaEfLEXedCPf5S8SFfmkalma1h6t+LxNk/t0h7KSPByi/nttbwesO8NKIBHA4hrw/JnoeC50TsCTvB8cvImhthbhatgETiwLM6/gAGK8ZZHphqs9ND+HPdoaAUQjtL4LJsCYbcKeWdCIkHan2vi+E2UjQOyjzbgTjZOpERmbhLXTRnpYpMjz3VY9TXBQuQ+rTXGhBcFo0a1oKrQ1C+BjBj8m8/pQQvks8AgJzDmV/fVIIP8+BA5dtNGCCUqBq5hmtccJoUUhsH0F58OAQjn2GOILwTZjyf5+My2Mei+LDuP8Q5S+YyW6VlkLB4N4dK6UhLrCJjjREa4TUZTtmrbhwTa7ONXdYmacIvsP1RSzHvYQRGEvbIwjJiqRYltwIJxAFxo2QSDMZStcETbwcxK7g+gQW5J/N28iiGGFwrbJyNgtlLI2ulNvDCoa7TlqNugF99tInf4m3hlvWMo0bhEUL8y8g8wUy1zAek+LYbkRQcg2rIjkmFMhj4w5grogXPzKhDLaSyMUHhHCowsFaoIu8VtLqKhiDEEqXyoV8W7ZY3xHCf3J/HdfnEZanCR1Q61qChmWRGhMDxp2QYDHaj0+WFy6GlyEFV0wPYSHa2TWHa40W0nSpxh1ITPASNb3AZlyxVt0xVvbPEvw9UnT1IraWicedOIRlb65hWSTHuIbxJCRNCEibAqKg4Fpdjguz0t2lXYmGdiHumnmigMLi+sUdslYEPbBjt537K1nUX82i3g28vItpvAHjkwLjQkhgHJk/btFiPZaA1JdwrY5G/bpY7uEevhoXIM9XgpL0JNH1y14G0e72NOPSmlyGC3atjfmg9HxCyrkH0IBxRoGSk1pPHLUaWg/7REA+ida9VOvBFusLMJbPAMcEx5SxXWd4CU3g4w5cxMefAolRmN0uNsnLbNdLXoXlFYIeBtXuVjJu2C9p/EJcsJu5bbhgEmEcQpzAscIrExAW5rNA5JuzeBgYfZDEp1dW6grgoMbPtHmb6wmlVE4XzMikIJOEjICaQuOmu3pX6gmjUBA1y9MBCpqw13Bqkub21//l9mNYll+b2Ul6R9KMtw0YYwo4eXUHGKTpHhgBpuhGQE7m/p/Y1p27PREOXau64UVHCka0FjB6K4wbhWInIRz+BMG/c/0r1+NcnunawdVDBRndTYRWyk2l7ku4P4wyRxIeSfhi2pqioLmKxzLanvIjRAtjv7QVUA4tjJ2lV7gYmlxjAejSxvZ3zSegbaMBI0MB52hEgAlvWsvkD7a1SbnIIDIagrKC+2/hejTpXoGIPFUXoF/XOjJpm4IhIRAMF9YbQPCH3K4n/iuYFv6tHnia+CKE4kSEZzHhMtpfOD2EabakwCA4Wf/u1MX1injggq3Hel3wihAeIr1pHQLUsU+4KNGAelNA3hg2OJk0RFDZVaCAAhJ9dzTlx+GYy31ajlbWO9GzqQdoNSJTyrEwpfe38vMtmPnGxRx374/EGhj1YMaYPf/I8nkOIgPvQdjfRv0zoMFGwkcxhQ8jWRvJyyxH+DkHLRGMMyDAudDhNbQ1S4JpsQCNjdAETq2kKUAfRUCjVcnc0qRI47feFGAuhgcyPo3IaPrS02GMnaTpf+cZxDzS4gtKxhGQq3AxPgwjZQcPdelHG0Ah7KUjH/a5//ocCV8F8S+emh55EQEY/hXgPvvkEH6icGwCx1WpYJtfCLpEMHI3db46l3NkT6eZSjtj+wh5V2/A5cIsvZBLaWQR6h1O8Eaut7HwOl0LgsBJRIWlD0Fq58iNu2A3Y2XffULynkrD/YImYwFq9poBJmtei/azARjlr2fgu8MAxyogMlDWcGciNCjqWO66AxIBif42ZeshIFFTw3htSO4OmO8ytP2CU0L4cwXkAY7k3827K4zhB+BzP8z6JcbWpOu4gJA0bgcCjJ2lz9YUZpeLqvRWH7I7B/9TML7WS+gJ5i1cPoX/A+qcjkB9hfQuFEcbxGgn/gJCvIf711F/E7R8A2U9m9bXCS1j642fulGgZiFhImWeeHCPSbwEN+FiXjhSQ94Dwy1zUikT3xTsSK0KTPhNFujvgUk9VlKv81ZdaOM2tHsTrtV1xI9COD75ShbiujFSGgn6yiFYFG5eh4CoyeczpqXmzQNPw1JwW2odkP6b8dHWIoA/IP7AM4yXsTPM+GkWhkrnlD0+GXdPJ4yOlYp9g8vt0OrdcP6xCN011N+FME+i08nguwNNcyCW5kbwucx2Omg7w9v7Bow+BeIE1tJNDubh8mj7RUzqZUwo/JX4+nIVjPeehSF8GWaJmphy38aCrFBAyNbK1Nw3dQcFmRKEeumzlT4fAY8LFnGs3Yrg0nYjVuKsRKt7oPKTCPmluzhQDENOoY5bWX8NA39KhpYxy3WYja8w/3526rbhdlLvt6Xys7I5aLgKOqzjyvq4l7coqXMh15/Oou/tCb2awKmNNm9hXG9GqLYrKApd1lYjHD0KQPPqQSbTUsBcyw9mJ2grTdCQLo2HDnthuBYW5BcgJP9g65T/CpP8zlRAogY1fbQAHFz4tiC8+vpfI3z/Ubgw4g1OcVfJvikX11N38nQfV/FhOQ5puIngH5HiW07k+DtlyrpbtiF0Mm7qNxW2bfpQ6lpOwLLodvqKcmR8BO0YcLmE7T6S4o7Yrunsju1Efmn3bAT4vnQ8jW1iCTSKUJOQFEy+zzt0sy51WxPNvQeGnAxjfgiG+TvxRpA+g4B8EB+7LhYE3Ny5atVxx5+Pi2fxqKR5qdNyH7ttMOV6rM0Gy6cgfcgeOuQQvKVct0EO4lrXqqAT3K3QkVov6PdfQOJvsSonbE/HBp7i9EcoqrUK1/ncU6bqvqpC7He4MLStDZilvIZFUN7O/VcPJQ3f/Aom70JbRdP9FQJyCRYkWhmSau5viFh2YwFcnPfi258Lw39PpluWMBFJg0MuZfJltDGWjNcf77twa3FjV6OQ2rDSfYRNhBdB6//lqBQWTM6Qxmj5BgydAsNiWgVlE5N2PFYCQTmL+7diQd5Oo31owPfgglyHe6CGs59h9TWEIUULgoC4aF5+SgjrrCOO4jNY/U6EaSvlxhuj6VIhCCoZn7Uczfg+D107oGt8MonV/gxj/XPzGWR+O977BowMBUaEcWWwjtQ9EK172Rmi4XVKB1dcH4wMuqVbgTl6cOhbUmk8A0G9VeYi/a3/wfpCxic+JGEp3cPYpuZgflyqVpWRmDC2DxNcwXrFV4hdd91wEB+hOBJ3dyKP07GNRyi7vVkNsgrITemRErTdETDr9TrWTJh7+6P6HIT2dYua2dq1Py3ZrSnuVxzBhsH85GMRQYtXzZjGU9kcY1RAGJ8bI01YlqsJT2Id+DOFBDiB3cU5RtZCC8MGjBwFRoSgOSbm9XGdHP2CG3AHDmTR7LOQUWdMmKWHRW3T7hBW4XZ8S9KgaVeTtvJJ4uRfyU7RXJmsEyYzf6IC9MTbSjYhGOsvt/Ig8hk2JxCWk0/kyy2NdcnozCx0Hz7IfB1MIMz52dkh/Ld0JytVcsNvv1QLIo4AdCOQbbgbN6Fd32C5u3mOAA5r3QkyHzdkyrYQ/h/553GvUsje+7D4hAXdScYU1yoOoiEgozeVw9asG9OHWvewJTktERC1XV0siDtZCMizhH+SkYj4AwjIdqRhFm6fDxLdMfiS+WuJsj4heR/IXPvuhhdj3VC3rVgFRKGH7n7i1XVfY2dreNNXtrYKuWZgkuKhxTtwZ5C2B2HQ6ag2hWTYwjcIUnQderAinph9B0zydTUrAtPXQf9Yk3fgbn1VNYsb9k5ck691ptZukHZHJFtcHkEYERrXS+JaM1BZ69e8jp/baG9VQXtOXqXGqdMCjbKHnBatVJzsBChk0xWh1LiGWM92h4RHRQRKZOag09KEXgNoVaL4oEnZGAclRqWWRIqrF6b8IUy5nMWj6xAP6I02ZG7Wj9CoZxZODtYivtOChr0FJP4dAfrT/q4J6Y7b/1HShlk5bCSQhZObaKtrUfo1FNtM8VKRxLVENf1o4RAyER0RC5FLGaijBlyqwXssykJnlUjzaI2tZo2/MXWzYLQP8JRdAVFx10NAlMG2XfwQ+RSBJ5DjW47GSTNfrvyjQ5K3/QKCUsSknTCgBKXgPJgbQxh4Nhe3V9Xa8GXSBqHgfSWI/VGgicoe1XmECreSuIbwLtLtRzrrEmVlK7VX9Pou7c2j3tlcixHCFxGy81u6HfKyDKOO+XGuO8Hr5pM5TUzcs3ZFaxnSQg4G4/KEQPPZbJmTdBx97aYR6ZEHkHcbXTdvDl7DqldyHu8m8Hk9mzbMwWsp+Ldcnlcb4MKSplWdSv4jKNS3HkUd0ob9XKcT2tKuY+29j1ccwPsNxF9D29JtMmERkDYALGO6IZd4yg+/5vpjlPDumoSEhkSsi+chLwWpy2VYYABhkuSR/aXvHoSyFdfqm6fAhJ3E9c+zXsArHksnfMY0yg94PjIjoYkc0Az+M9hhaKEBT94OC+gz0NZJcPFJ0ORjMOSPSPvvXAqiuAzKFI6ng0nfwETRzuXUuQCm8plPNCmGQwFxcUIIV7BG+xuY+Lvc/hUKww9+O9T8BsYqbnJchpRbfFAIv+ec9qeHbUroOVy/4fVkgsAmSSwGHQ/lCPiCZ0krxQiaw2lcTMphW/c1bZM1Q2dKKxtAmXyCPj4Gbxxio0oN46waMjy38To2u4ZxKFULCR2LAzSJP1cygVOZBB9ywR+jD3Te6gSCwKfL9UYZBUU8/RlAKxglpvEjo+yFML5C63vr/fmiXBdl03fTN8dFpLUvdy2H0MsRlksQ5FUpXmUFpTOddMr7ysGPD0SjM1m+wCV9HY9XNeA4HaMvcZ2DtT8HZvoQ939Hhq8qDKAPec9RTmGwzyJ6UF6F00X+FOLs8kdEbUZuMt1Ehhwtp8l5oF4PRJlk+1ni2ixSQ0in0YLcGcJB9P1PB/ApKvmCxpVjcSrCvYouIp6U306bcWxVCwmaJmrueyE4Nuk8tnt1I7C+dYG4FoEQ31vEKQ1GUNbfB6c4wFJYMQay8+DEm5AG+fSaIjQiTgpdH9ZORpp0INYExv89BOVd5EUBJizCL8ekdiCwnfHfnIRbUD7HoXWRt+heDUsB0VGvgkafk8HlMwhKO/Er6cv5L3JFKes/N5LTzCtiNG+yfOoX5algotpN6g3gK+o1pZ2lxWisRqAtFc1ezPNMGrsda3YMFszTBgrOcHmxSQQhSn4MRQMdDGcHqmtD6BGQT3MJ3EYGizej+GM/zapo4PP+rKtPv3ZVFYgowHxFBu/FGnThwrwTQbncjHXQz7AQlqZMh/W5Bg22AOWjRtY3rmqOCtssiNuG/nm37tBk1g4oisUd8AJpLasLChJN0c+H+dwswwQaLLzNlykXsXBVFco1RHqGL9LwdWh1DLRSmUyG4HnGrlC9YlYpHKuaAFZ+UUqZ7I+h6Y4BM/+V2rARq4j1vsy9cEwL7szDEONHJi8bObrv62XkY9K4DavQC/4fR4sv74A5oWFe4xk3jbyTKPx+GZkxukAfUaBN++zyB2a4zMZXE11lZIKAtMpBS2j1pulsaEAr3SuVyaiBEzgk6EQYjofAmLhDIfZF+n+AbkXdQJ8DhK/XmtkpePQUMtsoIuIHKzRi8crihmk8NaplMdCl2yuxuS6xlGPIJVaiCbeMZuJ43sfEC46PKqWBDPHRTXLdUHSl+JSsGDvB1dqZ5Hbcz38Uy8FwKL96KbqSeA01EfybbkzmQOJ8IPUqytJpqO0WlivVmPMWjzR0DkIo3IBYH2pehBWZzQw5kbF+YSejFHdbrs3JhTDftw+E4wSuqTLbxtHdNHDh24T2jf/pivG3ZHFDBNc1iIvgdM7KUsANhz7qLGZfeKml+LFeUwcMn47hDDnetLKtJAKiVfIj3O39L/GhbtE6o39btN9DPQudZh7rlQHuX/864+F+HXjmEGro92LGcErcOSjPg86H5JRPixTJYPdRAyf1KAqh6cxFUJxg4+u4loFIYDJIJyl5PVVmhCnnc+u/ahPqJSAi0YcfrZP+MH3jTke4it85P+WQHxZuxxoIuGJwRk2rVhX4adJuCLcHehQyr7TxXtrNmEr/6a5WSYajsPTqolw7M3Y28du4hNgmbuSRRI50gghjWswt/vEjFf53Lfv6NYUec6JsWBpxr9AdRx+zaS/LKm6BO8pZ1jpHmXlwUtbouIatKc8x3pehbGakzOxQioCEXpWFcyIRBhQoKl1842RSzy3uQ5jIWNXdAP27l5tH/C5C25WAUcuZ730KH2cnYRILJSVT76cuAA5qYIXkXzoIQPIw8DuRxfBBLIofRGrevJBnEWsgyggLSrab9l0syPvocxZ4uMUbQYaFEL7LMg3cvgxxT4M51eIULwlNqYo/1dxl1F0HzsaBOVRqT/MZ8gCITO8P/X8QF+0L0CItvq/sA3weCRy+BC7nDoKLc8zOcJxMouMfUIYRIM5sCczg81v9aZaBAtKMlenkuoGyM7jc3o+gQukPkbAkGkKIPhSx7LYNgYnGKpvMz0CtpTDbzWRezyR8n4afIB46mfAO8CHvZTTwPkyzkNVL7kb5l36blHAGuN6u4KrfR5sqILtxO44A39vB7+UIyoOUVfAHME+NKKq5VSc7Tkr+nwj6oTTcmzDlJqg7R8GhTsb8+Qrg1pxqv5ewHphGmV1YZ4L4E7ei84UHRjyr1oxwfB+r/lmzpQuVCRJQSbyCA5+0+XEE5I3k6SlkPJAVi6GdlmKYokLj7AaXNAK4l0Xd8eJ1RCGBTteOxBBa72QNCccvhfhhOt+dYmZfR0e/hel+TLiajn5hR8Q/ylokfuIGJOtx/CQbn4zqrtZeOJ/5j7A4tSxtaHBx2wknoADi9mosMJI/tB+VguFauju/gDHt51donqNC2Apy30BoVyIIMuYAIYFuUdjJm42KgufjR7IJhgYyNji4+SUhJIEbBwOAzrug2Q4QmAku0bUaUGgCJ6gwy4E0kvjQRfqGnyZuWaqbTNkHcymGQutDyUYyIgMxXEaRdVwdqbL1wdGfTSOBB3TdcJn+dx/majZpb8JqXE2Wj/znEbxLQQLiEYkkWpdf8WmCqTbDqQ/aIzi+VkIA3bgVLug3LuIbvKRLo0o0jJVq+InEo54ne/NrtawdNFzMhzEfSPHSVU1MRFYovU8b8rXbAUJUULRSNArswmScRbhgSSKAh3Sotf20lfEbVBqY9GX8Xrscwenx7WZjlaETBbiVeVxRgn8k+JvQ0lLVvm2/iwn0W7m+qLSeqInvRSw9fuI3nuIkmV4n8J/eNCPxm2CMTCN8GatyFQhPlSnBaZO4YP2KznHVCb/CbnzQGgGcjBLsgyyPsAf8U3nalz/EWGxmLW33t2iF92n/Q2xyYhQ7PkUTwkULCiGK6Gs2CU0pkxwLPyyGdw+0fOEIoX1kYhL3kP8YfPUI9UyOFhq+z/gsVmtlLTIbK4LFiQ+vnIBMUL9iCdyxg0j8E90aYABSSfKo/vaJEDj80l7Q2n658GrWAH7B/Rscszj48dQlfGRs8Aub037B8cUp8aRjKVrFsTA5O5mRqOkcUzVQqtFq6k/kssx9BGjwTOTohMbSuhB0zfvQ5G9Bub6lf2ZhQfjHlblf+nkQ9/V6BOZzJ+M2u7ZD4fjYIVb3FKzOmydO3QrucnuR2dt0ULKIV2LOR5AOR5NrRWin7uB7Gqrdf7Nn/Uf9cQZzC4Q6AQF5iGQsZfQJK9HEIrUCQ4+WShmI3zeWkHTWLC6vT3dBuD/PyauARG9qhrcsTg/67ahY3F4bkFHg4NT6QsOHUfXbUlqWIre7iH0ISw/84m5kyQsBcb3bPpWdUnZtV9PQwwjM21YklselR5x33+zD2oS3cp3HSnD+HCIw3teOxBTlEqF4t0wKGKR4xft6/EiAFgRUYd1shyCrhPfchOWD0X7DLtGr0MyMM+bJoyMKUokLeiZPyUs0HsmDsPjR8IXQs+TOVlovbmUzqKgUFbQS7Q2WJE30L4vWI6at9gcAoWixkrv957cDRc3gfXj7FPT+CbtY50pvRlhKebvzl0+PRKMgaZkSi1Fo1aswcTk3B7Dx8vW7kAMyL0nnp0cfHs8l3NvJk3Qm+Q8RkDcxc98hzSdeS5CKU0HEPmij7qCkN+PqKRhb0t7jeF8P44Jz64mJ27KLxKLt0BHCNB7Lp61lTMoXwaFdiSCMOPDjJHi6di4W+EwssHmmERRDrECeIQU6zUUzDihXXKv4zrpcUbCWgguSpoY0OQJWyTz9bHcfq2o7bWLcB+vScTEPV6IRzwVh6S0NBoy3FA3yxKJCWsd6tuFCZC9XMy78aizKoyjkL+sp+C8AWuaRgbCQH77nRUOxEuE7p5LAgt081/N1BfqPGhGC7ACBbXa+ugCDjkSzROLw02/8BQVrjzYzET6cmg8d5hd2YKfeG6rKYNBUfgZOFtkmxi9MPseeCAV/YBo+Yl81guKk0A5yEbcn0R0DwHnyoetTaFnx2e+gY581+QkMfO0cvl75dGLpVeKRb4cxaD2lvRgFldk1G3gtHbl4vHVFMsc9OTIWoJkRGM1493pMDxXOTbWjD6XqDuARH+bR93MwKxYxvj3XlyvAxDIFtyMepXF31nrhPneu6K4kmF7O0oqf+Z6X8ust/2cR78F3Eu9gQgxLtjgw0QdkwnF386ELuEH91VcoCaTZjx+xO4Qws3qm7W8Qhw0Dr4QWL0FQ3ogGNc1XgqVntLY1DroVXutijTKduVpJG3+Zn6Bc0knXTekRbWbgDVxzkKpKPnaNeAy5mrsUzvwzpw9xv3vILVdXUM2CR1U9gLsLQP+RkMd5tnCfs5Vl1Qt3CxZCv/lU/OZTbaMcyC3MW1ybECA7+xdAw741CMIKePMUFDkW5Sqs/YelsUodyw6fD2pJaaasYvO5nHx3DnP3ybyQkKZKtmI02cTf4g0X0QbUSAGPtHcjXR5qlJDnM6nbmdQ26BrpXGW77tr04rL5nMDpifNj3HnKwiQ5atRYpso+JkRxBYTxuiPbi0X5CBZlLTS+EOTPxGJPKWLsEiOibnyPmNBofzq1pFb7ZczV/KK21iGdHUjhL9jvp9CrU6e3fwMluhy9pLTzFOfR62ckW4bqWl8VettMBIQ1HUuWcA4CcrsCwqTWIiARRdrWMsgcecjiWZjP2M8j0jgHLZZySVuGe/u9fJxkNxuR0GkeF8YlKpD4qMPykoTQXbIZXB/GL5tCItEiQdH696LcWpmoQ4uEZEZaEOE4k/gMZtbJHktz7frIEaTy6hDHPcT/9AWBW/Bp+9D638FF+sgrWQAOV0DG/cjHAMFcwvjxU0k3wq8nJ48KNg+GCjzl1y/fD3P7UYtohQvrkBalBtetPS8kJMqP+nJGzlYyCN24Gc4iyOaGDSke+XY6kXB3hs6HQOQ5nnEB4NILsZrRZLezBfVdaHgrk4ZsRCQ9nVyzBRkXAxwhJKalinceYQ7SrBpCu6spQ9loCSwuv5IGSRNQQGxnKbyhsmfdls/Lyhg+RZ8dKF0E5FBuZfPYlmEpYD7jujjL069VIueQsCRV3bGRrMBYhBBDYF2WDAYcTYrCbJraeWEiLAr0aIHCaMcV6aHZFlEkwQ9mfFpkNqCpfp9dF+rncTb9dxGkIdD3inSnEhpFpZGLydX9pHyQskdSN20nL0iVWkSIdqDMiuqXK5+3JOsSBpAZFo+DXa0MX31DgTFF1dCHBriU6Gwk4nOLeHKdEZpyo/Ew0W7dUcreA3ECygoKtHMHai/bh6chvL/AXf2D03guoiBTb0iTZ4f7IyggKQHaoMfRP2cDDgmZhKauqNx8KASTugZ7nvl+MqPNQywHWKhH/qVM8/SU4Y1nZQydO9K0LJGV6Mx1xgvMjWsNdy0rAuXjp5CKClFpuTMKUiI/5q5WilxLJ4PrgAHBb+5LOba/mSP+EPsO8tfi/18PvvGoPCFFRgx8mOmpUroLRxBvhSiDCUorW73ds5K3PW/5D05rH4l5V1AygR4mdo5vKGMsYpZh9jkS1ePxIuZnLo3dF00IEZksA/KKBuY9c+vXXWZhhm/hdnlWFib/NvlLuN/pvChMgHRx3FaNgCA1K0lZf0TjPZNouRlp//nysVLyE88MUnffZ0479rkDr063ksYFkVNuaDkkGZSjf5z1iNCHxVuCf7vkaU4pU+4k8vpylOMaKa3d7e4UTP89+luPNvr2zgSPwQSljQV7F3UXgtv6TiwKArJnDW2tIJ22agUfrvpRilKTmm9Tmg2nk3xDoxABNz9iN8UBiKeQDSa7T1KTdIRjMnPsqQ+mex9Q53Ceds9EWGZWYtT+bWYtmE7b5cC1pUL9PML1RDRXTF58MIO2m0+tBel6hHJjDtk74QcjuCjnsJXB+f9IBE957kGD+NG1ebhhh5G2Zek+Jo6FhvujNND+ATD5GuhzKIvCaxAU0yoKCkXaEZQ9IP0qJnTdRrbUj4d3aaNWixIFhE53Mj9P0GY53gC1eEL5pRTwpLL3GR8SHXPoS63xUBBpAvkumHUy4y4wBnFQz++iBRhdnV6WV6lfduxklKvn9q+n4R9iPfmfGaFjYSq9Cqn1OINWqGzjQxndCJWJJo+21CJRk4DbFoWYwYv7pJQD4N3wEi6P/Y843vRhN34r61oY/y/pw75NA52K4P+0fwFBORWcOzMB6cQ9qFirdOZeNSpwyyl8GBCrhsyFBbR/XHaZBo5Hg9QSiLAtVSaFHk1sYIx/nB/5bShXM4SOn0+lUsarEX3u/cSTYFD2sly5K9Yu/RM3YKh3g9mxn3kpE3C/OBWtyBSl69cvFSTjO+GEM9EYeFxhM5R6AmZQiltI8x+X+g2qSViU40i+kzhJIw6RHimTf5pwEox/CW6Yz5HMK9snmZNwFboofxrhrVjtZR0owExgqsWUjqJgapXK1YUu8e3ScvkTKb0SI5pXkfi1DbSbHcr2ZzkKBaE/axMeXHSCoWuEk4yUnfG0UL2CFLf49Qs0MS5o3Oa6nwF8HRzPnc4hNPHFNHr6Uc0aFgyu3X0nRdpWDdTzEzZqpv8Bk0+ZzesFCIovo6lbKpHNp+5alNPn84GNHP8/A43vd8zif8SqBhH6jxpVPNZScVPBWJaS1wE+5KVKtnzLlKkI5lcaUMXKdcgcDP8aUVDxtKfb+B/AYj/jHElMt9d6HsJTwQd7WSotRaatxg5HoprztBch8CTui20QIXiWxHfcxRoEfM8h6Tyu13GdyXUheTKJYyrrCt0z9Pm3/zyshiHpXz/Z9i++G1/5wBD+AqHVX5aWReXzFZPIJFw1BWXpWbhMuVRQOmmDbD/374I8go1UYIKYJS6ruCibL5pFoFfZsaddREQpXxbfshlZA2Mcil92DRMVyaZLqkfSLuOz5lyJElvTyZyqzFphGNN7YLi5lPabUYKVrDzWIB1k+jYQmicyaM62NeC3KNkz/wJJX0DaTyA8/acI+uk8JFptwQrQz5L0phwVAzvMgH5jHmmRFqvIIB4P1pHgc5mP0vckLMoHEJRBX2+mjjtle9j16qDePzMBr+3g3v6YhKwvrVX28DJjZkPTRcRgKBDLU9C24tisSNwG8n0VNrSaGwTYIxqCdSxeCN7HujJIIVAnO7ZvvTz+WZmsoQwH0wvj2X1WPg3z/RGJYyjIj3hwb18qrgFg5ayPUvlk+9/JmtBSfr3Gj59sppwW5CZ4LJ5jtNHWAh/+2IOYcNwWwVOqYw7igGWbMpUQLbxYhDbCpCu4HAT+VcuCZF3yC7K8IuQGEjTNSYLMktB2M8SZrCrHFLSqLQqBtElp33p0ESBiPJlAaPE+GP2DWhQE5T3Srn8bSa2i38k7uT0Uy4eg/ATLctZRyYHUNuZCPHzApaUqAnCdZD5187gUFSi4ceLhqKmOi7ba03VmvgQM3l7Y1mbKm7mKC9pMiaYNHuhfzzLSxLqsAaNLtyWtS5K8pMTH/vrjT1ZNQH+TbRclLlqFMMV06FISz8KC5eJKHe3vZt4e4PoGt9chILs7GUtHbDqp6cfW6Aeu44THNv7PIFHqxfuRGqfN1Qy4IL1PJkL7jI0oIAVhPDIOs1V1NAVLEscMkTcTOYOJ9Q3EojM69gGD9T3FpBM+6j0EIRov470KqvhA2PfCXP8I0WXwAe1Ytz9sTXA4gMmfQd5zcP79OxAcGLNX5CIHFlSy3d8kDPiEyTnKcRVBip8q97cIylkoFv/FnZ/4LJrLgrY228Bd6Zxb/44Q3o5GnUGdnv44WNa64K7fvsl7tkjdgpWDf8gE+WHDrv79mV8rFOBKt/sAOvkvKg4A57219kfd56n76KJ0fm1dXkLxRRnIevv/4RO3YH5DpLUAAAAASUVORK5CYII=;" parent="1" vertex="1">
                    <mxGeometry x="286.67" y="526" width="58.94" height="22" as="geometry"/>
                </mxCell>
                <mxCell id="162" value="" style="sketch=0;points=[[0,0,0],[0.25,0,0],[0.5,0,0],[0.75,0,0],[1,0,0],[0,1,0],[0.25,1,0],[0.5,1,0],[0.75,1,0],[1,1,0],[0,0.25,0],[0,0.5,0],[0,0.75,0],[1,0.25,0],[1,0.5,0],[1,0.75,0]];outlineConnect=0;fontColor=#232F3E;gradientColor=#F78E04;gradientDirection=north;fillColor=#D05C17;strokeColor=#ffffff;dashed=0;verticalLabelPosition=bottom;verticalAlign=top;align=center;html=1;fontSize=12;fontStyle=0;aspect=fixed;shape=mxgraph.aws4.resourceIcon;resIcon=mxgraph.aws4.elastic_load_balancing;" parent="1" vertex="1">
                    <mxGeometry x="408" y="170.25" width="44.75" height="44.75" as="geometry"/>
                </mxCell>
                <mxCell id="163" value="" style="sketch=0;points=[[0,0,0],[0.25,0,0],[0.5,0,0],[0.75,0,0],[1,0,0],[0,1,0],[0.25,1,0],[0.5,1,0],[0.75,1,0],[1,1,0],[0,0.25,0],[0,0.5,0],[0,0.75,0],[1,0.25,0],[1,0.5,0],[1,0.75,0]];outlineConnect=0;fontColor=#232F3E;gradientColor=#945DF2;gradientDirection=north;fillColor=#5A30B5;strokeColor=#ffffff;dashed=0;verticalLabelPosition=bottom;verticalAlign=top;align=center;html=1;fontSize=12;fontStyle=0;aspect=fixed;shape=mxgraph.aws4.resourceIcon;resIcon=mxgraph.aws4.cloudfront;" parent="1" vertex="1">
                    <mxGeometry x="510" y="130" width="43" height="43" as="geometry"/>
                </mxCell>
                <mxCell id="164" value="" style="sketch=0;points=[[0,0,0],[0.25,0,0],[0.5,0,0],[0.75,0,0],[1,0,0],[0,1,0],[0.25,1,0],[0.5,1,0],[0.75,1,0],[1,1,0],[0,0.25,0],[0,0.5,0],[0,0.75,0],[1,0.25,0],[1,0.5,0],[1,0.75,0]];outlineConnect=0;fontColor=#232F3E;gradientColor=#60A337;gradientDirection=north;fillColor=#277116;strokeColor=#ffffff;dashed=0;verticalLabelPosition=bottom;verticalAlign=top;align=center;html=1;fontSize=12;fontStyle=0;aspect=fixed;shape=mxgraph.aws4.resourceIcon;resIcon=mxgraph.aws4.s3;" parent="1" vertex="1">
                    <mxGeometry x="618" y="131" width="41" height="41" as="geometry"/>
                </mxCell>
                <mxCell id="166" value="" style="endArrow=openThin;startArrow=openThin;html=1;rounded=1;fontColor=#F58536;strokeColor=#666666;endFill=0;startFill=0;entryX=0;entryY=0.5;entryDx=0;entryDy=0;entryPerimeter=0;endSize=4;startSize=4;" parent="1" target="164" edge="1">
                    <mxGeometry width="50" height="50" relative="1" as="geometry">
                        <mxPoint x="553" y="152" as="sourcePoint"/>
                        <mxPoint x="602" y="152" as="targetPoint"/>
                    </mxGeometry>
                </mxCell>
                <mxCell id="167" value="" style="endArrow=openThin;startArrow=none;html=1;rounded=1;fontColor=#F58536;strokeColor=#666666;endFill=0;startFill=0;entryX=0;entryY=0.5;entryDx=0;entryDy=0;entryPerimeter=0;endSize=4;startSize=4;" parent="1" edge="1">
                    <mxGeometry width="50" height="50" relative="1" as="geometry">
                        <mxPoint x="430" y="150.07" as="sourcePoint"/>
                        <mxPoint x="510" y="150.5" as="targetPoint"/>
                    </mxGeometry>
                </mxCell>
                <mxCell id="169" value="&lt;font color=&quot;#666666&quot;&gt;S3&lt;/font&gt;" style="text;html=1;align=center;verticalAlign=middle;resizable=0;points=[];autosize=1;strokeColor=none;fillColor=none;fontColor=#F58536;" parent="1" vertex="1">
                    <mxGeometry x="622" y="172" width="30" height="20" as="geometry"/>
                </mxCell>
                <mxCell id="172" value="CloudFront" style="text;html=1;align=center;verticalAlign=middle;resizable=0;points=[];autosize=1;strokeColor=none;fillColor=none;fontColor=#666666;" parent="1" vertex="1">
                    <mxGeometry x="498" y="173" width="70" height="20" as="geometry"/>
                </mxCell>
                <mxCell id="173" value="ELB" style="text;html=1;align=center;verticalAlign=middle;resizable=0;points=[];autosize=1;strokeColor=none;fillColor=none;fontColor=#666666;" parent="1" vertex="1">
                    <mxGeometry x="450" y="200" width="40" height="20" as="geometry"/>
                </mxCell>
                <mxCell id="174" value="&lt;span style=&quot;color: rgb(102 , 102 , 102) ; font-family: &amp;#34;helvetica&amp;#34; ; font-size: 12px ; font-style: normal ; letter-spacing: normal ; text-align: center ; text-indent: 0px ; text-transform: none ; word-spacing: 0px ; background-color: rgb(248 , 249 , 250)&quot;&gt;Route53&lt;/span&gt;" style="text;whiteSpace=wrap;html=1;fontColor=#666666;" parent="1" vertex="1">
                    <mxGeometry x="458" y="104" width="50" height="30" as="geometry"/>
                </mxCell>
                <mxCell id="176" value="&lt;span style=&quot;color: rgb(102 , 102 , 102) ; font-size: 12px ; font-style: normal ; letter-spacing: normal ; text-indent: 0px ; text-transform: none ; word-spacing: 0px ; font-family: &amp;#34;helvetica&amp;#34; ; text-align: center ; background-color: rgb(248 , 249 , 250)&quot;&gt;Users&lt;/span&gt;" style="text;whiteSpace=wrap;html=1;fontColor=#666666;" parent="1" vertex="1">
                    <mxGeometry x="458" y="16" width="70" height="30" as="geometry"/>
                </mxCell>
                <mxCell id="179" value="" style="shape=image;verticalLabelPosition=bottom;labelBackgroundColor=#ffffff;verticalAlign=top;aspect=fixed;imageAspect=0;image=data:image/png,iVBORw0KGgoAAAANSUhEUgAAAMgAAACICAYAAACiAKTyAAAMSWlDQ1BJQ0MgUHJvZmlsZQAASImVVwdYU8kWnltSSWiBCEgJvYkiSJcSQgsgIFWwEZJAQokxIYjYWZZVcC2oiIC6oqsiLroWQNaKvSyK3bU81EVlZV0s2FDzJgV03e+9973DN/f+OXPOfwpz750BQK+eJ5Xmo/oAFEgKZYmRoaxJ6Rks0iOAwD8yMASmPL5cyk5IiAVQhu5/l9fXoS2UK24qrn/O/1cxEAjlfACQBIizBHJ+AcT7AMDL+FJZIQBEX6i3nVUoVeEpEBvJYIIQS1U4R4PLVDhLg2vUNsmJHIh3AkCm8XiyHAB026CeVcTPgTy6NyF2lwjEEgD0yBAH8UU8AcRREI8qKJihwtAOOGV9wZPzN86sYU4eL2cYa2pRCzlMLJfm82b/n+3431KQrxiK4QAHTSSLSlTVDPt2M29GjArTIO6TZMXFQ2wI8VuxQG0PMUoVKaJSNPaoOV/OgT0DTIjdBbywGIjNIY6Q5MfFavVZ2eIILsRwhaDF4kJustZ3sVAenqTlrJfNSIwfwtkyDlvr28yTqeOq7E8o8lLYWv6bIiF3iP9ViSg5TZMzRi0Sp8ZBrAsxU56XFKOxwexKRJy4IRuZIlGVvx3E/kJJZKiGH5uWLYtI1NrLCuRD9WKLRWJunBbXFoqSo7Q8O/k8df4mELcJJeyUIR6hfFLsUC0CYVi4pnbsklCSoq0X65YWhiZqfV9I8xO09jhVmB+p0ttAbC4vStL64kGFcEFq+PE4aWFCsiZPPCuXF52gyQcvBrGAA8IACyjgyAIzQC4Qd/a19sFfmpkIwAMykAOEwE2rGfJIU89I4DUJlIA/IRIC+bBfqHpWCIqg/uOwVnN1A9nq2SK1Rx54BHEBiAH58LdC7SUZjpYKfoca8T+i82Gu+XCo5v6pY0NNrFajGOJl6Q1ZEsOJYcQoYgTRGTfDg/AAPBZeQ+DwwH1xv6FsP9sTHhG6CA8I1wjdhFvTxaWyr+phgQmgG0aI0Nac9WXNuANk9cJD8UDID7lxJm4G3PBxMBIbD4axvaCWo81cVf3X3H+r4Yuua+0o7hSUMoISQnH62lPXRddrmEXV0y87pMk1a7ivnOGZr+Nzvui0AN5jvrbEFmN7sdPYMewsdhBrBSzsCNaGXcAOqfDwKvpdvYqGoiWq88mDPOJ/xONpY6o6KXdvcu91/6CZKxQWq96PgDNDOlsmzhEVstjwzS9kcSX80aNYHu4eHgCoviOa19RLpvr7gDDPfdaVRgMQaKRUKg9+1sV+D8D++QBQBz7rHJUA0OE34cxcvkJWpNHhqgsBUIEefKJMgSWwBU6wHg/gDQJACAgH0SAeJIN0MA12WQTXswzMAnPBIlAOKsEKsAbUgo1gM9gOfgJ7QCs4CI6BU+A8uASugdtw9fSAp6AfvAaDCIKQEDrCQEwRK8QecUU8EF8kCAlHYpFEJB3JRHIQCaJA5iLfIJVIFVKLbEIakZ+RA8gx5CzShdxC7iO9yAvkPYqhNNQItUAd0DGoL8pGY9BkdCqag85ES9AydBlagzagO9EW9Bh6Hr2GdqNP0QEMYDoYE7PG3DBfjIPFYxlYNibD5mMVWDXWgDVj7fD/fAXrxvqwdzgRZ+As3A2u4Cg8BefjM/H5+FK8Ft+Ot+An8Cv4fbwf/0SgE8wJrgR/ApcwiZBDmEUoJ1QTthL2E07Cp6mH8JpIJDKJjkQf+DSmE3OJc4hLieuJu4hHiV3Eh8QBEolkSnIlBZLiSTxSIamctI60k3SEdJnUQ3pL1iFbkT3IEeQMsoRcSq4m7yAfJl8mPyYPUvQp9hR/SjxFQJlNWU7ZQmmnXKT0UAapBlRHaiA1mZpLXUStoTZTT1LvUF/q6OjY6PjpTNQR6yzUqdHZrXNG577OO5ohzYXGoU2hKWjLaNtoR2m3aC/pdLoDPYSeQS+kL6M30o/T79Hf6jJ0R+tydQW6C3TrdFt0L+s+06Po2eux9abplehV6+3Vu6jXp0/Rd9Dn6PP05+vX6R/Qv6E/YMAwGGsQb1BgsNRgh8FZgyeGJEMHw3BDgWGZ4WbD44YPGRjDlsFh8BnfMLYwTjJ6jIhGjkZco1yjSqOfjDqN+o0NjccZpxoXG9cZHzLuZmJMByaXmc9cztzDvM58P8JiBHuEcMSSEc0jLo94YzLSJMREaFJhssvkmsl7U5ZpuGme6UrTVtO7ZriZi9lEs1lmG8xOmvWNNBoZMJI/smLknpG/maPmLuaJ5nPMN5tfMB+wsLSItJBarLM4btFnybQMscy1XG152LLXimEVZCW2Wm11xOoPljGLzcpn1bBOsPqtza2jrBXWm6w7rQdtHG1SbEptdtnctaXa+tpm26627bDtt7Oym2A3167J7jd7ir2vvch+rf1p+zcOjg5pDt85tDo8cTRx5DqWODY53nGiOwU7zXRqcLrqTHT2dc5zXu98yQV18XIRudS5XHRFXb1dxa7rXbtGEUb5jZKMahh1w43mxnYrcmtyuz+aOTp2dOno1tHPxtiNyRizcszpMZ/cvdzz3be43x5rODZ6bOnY9rEvPFw8+B51Hlc96Z4Rngs82zyfj3MdJxy3YdxNL4bXBK/vvDq8Pnr7eMu8m717fex8Mn3qfW74Gvkm+C71PeNH8Av1W+B30O+dv7d/of8e/78C3ALyAnYEPBnvOF44fsv4h4E2gbzATYHdQaygzKAfgrqDrYN5wQ3BD0JsQwQhW0Mes53Zueyd7Geh7qGy0P2hbzj+nHmco2FYWGRYRVhnuGF4Snht+L0Im4iciKaI/kivyDmRR6MIUTFRK6NucC24fG4jtz/aJ3pe9IkYWkxSTG3Mg1iXWFls+wR0QvSEVRPuxNnHSeJa40E8N35V/N0Ex4SZCb9MJE5MmFg38VHi2MS5iaeTGEnTk3YkvU4OTV6efDvFKUWR0pGqlzoltTH1TVpYWlVa96Qxk+ZNOp9uli5Ob8sgZaRmbM0YmBw+ec3knileU8qnXJ/qOLV46tlpZtPypx2arjedN31vJiEzLXNH5gdePK+BN5DFzarP6udz+Gv5TwUhgtWCXmGgsEr4ODswuyr7SU5gzqqcXlGwqFrUJ+aIa8XPc6NyN+a+yYvP25anzE/L31VALsgsOCAxlORJTsywnFE8o0vqKi2Xds/0n7lmZr8sRrZVjsinytsKjeCG/YLCSfGt4n5RUFFd0dtZqbP2FhsUS4ovzHaZvWT245KIkh/n4HP4czrmWs9dNPf+PPa8TfOR+VnzOxbYLihb0LMwcuH2RdRFeYt+LXUvrSp99U3aN+1lFmULyx5+G/ltU7luuaz8xncB321cjC8WL+5c4rlk3ZJPFYKKc5XuldWVH5byl577fuz3Nd8rl2Uv61zuvXzDCuIKyYrrK4NXbq8yqCqperhqwqqW1azVFatfrZm+5mz1uOqNa6lrFWu7a2Jr2tbZrVux7kOtqPZaXWjdrnrz+iX1b9YL1l/eELKheaPFxsqN738Q/3BzU+SmlgaHhurNxM1Fmx9tSd1y+kffHxu3mm2t3Ppxm2Rb9/bE7ScafRobd5jvWN6ENimaendO2Xnpp7Cf2prdmjftYu6q3A12K3b/8XPmz9f3xOzp2Ou7t3mf/b76/Yz9FS1Iy+yW/lZRa3dbelvXgegDHe0B7ft/Gf3LtoPWB+sOGR9afph6uOyw8kjJkYGj0qN9x3KOPeyY3nH7+KTjV09MPNF5MubkmVMRp46fZp8+cibwzMGz/mcPnPM913re+3zLBa8L+3/1+nV/p3dny0Wfi22X/C61d43vOnw5+PKxK2FXTl3lXj1/Le5a1/WU6zdvTLnRfVNw88mt/FvPfyv6bfD2wjuEOxV39e9W3zO/1/Av53/t6vbuPnQ/7P6FB0kPbj/kP3z6u/z3Dz1lj+iPqh9bPW584vHkYG9E76U/Jv/R81T6dLCv/E+DP+ufOT3b91fIXxf6J/X3PJc9V75Y+tL05bZX4151DCQM3Htd8HrwTcVb07fb3/m+O/0+7f3jwVkfSB9qPjp/bP8U8+mOskCplPJkPPVWAIMDzc4G4MU2uE9IB4BxCe4fJmvOeWpBNGdTNQL/CWvOgmrxBqAZ3lTbdc5RAHbD4QAHDQ7VVj05BKCensNDK/JsTw8NFw2eeAhvlcqXFgCQ2gH4KFMqB9crlR+3wGRvAXB0puZ8qRIiPBv8oOa4zCxeCL6SfwPiMIAPb5ZLogAAAAlwSFlzAAAWJQAAFiUBSVIk8AAAAgRpVFh0WE1MOmNvbS5hZG9iZS54bXAAAAAAADx4OnhtcG1ldGEgeG1sbnM6eD0iYWRvYmU6bnM6bWV0YS8iIHg6eG1wdGs9IlhNUCBDb3JlIDUuNC4wIj4KICAgPHJkZjpSREYgeG1sbnM6cmRmPSJodHRwOi8vd3d3LnczLm9yZy8xOTk5LzAyLzIyLXJkZi1zeW50YXgtbnMjIj4KICAgICAgPHJkZjpEZXNjcmlwdGlvbiByZGY6YWJvdXQ9IiIKICAgICAgICAgICAgeG1sbnM6ZXhpZj0iaHR0cDovL25zLmFkb2JlLmNvbS9leGlmLzEuMC8iCiAgICAgICAgICAgIHhtbG5zOnRpZmY9Imh0dHA6Ly9ucy5hZG9iZS5jb20vdGlmZi8xLjAvIj4KICAgICAgICAgPGV4aWY6UGl4ZWxZRGltZW5zaW9uPjU4MjwvZXhpZjpQaXhlbFlEaW1lbnNpb24+CiAgICAgICAgIDxleGlmOlBpeGVsWERpbWVuc2lvbj44NTg8L2V4aWY6UGl4ZWxYRGltZW5zaW9uPgogICAgICAgICA8dGlmZjpPcmllbnRhdGlvbj4xPC90aWZmOk9yaWVudGF0aW9uPgogICAgICA8L3JkZjpEZXNjcmlwdGlvbj4KICAgPC9yZGY6UkRGPgo8L3g6eG1wbWV0YT4KuCLF+AAAQABJREFUeAHsXQdgVUXWnltfTyMJCRAEFdTEDhawECworqirm+jaK6grqKxrd32o66/rCgo2oih2TXZtKK6VYMMCVooCSmhJID0vr972f2fuu2kGBCQQ3Qzk3Xvnzp05c+acmTNnzpwRWG/43WGgMBiUy4NBnSp28p2PHtEUix0YiukpbkUKpahSVX5e/+/uvfCUpU7FR1w91TNgxIBEWXGx4cT1Xm0MCL2I+H1hoKioVCorswl95E3T/2Ga5vUx3RSJ8hWRMVkQmFuW6l2ytMDn9Tx75d8uKBstCJyZCoNPuMuDF8R+Xxj5dbXpZZBfh7+e9/X4mQormaAdfP19V1iyMqMunmApbjdzyTKLaBqLRKPMxSzm87iZYJpMtMxF6R739Df/fulTVJlBwaD7fMYSwWDQ7HmV2/EQ9TLIjsd5t5VYECxVlwSLE+Nnzsn8rmLlgnqm7D7UI7Xskp3xTCgaXxVPJA6pj8bHNJiivy4UYi6B6X6PR7YsiynM/CArNfDX1667aCEAFM9/4gl10KBBen5NjbV06VILDGMhnv7+p4L8P1Xb33llw2wphCjGquqr940bVj+/W2G7ZqX+4/5LT7/Lqfq01z/c9ZsfK86qU4XL63QhZ3V9A8tQZM1yu49cW9f42en3PPG3F/92wdTZF3QWtSyBFU1RCwoYy8/PN/5X5iu9DOJQzu/hWmFXIprQlYRpimmyxDAHWZKsGkkL1tUnHvETrre//NWqGQu/+3b8Kq90/Q+hRHoo1KJ5ZElZG07ce8r/lRTkDcid3sejxvunpTYs/XZN87TJQpSVscSSMsacDAuhDChkzPw9i2O9IlaSen4Pl7HTp7venDQpfuF9T++xrLru7Ra3f+B+KfJ/npl8/p+ofkTQ5SBo1k5cWmtZGdOf+M8dX66tuawyFGEqM3VBVmWPLJIIpoHBQuGEHsUkf71Pkb5P83o/6+N3ffTUVed924qzYFC0br3VEgThdyeC9TJIayv/9m+KSqHBSqpqR90yvWyDxv7Uz6Oyo/IHnXJz0fGvMhaECMYn3wLNO4rLykQn/Y3PvDb2w+8rngwxOctMxBlpvSwmMC6zgUpA/dCCSUwSEafFcS8udqnyS7lp6U8+d/VZNCohBMVgEL+/owl+L4Pwhv39/Diq2j9g/aOmueW/dZbkPTDds+aicccfcHxBXn17NTDVOmhZYlAYDT4o1y9/ojRn0fLK69I9rlG6YQZiCU3VGEtXBcHvdqlCbVxnCWjCLGi/JElmiqoySY/p0II9OnL/3e8InjymkmMSqmZWWmSy38GI0ssgvEV/Pz8YGQRh+ASZLSrRjgo+eF9D3LhSQ8+/T7qn9PlrLjyd1xRpOhPv+JkzlZIJE8APdkA+8tvffuu6/8PFmWNyM7IDXl/BkrUbRv5UWz+qIaoNbTZMlojFGQYiy+XzCZmS2bx73z43Pnz5nx9MZiFgRGsdoZx8f2vXXgb5rbXYFsDrEPtCy1Kun/LQ59URbX+PS2VD0n0Tn5t83gNs/HislZS0MoOTJYloX31YLa+cMSmBuC7nE2Ac5Y4X5x63eE31RRuaI39oYaLSEo4YmmVKuRnpLFNm5bvlZP/FWakfhnWZRViXccr4rV17GeS31mJbCO+IqVM9CyZPjt747Bv7f7zsp483xDRvmiKa++0+8MCZF536zTCMGIvajRjts6VRaELJIjlR9Z0UzveZ0OyypnVMmvbaXIuVz25dab/z328dsmx15V+rmsJF9Zi01IdaYn6v152lCPHsFN+VL/7twpmUb0EwiPWZIDFJl0xHaXpq6GWQntoy2wOu8UEvKwlGzp/+zCXLNjSUhHWT9VHFb+bfPnF/yh6TaUyqf3HFvIOoVFpqSWXrytSyycVE8NxE5e6X3jr22x/X31IZ1Y6oamxmhmlaWWlpgmpqzw4a3P+K2Rf8sZEVBdVgAdO3oLztUfPtlkcvg2w3VPa8jPh8RChWGCtLnHb3Y7N/bIycJ4ki80nWlA9umxjcfeJ0F8SpeBeQE1106O3ba8goPeU9eVqZe9rkYhLHSOnF/vbYv69cvH5jsCphprW0tMTSUlPdkhZf2j895ZyXrr3wS+iZ5cLCUaw8OJozFn3TG3oxsFMxEJw3jy8Gg6Ddf7jj4R93/ds0a/h1U0Mn3PHYLgQYiVoOgDSi4J53mqfcPetfB1039eNjgw/cSXMZSpN87yTnV9KCjQvO9DqR016fv9ef//n420fcVmLtcfXd8QNvnGEddN20yNFTHrQVBMi/CCKXk76nX7mau6cD2QvftmMgOHq0DrsqNxbxYsfss8ffhqb4WAuT/KFY5DrKddHieCsNcPGnKMiZwa+IG6RA2sgapt5w022PPElp+Xu6aReCgmDOCU6IzFy4EN+NdV194qhlz1974Zg90j1TsgJ+NRKLMqzqexrj5guFt8y4Hp9aZcFgYixGr3bZ9N72YmCnY4Azws2zX/pswHXTrZE33LfhwlnP9yOoSOvlQEeiE+4ler7iweenHnzzA9YhtzxoFU+bfRjFFWI1nq6bCrQO47wb/9Bzp4y+ZUZ4b4xa+19zj3bI3x+2Rt3ywP3O+98Ck7T2Hg7QvdffJwbABJzoXS61JM/jYhHTyq6sbORiz9zvw61ET+YiM2cu5HTx98vP+Hu6LKyMEL9oRg5hJpSby0WwTWGJ9pM4DFdy+ZmvHLxH3qFZHnlNVFLlaDgcDYvKpIOvnTqbvn8T8x+aB20qr54Q38sgPaEVdgAMM8eP5xPjJk2Zo2jxJl1SWDxhnERFr5s2OUpzCQeMCROGa8Mwr8gWhJYUtzork2narv37vk/vx1VV8Qm5k7arKy040qSesSLp7rNP+W7UsD1G5Ke4FzPV5Ym1NIeZx3feIddN42IbKQnaz4O6yq83rhcDOwgDXHxio/8+44X9by0hMav+8pJSrvJtLxoRMA7D/LN0Xk7w+ddH8jh7Er/FsHJxLSmSrW5sTL/onscXDrl+urXPX/8VOujWmdZB104tcTL7JdHNSdd77cVAt2EAk2w+Svzpn48VDf/7I9aB199n/emuWTfyAouu9nQuODkfcaI3K1o5ibq80so9wqqGhrRz//nYV3vfMIMzyXAwyRG3zLjb+YbsxJz7nnJtHVZ7CkC9cHQfBoIwSafcD9x90PsuI7FRk1WW0I2jeYll06LBoK0SdiBImq8LWPQg5uiwLuKk2aIrmbXA5GRwenrjFUVHjy1Ic/+YkBV/ItwcSYjKtWNvf2Qi5YO99GayrC3Kdkck6mWQHYHlnlIGTNYp3HjqMXUBl/KahXlITNf2m/ryewdT/JKUmlZtFj0nA6zet8M+D7LHwvrHwYMHVx86ZNC4XT1KvSbI3khLSKuP69NPu+vx41AebPCLexRN9ihgnBbpvXYbBmB7a89DfB7Xi4oWY0261ef79dUnU4llk6f84gT8V0GG9Q82dqLr6lOPXbbvrv3O7OuWmY5FyAisgjeEWl686fm38jCMGPYE/1eVtN0+7mWQ7YbK30hGU6bwYWRUQc6HqqUvjEguVtccPv4rzA8whiSCpaXdusptzZ2ewPq9cve5p7y1e076NemBFKabRrTFElO/WVnxNGGRNnF1mv/sNOT2MshOQ/1OKjg5D5l0wglxv6LMtkyD1UZiBz7/8rw/EkTBubbjh+6CjuY1wXn/4vOZx/5y9r27BtylgUCKJx4Nt2w02Kgz/vX4zVS2MGVKj5iw9zJId1FCT82X5hNJbVFueupLnkS0ok50s3V1Deej13az2cFYd48iZP4SfGIeX3GffNZpVwx0S6tll9vf0tSkrW0M337tU68Ox3xFdxYcdyYqexlkZ2J/Z5VdsJT34M9cfU5VH7+nRDR1tropcuSVj5ZNIJCCxcXkB6tbaSN4wehY32vu8R2YG6jZe3Du5DRFYoIoSE2awb6rqHyc4KAFx50tanUrEqiSvaEHYgB7QAqTC3iDMrNnpTFt2UZTZKs21N049dV5wwGxFqzM7XYRp/qeayIoSw2eceJLeam+Z90eryjoWrxGY/uc+n+PBglzQybN6NY5EZWxudDLIJvDzu/4XXnwVoNErUcuO3Vjqs97u99IsIqIkf3O18ue+NsTb+SQ+1KHiboLDTQfmTh9LlcanDLygOsyJKueiZIL8xG2til03aUPPz9oZ5ui9DJId7V+j89XsIqKbCDn3HDJ87kBz0MypidrEmzvr1ZX3EdvyjEP6G5Ra8akE+LDgkFv8cj91w/JybxHdbkYfBLpuuRyf19VR+bxrKmdST4978jQyyA7Ets9rCxSpzoT8tk3Tbhun0z/fLi9Yk2R2PHjp8/ejcANLsm3Vxe7Efbr8vP5rsYHLz393t0DrlUJQZIt+N6KJrQ/T378lTwaRXbWhL2XQbqx4X8LWecnt8uS5a4kiCtc8HUliGKzyxPoaitut1SpGIxKxpIQubSCgX3/meHzMF03DENWU9bW1l5MhZa0M8nvFiA2kWkvg2wCMf8r0VOWLuWT8aJ/PpGzeEPDMEuQmEeRF8245LR1hIOkFNbt6Jh36/mcIW8548THA6K11hBFSdN11hCJnbWw0vIymOTvjFGkl0G6vel7dgHxujouQoW1+D5Y0S4QoPJ1K/J7DtRl5CFxBwSasJN7IFwTAa9rltfjYUYiYYR1ttusV57nG7sWLarqylasW6HrZZBuRW/PzpzWGFbOmMGdukmWMEzw+FU1Hm4Z0rfPfA45qYJpYXEHBYxWfFNXXnbgMUVPxGA4JsXAnlUNofMIhEVwYVTKN2LtIIBQTC+D7Dhc97iSRk8pJ/HKJEaBOHOQqXpYv4Dvoxnji74nYAvZqB0KMzRmJisqkqadV7zep8rPqF4f3JtGWW04duS1T746moApW8d26LpIL4PsUBLoWYXVsPm8/W95es6gUEIf5sbJCH3TUz6gyTJBWsjm7xDxqj1WggUFfMTaJTfzAZdlMFgtGnFJEVZV11xA6eCwLo7TG3YY3e6wgtojofe+Z2BgSTk4AmFNXcOeLSbbxadFWE6K/ysOXWFQ5j06f9hxP06Zj196xjdpLnmOy+2RItEIqw/HTvrHS2/tDUjMil1m77BRpJdBdlzb96iSuI1TeZDv/zB0fQ/B42Mys6pUn2cVAVpQuBPF76QdWF5m6nS/KmHXo56ICnLqqnUbzyXYcDwctpHY+1rouTtDL4N0J3Z7cN7FxWXU9lycaYhreYqC9Q9BWDcgI3MjgX1Ybi5/t1OqkDTJf/Tys95NlYVPXC632hSJsI1NLWc8P/+7PMCkT5qxY2y0ehlkp1BAzyq0uinsMrAd1yOJlWcevk+IoOtXNfRnDMLNTuiY6aR70m6rhb01mKufc9NTZqR5PSyWSMTqDSHvra+/OovKnTFp0g7ZVNXLIN3Wyr+djHGcGpPxF9aNEEYRrmotZ7am16kFMQefH9hnfRDzcAJ23m/nq8WCQZ5/8RF7z8HC4RJVVd3N0RhbV9983r/mzMtEeXrxlCndvi7SyyDbuWV/i9nFTR3sAXlL2rSFOzEH5H7x9HtnnXvOPU/5KHl3apPoUFDC5XH77RfOCvgeSff7WDwej4SZtOcni1cU07uy4BLD2WNPz90RehmkO7D6G8tTwnyc1FnKz4SqZEWSOxDPnDr7qg1R60nJJRxIb95qmtZtbkMxklmFyT0rewzOLfNbxhpRkrzReILWRSZcV/pOKljEGDahpNVtahLa7XrpZZDtis7fZmaKJBg4tJMFFCkVowQXWwpHjeKV4c7cyoqNs6Y/k7+qtunexpjGmsKxM+nlgjmrunWdpJCOrEa46eRjNqR61VkpgQBGkVhLQlL3Xf7TKj6K4Hi3bp2L9DIItcD/eKBJBxiDRU0zp2zB0gCho3L5cj4H4M7c8PxTVe0McmJtxrAmEYmddN+7n/ZlK2fE4aKn29YkSKyjMw4JnvRU/7OqFquTJcnfEouxWNyYNOujjwhWM6mRo2TbPfQyyHZH6W8jw4LkvnSCdmBaSqOha7TekFNVV9uH4hYtwkq6LeJYp0+dPQbOro8StHiCpLCYJfT7avFyPoqUlS3Y9MSFMvqVYVy/8XytpmTCGT8qivyU2xdgWiIeahHkvb9aXGnPRX5lGZv7vJdBNoed3/G7W+1JMG9/nyyuZdiglNDMAQ3NoV2o2ouWV1k1SVu9mqaWIgNKKwwpIs5I12KGxWqaw+dh1HExuCwdP5MOz+meAGWW6RyRkJUeeFxKREJuWQ7UhkKsorb+WsAgwJGWwWAJjBFnu9Pzds+we9DUm+v2xgBNgnEcNO/9fT73SpcW0+OqW2iJRcmcg/bbmo51bUtcO8jECIPRQ4ARoWIa2KcR1/fDnnE+ipS8+2y3TpTP7lNPtmHCi1eeu9jvUh9TsOqvWEZkTUt86Am3Pfzgh6tXp4NBEmAQmrOQOproeruooXsZBJj8Xw0F/fpxInL7XctUSfo+Iiqspil8SBIfJhHcxMdLs8AZu2B/H7MEQdqzb58P+/nUZXWiymqbwhc5o0gw2L1zEZxGxec6+++ae5fbSKyS3T6vpSWiNQnzsn/MfqPiT/+cNf3ap1/dA7BzuHGltRTx16qBexnkf5U7UO/8/Hwu3993zmlVqiJ9rmsaW9sYKrz5hbm7OWipqQntgkRpgmUyMkfxuJXZfVP993sVhVWHwodNnPnC2ZQ2+NmH26XHdsrtfKXTqBhOo/rXuaduzEzxXiJqsZji9XsS8Rhb1RxJWdEUm/jJ9xVLT76z5JnxD7zA1dBgEJPvZ4EJPfLbJvh6GaRzS/wPPZPTBjq/nKoc8KjvSJFmFpZcORtrG/7goEFxKYNFCWaMkK9kkBiOQF++/8FDnkpJhGrr4ZFxfX1owjs//piK89TiRd04inB4iEmgOHjluovf65+efrDP0v6NkQ+nYLkZ/Gmx2rgh/hTRz/p6ffWiw266f/aRNz+4F/8ODrGxz0TclvNHehnEoYT/0WtRgV3x/Lx+b6W6lUWNuklGgZc/+cnX/elNY0t0N0tEBwzmkOBkOjvgXz955Miox6VOF+HXtyaqHfTy2wu5Y4Wy4A5wOg1XRKT6ffX6C7778I5JRXsPytknL8V1zQC/68Mctxz2GBqLYLtIg+g6ryEW+fLwm6bfftFjpRnkNR4qa2Nrj3vrZZD/UcZwqk1HMrOCIvWus05syA54n/ZBm7Uuauzx4aLFd1GaIdnpe8TBCFjFZqIgrB45Yq9KivdK3oe8RuLLekFmq2sbLpvx2vzBiDb23gH2UVgc1Gj/Oo1+sy/7c8VL111y7+u3XHbkUQcOPWyPvum3Dk3xLMyF0lp0ed2NgnLz0p+qPjzpzkdPJbgXwZ0pfYf51RbR/jbJZVRQb/j9YIC8hST94MrH3fZweVWCHWbGI+y4oXkvx+PaiLk/rs9JhxMFl2C+tODOq05j44Nehv3hJ9z+8ImVzZHXJF9A2Dfdc/8TV55zFWGFzvfg4tsOQBGJdQua1kl0EKlTHBQH8l0vvnn6ssoNE1fUhQ6psyRGniMHBDyPHnNg/k2TTjgSGmyGDWHzILGN5saZzredr1vERZ0/6n3+fWGAmKMwGCS/VPqgjJTL+jC9xlTd7K1VG//43k+VWQFJNEQXGERS5lDNh/XL5QiYe8tlr+em+O+I6QbWJBquvOnZN46kF2UPLd1hHS/EuoRzSu/5T+CMdpy1SPW44YwTnn3y6vNHD8/LvnWIW6zVcJpWRdS4ZO7CJe9d9WjpUQATXiNHw4P85tdwdlhFOEZ7f3o2BiZOdLEZM+IXT3/m0J9qGh9vMKy9BIhWMuYgih57+9yBh51IR0RTJWgeQKIO3R8XfOjJdZLn3HzVWFB67UVHEoGSpS8t8tH7HR1wzrsyYdHrCo1yVPZ9r5Uf9MXyn+5c0RA+psEU2ADJDA/MTLvlyavOnUbvaRQiRqP73tCLgc1jIGn79Nfn5mSOweGax9728IwxwYfGX/MUN3GHMoirTHkezgp36RJLPfzm6S8fee8L1pUzX7wxWQBfhNx8Yd37Nli6hDR0fJWfxK7zpj11wxE33R8aeuND1vAbplt//L+Shx0Iul0D5xTUe/0dYCB5bHPnmnSlJh07fTo3eQcBiqNvmf7K8fc8bd32wpsH0beFnU7N7ZzfjngGXAKtnzhlXfpw6cEn3jHzwwNwDPa+Nz5gnXDHI6+VLuGMxEcSJ13vtRcDm8WArQ5NjhYYNTBH2aQ5CdcoJXMb9fcHS0++c2bTCrLTQugJB3KSxgqKCC/NTwim/3v99fQJDz037ajbH7X2DD5mjbzhvvcdh3Q7w70pwdQbfosYQO9rjxq/7EHEMUunal40/ZmSi2Y8+7ZTZd6LOw876EoMzUXAwk0z9iNvfjxi7JQH1+x9yyPWqFumz3VAa8/UvZN0Byu911+NASLKcizkUUaTZ/3nNrgOdU+76E/XJjMmWiNr+W4NSRhIOdCqIAjOnZuybEnlQENQ8kLRyAC/KKZlp/rThvTLVn6srhnz3xXr9svw+dhAv+vR/1x/8Xh8K4GpTTLo7GWQbm2u/73MacShFWuq+fVPvHShFk2I915+xmN43CEM4mD88kdf2KuiqnFsUyx2jGmx/TTD7MskCS6IRfLWyETswjdxb8EIk85EYbLC/FC6HTggc8z9lxS/Q8cxlAcviPUyiIPR3ut2wwCJVNT7UobnT336CBhxabMnnf3pjlhAHH7ttD+5ZOEq7CAeqcmKYJgmM8kSGcaWdLQDWQR4JSz/4Vk09Dg80FUBzO9S3OoHOQH3O7vnBZbhEFNS+XKG3uTEiyrXG3oxsC0YcJgjiMlxcPI5H9JZiGR2XiYIfGTZljw3+w2ZjcBy96g7HtilOWKVtYC2TS3KRF2DuCfKCiyPFcuKZvhcP/QNeL7KSvF9mTDMpf7U1FV5u/ZZN2G4vbbTqQzO4L0jSCes9D5uXwxwJrE3Mm3fjDeR2xE3z5jfbFhH4gi3CPz6evN87o9Fl3SDKqjrn73qzFUO83b4HBP5YUNzhV0b0k1HPHTe9zKIg4ne628aAw4jnvx/jx+zIRZ/p6WlJSbIirufR/7x+j8eVzh6vyHrUEFp32vucY8a6NLjLpfZkA6GKMIBQUlxsCsE9DJIV1jpjftNY2DcP2bOrNLE8dHmxmZBdaUUpLjDRx245+kTjj/yDV4xLIQG+800tsQUptdY8TdNCr3At8cAjSL0fFnxUZNyJO0jb0pqiqnFQ1/UNvn+++UPr09+tPSOt6qrfaykRCPm2BLzkt4RpD2Ge+9/8xhwNGWvfv99YMbz777QzJQT4i0ho07TtLyMDHembH6bnZ5686y/nMktk2kxkY6Z3lTFexlkU5jpjf/NYoDMZPjGKNQAtla314VjN5swdw+Fw82SoqZkuBXmlYXHRhxw8JXBccMjg84PuitmB2NdVbiXQbrCSm/cbx4D8ILi4o4eUJM/3vP4UZX1TXdbqmd4tKWFJUwjluJPcbtM7UvVI576/s1XrHYWBjtXvJdBOmOk9/l3g4HkSEJrL+b4mXO8y9au+otmmtcbijujobHJ8nncgtsyKmRFPP7jO676YcTVUz0L2u1MJET0Msjvhhx6K9IVBrj6dwmTcVYC3xB1xrTnB0WizVdG4vqltQZzNyR0lmnpq1Jc0th5YJKiqVM9ZZPbtu/+jEFoklOwNEugE4AdB8YdCx6G04deh4qMe7Hr+OpXPgWxp6CyZBE22sAxbJeByg7hXIrN7yPu8tMeGImlWoHNK5RWfueRdmcr2EoO4xD+uzt+6TlRv8bayLLMwmC5gcbiq7s8QTf8EDHdmlspsfhacSXggcuGDqW0wpTjt/KX1phCsBwr1b8+cGvfRRO6sOoYBh/Bi9jwCSV85+KvKSm5A5Lg5Ti8ufTNPepq6q+qbAiN/8FQRKOhds2efTIK59xyyaoBGEna73HfpnK3twnzVuVHm2B+wwEcLlozh221P9slwQLVKm3b0be9UDAvWCgv3AZ4UL5A9XDUq9sCz5a2O+9MtqWA9t8A74WwOG4f9cKHX+53/ax/zzn2X89a+/7t3urSz5fk0PtB2KNP1w6ERqNHP92VGbDEFNXndpuGiNO57APjGAMTi6JpmqKyy6CM5RcccEAj2ddsbhWSCtiSQAjGnzl97gdZjdHEIE00TDgotgxdEOAHVrA3TSInXZAlVa27ZdwodG/EJLZB3JaU0VPSEDGObtfzVs0+rYBZiYMETcu1jKhsmAkmCXLMMi0cG2jWC2rqGjG135rs4ln2AIOKWEEmluUXCXD7/6tsm4hR2a1BWBbaveraT6Z6pOWfHiTEG/axMI9llk4bjBSgGv7irBhs/KJYdo6IakqFHMhbmXXGo8sdvFK9tnaUo/IFtHv9O3elSoo1FPQlYI7ADyihIUORLNEU5XiaK3WJMHyCRszUpamIA8QWXjm9Udp2UtBtL7x+xkfL1z6PmlZfNKpwSPHoghbaLZlkEFpgCZpnT3u6ED6O3qbD212yqAqwCeY+vZMFw7O3KfsCYpZsTX/2r+dfiQJk/P2qYTa5uZ+GPav4rsdmNQvKhfFwM3D18y3NstvDJC3+8dxbLj0c6YHbIP212v0nweyRF4cYCLiqx4uyLK1hvGDqZ1imtnfATT6nUA3O8zb41DA67LQ1sEDCEEAv1jJBkOdYrtTnci98damdiv9S0q0SvWDtLbAp6NqC9p6JDY+ddJhpRC4CLGNU0ezvcca29rkmKQVEymGK6TA8FJVvYSb+guXNeLzfmc/XEjSlGOG2lHErZ47z9pswJ1L52AnHu2XxTQnUFtdgZYsr+IT5XDJrimoNsszysy+YW43RUxWKy/hcgtf81/6A4YJTprTS0Esff5P93AefzasKRfWP77xyP8oew01bT6wI5gANvibrmxol4g4YCbehHggiHCUiCWZ4lHFA1GRwMz+v+tdw9WcZM6g54ve9+m7fVz5fMqoaA4agxQgJavtmByQmC8dFeM/rW7pko7+4ILulMjeXhssezyDWvEJZGG13JJUzj7nKilXd1scrBKIJg0VxlEAoCuPs1kCDskB0iEBtwwRRsBS3Iu3rUox9m6K1N1U9POpNwZf9r5xzy96nROgk+AhMX/xSIAIWBD7yWOsfPuYAwYzdrZgNx7pw/lo0brAETgBJJNpwasPS1nNjExRRAg06kls2DnBL2gGNjdEbq2YefWfuhPf+ScxBYiAImerUnsV+BpoRrrXft1RbcQxPxCDYtwG/I4KIcsy4JolWwtAsU+bpli5t3y/8LLutjwCegwQjGIWOcjv1sP3oCOyCCQ88U9bnjpLHXrt5/MVwuoqo5BBbH9f603jrFkXAK3pku5XaF4x+3TQjljD4qpmlh+HFBxNK+BlxNCJuU3hzxQr+3aIVaw+LW2w3Ga4jVRSODqRTgDgFJOqmkbb826/S8bJlbTze401laN4gjC5P1Mw6KaAlGl/I9mgnNLQYrDbEEpBeJVST/HrSSA1WsStNexeoURAoAswiWtGEZUUSOj2raV5jrGnUjK0uGfNy2Eq9YLcJwaYt6bmThMvFssqHjrxZFaK3Q9OJXlo3cPQfUG7JNiiKiCuVn4TIuQIuk5oaeysAH2Ayozh1RxJYaoaH3V310JGnMk/GGWCOCqsUkmIxZzS7Ujy3TfxI2L4ODNAfuWMnssMt7WrCf4Dl+VWS5CYKbRcNRoFaSHMc6M284uyiyY+9VHT+g6U5HSYsoqZnatCVUP8AmbNdDm23aE0zBuytb2z+I2I/KKmq4i3ZlmLL74Jo+aAg8GX+plj8WE12MSGeSEDOVX9eugXWxBtJ9LcYcZpIre0bCGxz2VsO5banJOYoCC5JNDxxSlo0UvtOdkAcvrE5QSu2ClCMOvJaosdkJghBxlmBIAz7j0qlToKagTb9kLiFe1CoqDVGTA3TAa8p6H9Myxk4CUmbirJqNosLmiOAcHUS9aqy3n6xb0D404Ymw4KDThqtXcgdch73acAsrR6FQmKy6A/NIyBeQJ8kZTJBxgFUgJGZ5MjQIpJWIZKbNc1aLN0rHdIQqfmycuZRxwjF73/ZniGR+BeC3eLJoZPXm36SOPqFb7fPa3Kg55iqTL341DLKVSQZzMke+wsHodL2Y2us89a+4i32oWisIRI7AZURGHy78mvHZFv0tGTKFM6gdO41DmkZhc6I5E+ii58FAgeCB4ublruqvimbEvzQ0LAJKH/2+Q6PILGKmMOygiKYo9RmDi0CQMjbR3KCJaA7MsUUj4Sj91QcbeZpiIlpP0Wk3K8jQvbXUcH/U8zybtSYV3fBs2GKRxX9LkEBirwBmii4Uu7vc9pj66zpu7swSm1yLkiE6igGqrLeer1vQAZzJEDhtOfa5N5HmBQAY9QwMzQPxF/NRP++TMo6k8m5f8H1dDxDJDdr+Xsrhrm56MPnMpiYeneMgALzNkSMsF+10gU9MW/jE6cNAUNycWtrkN/aoERblPPWfLwd0pLLVKJnx7uJHExmSpFjgg/yEURGbTc1giA55BwdbvKFoVeVlJGY9VHxlDKaR2z15KmsMpfzwrfLVx0KMXwvIw7xSmQyCRidAxJywVzA0C+ZFlfFsbWdU/WMZ+ql2egglwuqSz6+KdMvHQuCjAOtpDq0Gx6767A7WnK73CxkuN4XXClPKum7fiYP3GtD2v7nEyOxhkUlHtZQlWqEmgZrsaZ949HaERBqDlWV2GANyiV3xsDHeI33ORtlBflt5x/0KZiQl3E8Vz50+JNZfnHshmZst2MMwwL1zxClJC8zw+9gLMhn7gMfXOHe9dDJ3qzcT9nahmYcIgLGK4e79P180eaK/HjFwimx5S8dazT+F0wzmktkzIxjZgKVk8B8obgVSQMvN0U2vLxw4fgDhOEl0D7Zk5bOsHX1zAHFC5r7dPV+R8Qly+bThlYR65+vfewHlgdYIH5AtlnZHogwE5B11tY3nQKAPyqrWLrZ9F1VKqm94kA0RhLHQDnAxHgiDj61e7QuPqIRxMQsqDYa70evF3SRpidELcqdIw2HTLvx6aLdjdDGK1twdDLNtCFWi6gCtT6EEkNSoJWLu/venHP2i//oCPcFziN1Ok34W4O/+fib0bzwX5nhbz8eJwl6dvapjyxGdoKjAMD7n4WKKYWuwcHyWNXMY65IdyXOhShEOOfMwZuZmKPlXabkjg8HRl15tGdA/uddECf1WQQHoXxMbOPa3UOfPf1hfOmNOWLgGGQDKExNgBMEC1KitylqRLICSoGwcAXV61o2pRAj5qZHOKThgXoO+iMU9ZTQyiDReJMPIk4aRhJaXaAq24E6GXsS34EJdDgsbozEjkeiaxgsIbdGk0IZz6ksITHDDJb+N+ODxSuOTkB7JYOISL7CLIiIiQRuwpcTABbiAJ9kmJk8ctoC3ks7CXrCldAnCIs44xvRplPSvVafupDFRw+iMl4hHISZ6lPVsJx7V/bZz3PmqJw5zJubN9JYCo1OflYBH0SX1iwR1eocwa1XA/dlbMFklkgZfg2pU5+guhKqkF9rU1Fc+7AEatHBxWWxxmfP3DXStOaepghHlyPe2SMHmMM18Oq1mcU35AtCdkv77zd1787OWwk6GVzvSvk0+tUV+4kpIAOL+IfZ8rHAPDUh8LYgXbPx6ZNKhHNeW7l18xFklxSxNgXDjopvZZCfapuyQZwZDAc0ortLMgN6OtAqEapEbGOrHalJMIZAzNLEgksffvGwRy47/ePPMjJIzNqkXX3nCtEpqhS3al318Khu7W3gKC0IspCvGVSfmJSiZD+0Vm2tD7YhVxSQsZoNo7+dXxmZvGyxirMzDN3yXFZExGwzrqEdQYwOKiYzER7APZpLNtWQmVLR95znbmbnPs9APKTfh1jlmNjw+eHPwCPRbUXGZy45sEyoWF2hsyDbfAex1M4n2lz5jxQXczdHeXowCLCKCbkVW8GktBPNzGNv2UcQMraIORygUI8YiPiwmqaKqsSqfwWklLGYw9RxSrGrLGipHkFpaglNxjeXQ0VLjLlZeNva2ill519lRscBB4NMi0RTNIhN0ERDZwKJEmJAs24Iu/i9GnTwxpqmFr70jnibTZBKU12suqHxJFTj4zdxlMqWVidJ1HxSiUPpjyXxSojHY7IoumtjmrVHhl9I9bqtJdX1gANtSWUicxpZDNLm6GZKsixjSX5+ske0Y8idfUPVTz+HJZ+xmqVLzfJtXNgky9BsqJX99Tkd2rElo1rw5+Tonc/DWP3sH9KtxqahXDMLVQ9GFj56gKh0HHem1Mt9XwSROWsGWzR/w4oWjSy8E+IjVZCjJYmKjpdVTxS6B19QHqt5/NQD9eiG0yJxPigBLwQI+jLoIi19NQuMeOwEISODd/8dc/jlJ8Afjq5eckJ95X8+NBMbMGdPBQvQ3J+3l9wSAyWZidPXPfnHWwac93Ld1owiyLsDnn8Zmu5JAb23nXHMtHLpLDqARUdiA4NWQna5VUkWlqf7PcvWN4f/BNsHRHMlPfTksAKB3UlTJDEGOVxHYpajIvslUMu58MtgWjI35ZUFPx4XR/8KxiNItITLreQEvJ+7FaUR840xWHehDgnIgtTFeRMLWZaVM/WTTzx0FFh6QwONduiZSOshWCVJ9/ybhIGG7m1AvrMBZ5P5Jst33qvN4VSgKpvU5qgAH5HtFqcxGV5wtPoVPG0RX1Cjum8VQST7DKe4n10Hra7hHKElGiYEoPkKgR+QiMrBL7Aa+4Sp/Ses9RUc8w6P28Yf98D8j917XbUsuujKvYR0iFpc/cszg08qy/S7xYxQtIHmqrMqwjUkZWxyFLGBswHpQSKWDVZTKNIXp6RAuiIGERRgV/e4XCpcNW4YmpXxtEsSj4sJ0AVqGglYHNMwlsJ5cMLeEx54bsTMK85cULM0vFkE2FXHdA1opPsvf9hwYNS09jFiMSZLooKjvmL9U9MUWZb+UxWOonRljIVlXa4UT2KPemJN0/01K6q9yCLa0LoOI1ikmguLmX1xsKOQMAzLkKBKMFR+VWW/4HZHm0oEoQn5bTWTFOE45BRT8mqKqiNvTvASykBO0j452c03nCg0UJ2cILp8ohFJYCGwa7oXBE+reItvuk7kZLaVV5p7QGRLVJVekGXVrhxLoy4C4RyjLYqF1gne1Jh7r5MnoV/ibbGVRbQmp54+tmrR1bHFrv9aiRqMIgHkTUs9zqjPCx2HiFl1ifJNMkdrhj3shhqaYy/N60oH16Ja9tBGkSS7RDTDe+TBQ+Z7XcoyOkyltSUpKS1gSYoMk+E/UL3KK1bTZbOBxCuIdLxRsBXyOE12w/GeQGpHmBlYbq+ls34Z/rcUia3kVNhWIs+XD2CSGNgQ1vlEvSUjg2xpeFJa6Kmtrnl2yYrVP65ctfabipU13/y4at23q1Zu/OqHZT9VrFpW+yjPBI0axCIlv9/MT2HS8vPuVz8K1K+peenbH9dWLF/+08JVK1d/t+rH1d+uWLVu4erVVZgOrPsjzyYJB7+P0QJbx8zpkQ8mmL/BYoEfEdA5Tccvtu0pf906LnYKTeuPkgUzL4GDOVsDd7cJWzfvwSzWf5d3W+N/xY1Lzv5Azj4Xa4qYQwkqcmqlEoHKhsbuoLq5E1OGT2AaLVhuqij6yvmyp4hYrUTSpJmDHMB5u6JvJJeNXo8qFQ8f3hRQ1XIJKlZUgL7hnETiGPpQ1hKPH8u/hZjluJF38up8DSYjSESC+vMEaHbJrIC0ZprkcokuPbH29nNO/aYhmmixpa5OOaA8TTcDG+prsKSLU1hX6fYkHfuK6VkVxW8M2JNh4p8BC4p02DqlRzW9T0yUhXAsfvT1T7w8iNJ9NoPbgNHtJkOospKjYn19dY6mGQdE0GXE4lpOzLBS47qZ1pLQ4e9VBvzW8s6Z6FZCA35ifP6UbHW6oE5KQwvknXjDGS3fPdoXBaBfshm8cx7b8sz7ON8CPr8z9fgoLxaWsApPRSfbGreYeyh9Rq7Nzi7Yqon5puAR8vKict/9V3DhKSmBO2nJAgAc0k+vXLkPxQ3ahYawrgMhmyMc154iYrUyCMytA9AccQAJmxToKVVVaug+w+d9k+yk+IyZXiGQHExMFNX1fS958BneI05bsI66kF8MXy74/oCoxfY14zGyhFNgvWnSopnXrb5NHw/MymhUsEpLtmFOoFuu5gUf9PH5MSNsC4XAPIXczLRSCYvE5JQY7GtAK2dihqyZ8SgM9sWMFVV1oyjdm2Asum4uLGpo4F2vkDD7olwvadoAQwJrRdR78Im1rCdqdt9t0FKeDxZ3nPwwYa2zRHEd/MTSN7YWi+ZQlinplpxIk1t84S/m/IvSw6wW2W8nJikvlAT01JzALBPL3wQSd/kJ7BEuIfQZLUzK2fdhKnt7BSVrt5mcBU0o47DCniQRmMngRFwVwoYW2ZfKkhvibQ26mcJ73AgCB6Y5JhYJEdoIB127pZPuDor3q87+CHZtq4V2ZuhAvUjzEF1S3Rsaw5ihYSWpobmVSOi5QyCJPSleNUW043XYXkG8gsBqQa1relxgwBSP67/0jaRpDQZs6DqMIuBY2OvDkkkRaiKJvPZ5F956PifYmeOLFngVeYUgo5FAm0iD0UmQabTjni0S8aP4d9Mmxx3RrH0+7e4FnK3N61ITDg8wFRemtnAMjjYGwXP9twQtnipLP0w+fmR98jvLUdCSGTdsEb9RZY7OVpzQDeqkNoR1w2fVnV395Jn/oG8dJkn2UcnstuGC3Yn0VdWsPwyEzm8QzT+AhGT5dGeLW0qfwdt1nVXJ6PeFoA4C84VQGQ6CAzz6CQLA2oMi9HRbve+8bH8lIFsR1f7FTrznrRfEEVRN8UROUhdpczggJfEAAhA3e0Cj6j5FmkeaLtQCafhcBXW3sGQowGQ7cQyvB180nEddyCbDPJwXF4onxsEukZQCOIuBxCucosrMH/NyUj+jD32Z6XG3KkNh1ZYNbnlb06gNBvLTG4chgzTZhCcLwGmkul3vSHBn3xZokKKxxGAxTR9xZ+ncLLwzP6vjazdtydrdoQemJ05NmmbmUR2RB5882MksE9oEWB5LX7X7jG9iIktWihNk92thzraWByij3QMcaTw9xMrmiG6lWlU3Vj999ot1K+amEJOgDGhDiyRurtIu4y29Xac38jbFSDUY/VGmTjbCvL2SOWCORx28v0/2T1ua5xal82dWiB7wgEH9aZJBbEqyqd60+lM+dYk+1Mk4bzpkTZHOix4lYuWtbHDB4h5WmaAHIJOA1HF6Ala2WZrfSyoJHtJT/K/BPI0UmkjCCYjIBoOIRmLWARc88PSBlLCcVWyWQZ5+4On9oVben8QrZKaQc3pVUZlblub/48+nrKU8Lhh5eI1fFuuJYlCIUxhELNhrgC0ll5JD6djsOdy4jG7HDqFfxnL6+F9RASfkFk4sFIdcRBNWFnHDHLJkbfUhFLcstOm1myntjDibYondaGxFs1PxhB4aSkRao4HCDDNTCjyew1m+tJCn6XvxiDlhTXgnOwUyhq3aITjsyhDRoh4NoYiepq8q1j54ZNmGssv5YffFZWUGrXlYmNBuLaEMSHdxGAw9NkgF//I5AG8vDiQwDQZRMB1wqY12zPb5dVuuRsHTF9WsbM0wyZjJvsboRy+GTViEBc4gx09rwh58wwnos6aGdDRvJq2iA5dkkk+NyO1qU2WRTBt4OHKfgvfRy1eBNBz+oHQSxDCY3SmB2oYwn6yXf/YlbyTnu9ZrEi0bG8Mn0uIgFsrjJKyA6twKxCsfev5kWumAwemNmAyHiRlaA4iKiBTL6awhHMu24xcZDjEfUl+PSRJjZxw34kOPCFNGGu1aIQV9Y8IEly/07Wh6UTE7mNiUmIUFSA5tqWXBssUYQtMZGoYo4JcYxSXCcj3Fo3zHI9vVmCxnaa82jQii4p+8MWQ0pHhkH9LZozH/AD/EJIIk10fMmEur6heILP9P9axTXq4uPR8UjHJoa+4UqNy2Zr94cv0DeMsh8S65FcsGnDK1MKTJIOR6e8GRorZLyMiIi54cIp3WYBdKtES9rj2kI84qy1/SBk9raruh2n3e7s3Ou+XUt7pidSCimz4Ssfj4AKqlHTO0/0KLac02eBNdE44d3uRTlXKcuNDWq3NJDNo88FVLPClmvTkD8n1XYpYtYYTi2klaHMIbOA1FYgrjwsqkubZvZrojF4MPIGZ51E6mK/ZQQl2SRxRpHYSC6RAziN3EUaXq6MGDY3AL9g686NFwyHXvQDzoW9B11Ali1hFPvfUNEayJXYm8LJ5Tu5+y5GRi6dMv94Gqbjcy8UegBVKqu04nEmFtaM3ugwbbokq7EYcSCugpibBzLn5jMfqQM5qjBkwvJC/goFOLsNueUlEgLmHuqK4kGpubtAyp5hSrbvWXGx77w101z1/YTwhiKJ+wSFsSxP4RmNDb33T9C7QILH+JXV8jMYCmP8ibnltLozmIgE6C7b47r1DXOW1TrCaoSRtI1KlDkXgEZXmthTNBOIxlLe167woB6QCKtqJMdnrgDJLj9bu5CYktIgMy3mhcaGjEKTwE5YCrB/O0KV71VShmOAoc6CGJMcMWX4ZfOP1paE5IzJrfoTGdnvqi6U8egJHhABOGu0hGmxYtBcSGPckfP3jxaavtPMdyPPlFobq9FgulUjyfF8QFKxeMwmFKrqbzT8cfY5vQZwX8r7jwlg83dqakfcBelgQYxNj3vaVf7U/R7y/exK7EgqW8gSqjiQEwvskzMUqCqO2FIEz4ifm8svx18I+jNyWqWGy8zST9/vLB21BenQAr142wcnWjyugYSDlhB8IBWF/FHm+5tsWMiGZEzlBbrtObVn1aPWvcROube3wFQZagPR9kQsIZwfm4/XVKUJhSbDcNjCG42rsjlQF9JGLBgheh46v2+WzbPYRlp8/qmDU9oX6ump/edVHWhaN+uYCtFS1/OcdtS8EJbH0cO/Sot6WpB+pC3Au1q6BABsIZJLxH6hv+nqu4CgbkvKeaegPOeqNvbUxY2MOBFXYsGqbVhSJHESjlcyo79FzBJbbIsqEpcpLOxSsBM3Ra9rNcEhbOvKryHn3H6CD7okN4vhhp6iWMTO0DcQi9jMY0/7SyBRzhyUkATzZz/HgO50ljDiz3MHMDtuoR73OmQgIZe1kMXXW7GiKJI+kDOC6GdpszHv8++UPaNg5DJBLbw1JcWOqwoDolCY8siqFnliU4FVA+b/2IbNo6BZRrM0lpgdp/0kfvQtd7WG1In4vNTkKAnPpZfLteAuns7hIF4N5rQgVR0xSPesVYXorYPL3607fL4f2kmLIn+6pFJcPkLkcTiC7BZAciyjYXAAK7t6OPCXnknUZCT98NQZCTIwg4uG0ssAtCS8uhhgY+Wi9aHuKQdAMI2z1LTn2RlkgGTYbxnxMSItHPWPDEYrIcvwq9HexMS7AmQOcqnDmuFmrUD8SO4gs5osDKmMjgse5YDuUicjE/r018SR7sCKI/WcPiIMqi/di6CGaRTWNDdmrqB/TdWBd69AKeA5M9bs0xVLRj8AvUEluBed0xOcK7rF2r0lsRzodmnBh08p57hqAyfpfEN5AIZ3KUR2xNxjLYT60VgkAJPmP0lPI2OBGBeCrO/jGsfalemJDzCRrhCCppl4z5mtcjLaSEjAVJ9OLp7ee2X6S3WPESbVWw0J33lwUr+13xyR9CumtCSJPXZKe6XIpoqiiO5iZcH4F7FA/PN7BFwQQ/1ojV1FQlMlxN1L5YPfPY12qfGHfQcIhcNJrQlt62ktAptRNd4KGEa/l4+W0sQsUga9hmbwLe9vltzT3lJ9Dech66QAVWjlJkeA36jQXOIJled6fhGM1EE3GIIx5LTIoQNcL4YcN49dI96is0uiQJiceB8LDTMk7arEPHz3iGTzKfqfuOEx4ZMVKiSx58dn+Ysh9gEYli1CFxWJZl5pKlzx694ozllMZ/RI7O6jI4wef6PBv5DW/gJAES7gFe3DQzPlq1vg99U8M6btgqLKRYxvr4va+4ASfpFZ0AhhOJQbG6ftD4B5/fk+Jr2HyOByeNM+mnZ0zOh0UgPtoiKE+hYw6GLeTaxjSfuoTHFHU96eTv8EM8PRiblkg8orh+E94tUfvsMrI24ZuqC24tKyB7sYCAapHJDUjaDiR2ucHSMvagRxNQCKS5YuMSkYb56x88PEhJaEvviuljHapkhRTpBEPn8n67qiffwE8HfG+h7ZxynC9+/ZX0xzx0LJUXBDPxWKAfH92HVQU6Jmj3lfNiezNwsoitvnDCMGQ5B+MHfQz40CxY7yWCIBcsCS3BNS9s2FChX1UV74kH9Et7R9ETEXgwIow4dZJB+AZOFk2vD8cLKbOVMz7kCPnpXW5xy6rqW07WZYja6I3xEUkq8A1mMEz836f0bOxEFzcbT6pfzVi8qi37ZIMSmGAQLGq4jcYmLitUsF34587PvFtv5XAOyx8yzw1xEF0zNErtxCzAqROcLdGR9M2SICa27QgmmMzoKfhJCie0fRJQKGBHoD3KoGgZo5JXVr6eccnZ6yhpEf5tSSDxiESjhTOZkln81Prci+f+VU4ffGh9wv9vn9crpnpop58ZIx4GvM7mfNAKxUt6XYsed8umJ8Mr3Fr14GGvkVHikElvxluZZFQbFBDWgN5OAXiz9YCddB+dkm3rIzGeHdrzHpdMEC1EBxSV2vOu/Kyfw9bFl8monXrhDNIYjfe1ISYEEkliAEGrYMHBqIeXKg4hRg9MtGmIFKedV7zeI0sfiSAUJOdMwMccUYBbJYFss46za4UNTfPmyYtKJvA8WhLxk5PaICI2+G1UsDihN2am+TmDFB5yIMesYzbSLEjw5ud07naDUwIyN1FkUe6bkZqcFa62i0v+Jnsf4YpjDqkLeFzvwWwflbLr0QonpuyhWHJVHRucisrKnIIgMd3K0bFiVcWQsIH97+BGfIeuF9wBRlJgtOn3KB87hRYkJ/TO8+auJBoNm8BaxaOsM574su8lbxbFXX1PaDZTFmamuN0yS+BQVhbFQgnPCsDg0SLdiAvbZRJYhbf6+KVx6TXr37UwghCTcNeh8wvbRBhRtYmxg3hF2aEatGeDNHLbMfARSacBEJmCdoiK2gLvfskqwo5cWtD+ZWsy+soJ3TLCOZlvxZUjyW2YLjI6pK6KAlWHFpjQs1uYG3Ck28IVY4VJi9WA1/UqrSRjkt1aWYwMEvY9sVhCP/yvj7+ST3m99dVXfKi/nMQrjYtXhEOYf2Caj3UKtyR9OXvi2d9R2kI2iDNb0qyK7ZqVHnEjUxpqiMLpFwERpIwWvA06y6aIQfTTKYCZefo+Ac8rcGNKhI0P7YArxKwEiVmHXf1kaX+KxWaqdq/t25ZIfHhMwBHCIuyv8A2kSDLOdKtkEuNVP+W5YdUbZbURpl3EZn+Ru+V4PKHFQEqcffaLb+ZcfN2IRqHfRF3JbM7wYcsfXKdh6DJAVg5slJTmHWZtSDP6+KQjquXmuURMNC9Zmr/EkXFIMgtRYt6kNA9yAik9dPT0K1e2pnVe/cqraGnhZBZJ3kuWSzCgvfnwYjdDsMui2oDs8vVOieQ1wXpDKvc5lWwIMDo5hmXQ3UT7prp5d+NAV4jGofuBGSlvyYkYTH0EFUl5HHWu0BJpCcWVurGhcTSlW7BgLV1YZWPLKZotXtGUADQPP7tAm9+VFK9gjet4bQ+EQhxX2S61ihYvQR5AcavIgOKweIKo5lCI7yysqOBFdPgJJrVKg3fpO89txOGqjcHPaus53QqpmROCmLe2qmk4fVi+ZEmyffiF/zSFo4eTjwMXnBFQBBpZp1FTFa01/dNzbKYuKGhPvB1g+KUHblpCi4pwy2MFadAerWef89wDKfkn7NWsDnkxNTUDImicZtT2KN6WIY3AQl2LZmZ4paOqHx0znccgjeYAACF2SURBVF55l34hUj50j2OQIRcSzPjltaFYBDQRufdhmaRy2q5BtrjLLydPFGqXS/yBcgWbEKCBE4I2vTgpe/KVIxNWtbnUKwOVHJkgXluLaxrhPqLawSTa6S1nTDjjR68qfSJy8SUpZqFfx6ZyPYzl23A0cQKveNk0zmDNscRJ4B1CGpWJzYIwE9cT0ayA+21KNyI9pZXQqpPbWqsbGxrjMKC0Mcxz4z80oqA3Z+kS33zAKgJ17UnATpj8KHjymMoUt1pOfn1RLU5o9DkZSUItzWBGMpp/APMO1A2w2WDM27jRj+3AB8WwmQsjK+9t8Z2pgkEg9n165znHY36ERa/8/J+XbUOwxb/kP4qIhuyviMB9h0+szD5r9hnRtH3Ot9QMzSXpCqDisLfLFGOrYLbEoG/UYhfVPH32HoODFbGlWYVc7MTu6UZqUiAc6dpYBNMxpP8KZvvx9HZ5/frbxkaPGQXjcYqyccgzdW5NtpGeK9QAMXeXwUna5cudFMmr0xKN+/mNM4JAbML+cNrAFIuF0RN1Dkkxy6uoc1TMIyDw8KagZNjVLkWiEdaiJY687ek5fNHw8pIXDopo+gHkUohTO8oRIcdD9Plu9lUXfEHfHZfa3JkA2EZJRScPyDqSIF89EaGdkt3uNPqWvV/dMQWP5F9xnMOe7DUv4NRo3HJagbRuGB0A1+hrnnrLR58swVoNxBX+9acfLtorpJm7iAa+sucfMInBmiayxT7kD+wimMjP2U4+/NoL2V8Ro5AbUUAhZZ5875Nq3sijElJ2CI4eQNl2R+SUgzQi7Xn3qZZHD68bR/H9Eo2cmbFQuJbEZDA3SWht+AGvQy/CjPrq3Z18tsc1LiQyzGglGjazY3YonDo09DEr6MXmzN0JSAdQDnbHnHbKE2QH9PrgB5LReQAB0R0xCFSpWmWUun0EZxJC90nxJSPgfov2XgABbhAe4QGsZanYihqPSqp/Q1NoDCWvrm0+iUzbbeqjEomPhE7iVZDPPyh9em4DB2ZwZlrMI4nw990W8AJSNJwdQA3dkND68jdLaIrROkdpS5ych/TvkzrPpcfgmlmAxb7AywHJQMyKMWx82vf7NWsL6KMyTLaFpMlIVV3oiDAUV9iARXoHtBd6cAmbgbV4NMPvXcALGT+TxB8Oa1uhv/6Oe0fHYs/aqfB0Ozb4kdhnt4t0wYc2MUH8rWIiFYTCsUZPfYhpHEoRqA9vL6gTquLQppM2so3sCFS7wzFCGw6j9NsthOt2s2KQojiDtLUYtXMMLQgp9XsqS08aU3ZVLkHq9F9dtmdXH3VznLhg3Tq3Iks+E6bgqAtELNv3FNCIpULJbJbUttp2AubJK8/F7gNpoaiSlohpVDniEmi4jAZ4Lm+JxTiDNMYSx2p2/kTFELJghaUnzKwUz5uUZXvxip6PSU/nZQ7Ly6sHHHQWAmLb6NAuB2sh0WhyoazAar92QXm0D3edc/LKgFv9iItZWBGnd8gNa39WjLm9rDkWOYKnp8l2MMgLqmtuOSYEJ/N0QApFAC1cvYsV9IUH73EoX/9o32fw77fjD/WgA64Okj2OnH3q/WWGmlmGzWQAhO+94jCiOGoyGuEQb+66cOZ45YPPv+XaK1NWf0RbhMjfL/CVbEMkJIbBf23jT5dsR3CZ0VRzpBn/BlrkVIKxNWuyB8M5CfWiu+9SiqxLhNpetqbquTfiS18sDUBFk0EbkYBoVMee0xHOYf5hFuyabRNr+zoQhSJQI/pd8huqyk8q4OnoO8j3SgPELBDY/g+9Me8vLQltLxJnqG2QyNZeyfKy2Vee9wnl4+okXi0tKqJsYEoegQSk822rbfwB+DAU0XNAwYSAB5uo7ft2v+3MP9K97jeglcNWO75gzRNhJKIjT6jXPbrdV9achT9kwvfwCA0aObQ2iTbo0MivBJzbScK8SScMIbFTGNfPXhdq9+12vaVJfNXMcbwTkPzZT7QkJCq/Q29BiKJOCVycspua8BWX2VYDPo9YgegqmON3ggkMIw9keu3X/VApLlp2SrBNj7HqZRdzAVDCAj7vg3i5kElxFZTvsy8oIzlYHDZ+YauksE0F7eCPxBWr1ruwUgzrcNSLF578BTV7RCGyV0aOLWJ1AAzNkZyHwNnD2xA7SC0M8cXuqSDvKB6MGLXheJ/vflp/J+0hxxZVFIBMIZOSCbsXm6/AYDqD9qq8s6+qKVN4aU2yrMHMQ6dh2gnEHsQh1AsakmjPQZCzY9HrpONXEn+ScOakQ8zSYjATEaA5tsUspJFpGy1Gt0NPvOPh/s63X/zww2FhS0qDtA4hhQjS0uGwQrFiER2wv0/pdp84UQ1upXrXyX9rrg3pbk5Qmh5ejF3JdeBSgGO3UVs+RHogfNXDEUUmKGlnvUH2csuTM3TSaSQ/Qo3gpd1ofJ/FVn97SFse235n1dWl6JVf5MCUE8yAn9YpKZ1YAXgV13zKveKJQdB4ok1+Q0HMxaQaRzB0ATU5x7JaCvOzuP6639ChXVbsiKH7fg3OWCy5iD9sMYv2tpNXxIZEQvjvqqoUWrXgphrUsKBOEarbzBTfHMKTsyjYFc6K8vMN7Cqk+QW+sxuYA0EjCFq8OZ7o43xXQwePdhGKkkaS559/ytI0j/oZiVnIzxGzsEBiwEzbnd4Y1fhmL8qipqHlxEYc7aRKvCCKMkWMkiDOLwcfkMeVCql7781HTHrZrYELJlj80DU4Z20nu7QrFESHOpl6TV0FF1+y89L4yCoK4ue0HwSIIY06Rx3PQvKB9WvAIF/8s10223wbbag4Wt84i4mug8AccGRNJfIgiGGIJ6I79TV6jPgO+kWc2UAC5h7CSGKKPxVTBklG70TVcmrG78A1JGPYQ+J8XuOf/UwYNzwCde9bColZtJ0EgTKhihJTpNNBVU6gvh+Ta3Thq04+9OgPKTor3/ezEerWpGgEJBl+WW7khpQO5vAN+krQOCYFugH9gm3yHqpc3ga7Ux6uzip3gSAkUr2et/wuFat+yNFOTQI6zlxAr8fP9aXO2XJVQrkQJfUuRhiKQFGQbOC6XFXeLhk3DqY3RdLCpNVwu6K65da7i48Gd8ihGf3QH2O9CuTXkXjsqghiFVbU+d4dK4bjohBgUPp+S9xMcDHHbhLEEsdAtyD3Y7EVrw+zInV5lHZbA5AjRFbOe4DskuFKA9mTISpHronTGiDvSV/BOfenAEjILyr7WVt3LtdpRMq387ud8SxqqhDA6RQQxomm22CiSmIfBGyCHMdi8zvCZ09oeePhQPa34d0DBlZtYhYlplaCkRMNvAj2IEXrHz5Vnlc8Mi/aantlJ2j9TRIA/040jSaScogpWhPghsD1SqIMn69crZm0o2yfhN9zMQir3fTQPzP1fS+ckeCEHjdydGRhUSeP9qZ1JKW5rfStkY2aOVDB7kNbvAIDQXklavFIH79nLqUZFCyAbVdHeCi+cwBjCXR2B9/DkRT1Oqf5pWdfZDavnxmvHed3Wa4EoGrXUIQT3gYYo/lYQxurlmBwoHz7XvzOxzBX+ZoMS9sC2hiKLsG1G1S9r7Cmb96d9WuIMbZu8aj4sjv7CT6MHuSQDs1OVIQ/OueSSUrKTF52aRHZw3VoQx7f7odeOgkc/PJnZ4G+XdoddSvXx+DRHRuWsGhOkwTeGFQ4yf1xDNsOIOXOTbsrRCChDM97D+q/cOM3P6yIuFxDyKQXhAG11s8DKgvrRpNlBVJepbdjsYn8Ta7H+nlaCF/AcTltbrJ9S3VKgjJgjyV5V0rcxjrR5mGxU0I8FmK1uxxbBI84tOCbH9Zt/KZas/az9DjVjaaQsgHrXl2W9gGhKJc+9NzJTVhbwIInHlEI/sPjC4MLok/L/nYRV+8OYqP0ip8X0yEmGOQoRHe9ElSzEtmUS9yD+9AA3/jUIfEmHsBYadkXlDe2fP5gTujr1y4xubUGV/Nyhgfs2O7CpAjEGMHlfp+yyc8fIRUUlyfWTh3hyZu8ICrK8nOQKA/GK/oG8BBDoamxYCi49mWRhbcd6x6w9/GI32RL4F2Xwaqs9G6cd+tcCxZ7ogdF0MlUEKYBDZjDUpoS6qqcCZNnsYshTW/B6EGFoE6cSRympWeRhiIE7y5ZfFmCJVXxFLfZ0O4EX0pn5zmFsmRsCspKziEp3mFIeuWkIyWJDHWmi0xrKQEuPNCVIDLai0f2qw6/BUuXcjc3weLj648LPvQeJrZDdDoF0gahQ1qUSmop7Bs1qw/ea8/yZ/CWnD53TNTuCdbDbFE5PL0b2BNCfOtAl0xDy8SKmLIYB3oiJkQeFtt93eG28NZbyWk1O2HIkOYL73tqXiDO9gth/QZrHJQtt9vH2O++69/vjN7Q2HJ8DBN32JmT/scwcYAmKRg8buVlnilXKozmPXSHQto9OE6aiSFktd9FgivtW+HMp+ezCYsilMxCL78uZYQ0IH0PrPKFiWgRCvhvRbhCdCW+E8OLFxmw/uVbDUJfv/m4Xwz3g785Elc5sVBiakh4VQGOpOXxXUe8Acs3yKwuLsYMOMC+9u0/9NGqNYuvciviIHQ2+IrQhD+4BxXUbGZFFrKGt26aa21cO1TIzltB+W5JQNlK7Wu3f6StfdQjpo2FIN4AyCRMZomQTN3rdkmakHUDmc+QBbMglG+6rbsosD3BhmtreQr9y3JLuIAPQ52IoYsMEIVF19ZAuCqfIkiFQey7IdQBWqedQPwStkcLtLUZL4QyTJOL7M6EyS4tAacENP8gxNnoI1oEgLT8kGy81nI63LSKLzDTgEr4HTkSvxTDhxvYIM1ja0PyfLGQiH37kl8lNemhzbR3HKbtXAHQIVPngWQmbBU0ZdmgPrMzRghNsATzrqqv7nK0crKha5CLiWQUWK6ned3zvA0tV2H7lxtzIcxhSQSE2AIcwN3p3TUt0d2x0AnouQxlCooqganX7ZWb/cq7yGvsgRnWm7Mp164DIdg50Uny7HpaulA/vaaxqaX6sRNes2T3c/rQXd4XRpL5DQ1GfEBKZkRjccew4YWz97Oaa+7zCI2FIZjxElBI4TQUl7VkiDGi5Hlo8OhgjEYNWAsjbySC1TB/HlcSWf/w6NsVSZvFzw62v7azgQM5wTucmc2fsupXJiwPLXnvaH/+UaRd7IxuyrI1RNZ+3b/mxSvnJ9ZO301MPRbM0UTvyI8BGt4MZ6WoPux1Kc295IUXkRF4ZMuYoxW0ZEnJZytwwIEQspaxITNsRxOd07UCtokbYo5knVqZFHkYDDpxCrjX0XnB3xKfNlMvQn88yKmKrAr2wSp2DBiDJuzUFFhBbEXU5bA5KrdTdPgdln6MuAjm4n3TUz+raalcC2O+PFiLEuFzTYqTmFhWRabp2NNOcUUF+fDL5rzd9BVe3q0weXTsEGytm4bjGbRohDNi8rDcDqnaPxQFC8WyYDkbPKjfwh+qa1fBBH6wZWATJHoPA2ziVyXr++r6/ZtgQEvujgAueVuRqYdOVZQ3Zlxy2jrsB1bmTpyYECZNap91h/tynKY0mgwQV8x1Vc9/+BoDbsUsw/IHxNCZoUjTmdLXtcurSo77FL3PF2qfPZdbSs5aOQDf6+5UpjfidC2tZYDZtDzfjDQeZdRVjPG7GFy00hjPzzSiyRgxBv1qqRifmhPigtzL3rqfgBhw9XFxNrmN6QZcvSBmLUCjXzbv8aqHjjg53a+cVN+i43RdOkA0GYww7AvycQTb96xp7tHvRb+dNL/hi39fnZbZZxkbVMhN1LmPrvEnusPNkd3jP358fcPLp//ZSvwAo7HRICXUD8o12tmMziaS7pN8tRFxmbTnwRcxNhe9U1DAX2txTrFdXSmRkxATGRHrU1TVDG39xjerZ42h80igNGlN0lUWFEfYIZ0n/HoI9/e96O1niTmaPpmakVi37AkYVA5B3mswSBQI/vRrFa35s1hTw+NWtHKKUPzZPMqg+plzpmNSvr/gUoplWYVVJ7aHtwVAQAwHSCGCbFaUoG92PSbdXFTC2COXFa8/5u8PfBBh8lkGVsnb8uN3Fu0NV4xE054DBr5HMQVsqb4F/MECboXVRTsyCFc9EXzY15UnezEybEGAyphSTRxzeOXJd5Z8ArF2cCISB/VgjgGKiRu6sOCn9XyjGJKhm8CIJyGA2XOys2bTtyOu3hOD488sa+kVDzR6OKLExk+fm9TXE963ut5oFkXZA0+S6OwFAZs9hkpieCjm2ufGN34DLfPXUbyB8TTanqRJiNoeOYEOCguYEqwRoqReJHCSIzI1P05TSXELrqYYq3Gl9immwpNuhjogCl9ZMKeHh8hyJvgHndkQ+unLdJ88tCGik/9PdGCULRCJIwsE10BotrKYtn76KIwMX0aUNMTtw6pKTmbV1ufM+s9/IJV9R0VBNNsXzq9H4ztMr6gzhRYQxBtP84jehqiwzh3IOj5jdLDFFmGCrb0x//gXfpIQcTKHLARatuArJTqSugf85w3Dr53yceJIdKE29bklnF0TH0LJ5hUyWYcTZyk9qwTezW+ywuvHiKkD7/X32+vjuvl/79d/t0NGbdiYMRNJh1Y+e+YuPm3jxEikhcXrwwERSjk/xxP1SRS4FEkqIwjnhn2uFkU7q9t03z5ATIKrHVtLBBXqu+RPFzbwrYuGlBYEjb3nKqlJ59OedlZYKHPxrH1Gm7hPdakkW3QIRC7k5E4Bz6kBuIffgmAbFZKYhZFREj/hjuVMPspxnS8Z9km2+he5k1IPkxBMzrH//p3Zk87+FJ9JMKgERWxZMPVwRXWzFU/3u2CSj3kMcICBSo8mTCOEESEKyzCmR3AedNQjGyG/pNX7ZavFK8B1ZwSyEKXByge6Zs4cRDcUqEvV+/hFV0hX1il9+h/e5+yX1nHmgPxsJ+n4K9BohjlAzrlPh2Vv6igcw/Zjph+GcbZ1MFXT/oCOLBDhuMMzCsQ/EpXfFWsldcyMLAH/QMkAahXdh+DdkWAkrM9SepLAAR6sERJwku1q0pTFRtZBQzPOLVuzAto7tomNUR0h7PjUoa3RGdBzGEMJ8EGWyx2uFOf8Oe8i6OngYslqikAzmTxifPeTipTmz2ckMo698w1YuL5kYRdz5pJHb/IMn7CGxTb4NobTo4IvR103o+AoKRE5IKxJsB5TPrOM5lQR+25gPIPQOnRh/KBHyOQ4szDE3xEWk6vbyef2F6ugoIBrVfr6fR9LurZRUNG3w4kDZUN/5OOQduGl+Tx8ojts6J+dBm+fT8f7Bvv8dcwT7M0hNoQ8P0pI8EH7q8a5K42On3b5RGPixFM5nFl9At8ouhaHrRlibeM/AsjuqOlrPhaICpR4eX1SZ1DMiKlTf3HlnPfYyAZACrkXvFwmDxw+qEnzzARGdYhDULoJJLMimUiUBT2yYOCAHefP1ODO0rTQLcG+irJBk5CoQAHPzMKoJ6b5ZGgeXa97Buy1b9YZLy6fhw1XNLnkqTbxQ3MASpd9wdxqNS31wLqw9d8Mn6KoMrcSoLx5edxwwCIlC6og+SyciQ5L1lz89cV9KnpMrK+QcQGlofbgcgZVSJD4SVqGnqXUf3XjumdOHTBk0so4aYmovsEg5EOk3gR4YEzSGHKsUxI77w5X6iQ2/2fPoTlAvCl58mSBenqNJaeM4OXDmTTfDlC723F9eGFKBnyT6NXwkvSg5Bp4H1x2/gkjeQm2D8clJdsl1kViqThmhtY8VKyY0aYDaiEVgzyrDUEG4SEoOIt3yTI7XLLsBmQzrzxrBXTfX6heP4lpbkzKgTr4jZZxFI4eMwvyMt+mD7fGhikajTcaaEeoF2R4W8PiBWQc01JJKgeMvrpEwmbwDhB1/eC4Jj0wb/Aa7BHZANioSyYC6RCohWjECyjKvKevOvctevzk6qt/UdykTNAK1MFAumBS9h/uqc4Z//alkjd9j8YYu08zhdoAHID54AdbkaHTgxUDmp3/oVo0xyVJgiQEGjdg0S9ADBbhIkiCplPCBhZhcZPuPT330vfGpZ34cAOJMDTfoXJ/KVA6St/n7Deb+/3lo7GNMWF8whDX+aHe8rlEEcxCB/BRHwFZgoQbZNvhD9M1srgBlJiuAVha2Cdi5viDogdWxYLRN81t3Cw2bVxRXXLM9A0vnLcb4QIMQmu9xAR4bAtSc8J+1jVRxXoy/SFfWcbx8Vv7h7Kxx8cAJWOXTzIvE54H2kpz7gCmZcC+jSsUQbmgKiOeFhh66HNuKbGPGQ/tAW/Tj6Puu0GJm5BTFFnzYU+pLvmbUV3suqPeBOSNdjQ1ma/MFpXiAFRCxyZCefBWgxUtkTDrNnDY/X9iodD/t3ftsXEUZ3zm9vZ2b/fOztmOsR3HsdOoap1iUSWREPzRtJQKoVIeqg+hVHHTIKMmMdA/KCqIcoGKSKUSlDRpk0CTplRCdtUqBAqldWKKGqVN0j9oz6Fgu8a4fuGc48c99u52t79v7i7Yl7PvkiDl7Gakvdud187OzPfNN998j3UY4mmQLATIcBaQLCvFYWLgvjuHUAUwSuCiSZlddWYTH4oaH9Vq0Dlx6aS4JT4Y44j9uel2Ky4bmEts0onY7MmuJOv5rptusojZv+VrG86f7D471hebriPMRYT/rI+jWzAsLVbu1Z+hKjYGDpIMUUEAQvkpkNAgbW7JJfR133m9D1Hfg9/CpyIzcb9pJb+JydYEEfUKzE/sJTEr0Qa6xJTDH6HeaBxGT202YJhQTHOor1Rve+sokohNjG8OMO6/RPoeilliw41NM//u2wf+czzwa0fPyU1WMtIMs6xfRNWVbswF6g9cNOaiX6hZkEaidZVFIKVtyZUT0Izzee0RRyQBi66WLbgI+LHBBIDsHFN9LqMtFOrbPnTgtl9yd/lz1d/6TTfqE0BC//QdZuNq/J9hEqydAAHSwZSEAyciPoE0aFURxAxlnRMojSIy6XOfIXYLc05hyaFIXnG+j5z1uMAIQ+AuzeCqb8biKYlxadkGoF51RLuh5b9DuzfswsJ9Vq1s6DWm1ElJdif5z/78t/KkI1HhABlAUoFwwApTu1hTIKnIw2xUsGRRL+oWjRJvyfOz7/Rp2ed284loStvOGHvD8eDttxdMv4vqqXPQEXuOBz0xc6ZGBrOJ2kVpTtllE7YzoMulV7iGHli/PkKdlemo+ZpH7UJejIWtbdv9cudfRqZudBgRA3UpNPgU8AKgMpUkFY92PbXjG2xdqwyjYAuSMKmS8/8S5sYuTuL+4AVuyODvtpdL472r4TdjteR0eKEi68PA6pDkhHymaxI0zgRsC/UkfBXvrvR3CNYtvSEII3RrZ9Uz/1sXTrFRz5z2/GpzuSM+2ogN5CrIUFThIHUFFjGcJjrAzcPK4dInmLPkQ8zjXs+XHgyaA+9dH+v9w6NOM3KrS7JgqIP24oKBgTKYKzbHYFlKhVdm4xEMpdP9IlSFnq9uPRokIBXkV3rMhk7v03SerKGNUcx2YiCxOl1mUFDeQHkFXLWYZI0va9o2MRuQiJvl0r2lalPpAOd+c+z4Ho/mTuieGx8ezbwSnA2cQ61YPjE9PeUkyx9IoCtnKGTiZRekSZgdl34uHNDSGASTnlaO9+epT0QX2sZ/nRgTq82p3qHyqJGowX6OeQRaS9WOYRQG87xAiDesqXu0C9GtrevY/gdS6Zf7Syq1KCs82pIjy/4Pu5K19+zJ9PupfPXakM7tKavja9regBXGT4AsX7mF0gk4aKL2r+py1aM9vOUwteed9LVQUaS9TumddA0fvLs5YUw8AWed10OnSIY3XcxuYHhuA+lw++NpmDqxLa2qzHH/8Lko0f+bulkH7cWIxY6hE4iN6J18BACyXHqYPTfS9zjuh+luhPQzza8Zumc7Oe9obEazxMosAMZJLtO6GW2yg1RmbmhuJrI/Lzk0pxBedMGEToaP2wy2Lk7dCyGtZtdFHQhqwMEaO3LQkumc3d0Ft3H3P/4uMNNrJ0+tHwjH6hhETGCi00nSx1iQQEbYcdmtK1Wa/Mzzm+85y9raFPg9vLSVb/YHZN1nAIWiibPUA3UzNe3PIyureIw5l1lrqjxJcsgpxmf+45dcxfPGERZHJkE6UnsY2pPxL5Kt+VePjIPwDkXx5+KfxbmX7qz1PxfnYEbYwfYjoycOPmInww/5PPbyMPTkQYmhXi7jSzViA4+MJyctueRZalQjgJ2zlJEMGmMCVNaYIp+7KcMVhkYqvxZXMAj2eYoJQ1HiXWK+d0uN/kAKQOndYNwhjchE5mfC6zDGJ+BkG59MeQajwks5EHbw79yrdwS2E6aQ7v3xS2//e8q42Y5FDdDLCnAYPt+OQQtPrVKk4FtPbmtChwFe8pNtS7nf8n0bTezh6qNqTVqEZqx96xozNPA4+MKbYdzOAasrVEWkVJO1KUvfW33/m9s/eIHBjten7HohX0OvIH1+zHwFlV6tomsD7a6SkkGpVjSglg1+NAgnIYQ5vgASJ0hLKdv608Mv9M8kbk5Gw0mcksuCDwm+JZiXqg/raFN9TQsBx0a4byCsIqq69pOzB9IrUMSGqm//8H6p0v8SkUlbRg7d9fJ4dPIxXWFfKXVzbXiaj+oNn3+CsTfZpNKKVWt/zvqKMfKyN0NF+DEL7m+O/LPvuiOd7+x6b3x6SygctTWngySuIM1rw+05dN50ja/0Ki2///7Ww4zcP2drORbhBxdbk0isv35LF53SC5bH8P5bv20noj/gsntXdeufDlE6mV8ttnYv1J6lBCBsB4xmR03uU0t0Q/eothxLuBLxaEPfuen1cAF9Z8hkqyZnZkiPJAmOO4DDiuO8UZI1HaYGko8ce7rtJ+gsbOSJp5ViJS7UedfSLu4B4gD1H+pyZQAh1N5cWubvmEznXBCJXVzb1Y9Z9AASAB2Mi3rSumXn3lcjCesOcOYjZI0EltmhdSopEcx5eJUCOBgmibjj1Io0xCCQYLtV3cNKbPPxzqd3iDMPYgpAvu7SGBNXfxyLrgVkK3jd8BmbByApi4AhQr/SGdviCktqD2JYthvyASweiWjEvKB1HuokAA/ISuLAEra+ZBohHNCFoSSmw+0Cc1vxhzt/9JCQhmXN7bCz+wnXY3ENZXG1lmwFi2UYgLJz+AysVi4+4KAeXVIAAoHDuGlAANA2w7COAw+vUOeg40YISLidMFNqMRP6KpLi8ek8NhOq0pWW3z7W+hp1xL59p2WceQDb5T69pTy5AioX9HautP/3OLEXySMnVux9tOhJrDQrlg4Aza/vOvDqeVu+Y2xyCmLiYbZcdhJ0sDBsqH4AdTzolnOfJofhtefF0LN7f4izKSFKU+yDdK19V68HFj2AUNel9yHWz//418pj777/Vbh02wQJp9uCH58npRu7oczLv/yZFVbd8rJjn2tY+Yum1bUnUIzDMLWiqiox64lOJuorc9GqIKgx/NP97AuPF54z97n+Z8fRPYVcq02uuFTuub+F5ptbqoCna6vg/J30P9HBHIeaY8xDAAAAAElFTkSuQmCC;" parent="1" vertex="1">
                    <mxGeometry x="249" y="705" width="45.59" height="31" as="geometry"/>
                </mxCell>
                <mxCell id="186" value="" style="group;strokeColor=#879196;strokeWidth=0;fillColor=default;" parent="1" vertex="1" connectable="0">
                    <mxGeometry x="12" y="104" width="120" height="76" as="geometry"/>
                </mxCell>
                <mxCell id="182" value="" style="whiteSpace=wrap;html=1;fontColor=#666666;strokeColor=#879196;strokeWidth=1;fillColor=none;gradientColor=#ffffff;" parent="186" vertex="1">
                    <mxGeometry width="120" height="76" as="geometry"/>
                </mxCell>
                <mxCell id="181" value="" style="sketch=0;aspect=fixed;html=1;points=[];align=center;image;fontSize=12;image=img/lib/mscae/Docker.svg;fontColor=#666666;strokeColor=#232F3E;strokeWidth=3;fillColor=#666666;gradientColor=#ffffff;" parent="186" vertex="1">
                    <mxGeometry x="67.15" y="12.5" width="43.29" height="35.5" as="geometry"/>
                </mxCell>
                <mxCell id="184" value="" style="points=[[0.35,0,0],[0.98,0.51,0],[1,0.71,0],[0.67,1,0],[0,0.795,0],[0,0.65,0]];verticalLabelPosition=bottom;sketch=0;html=1;verticalAlign=top;aspect=fixed;align=center;pointerEvents=1;shape=mxgraph.cisco19.user;fillColor=#666666;strokeColor=none;" parent="186" vertex="1">
                    <mxGeometry x="14.16" y="12" width="36" height="36" as="geometry"/>
                </mxCell>
                <mxCell id="185" value="開発環境" style="text;html=1;align=center;verticalAlign=middle;resizable=0;points=[];autosize=1;strokeColor=none;fillColor=none;fontColor=#666666;" parent="186" vertex="1">
                    <mxGeometry x="28" y="53" width="60" height="20" as="geometry"/>
                </mxCell>
                <mxCell id="188" value="" style="shape=image;verticalLabelPosition=bottom;labelBackgroundColor=#ffffff;verticalAlign=top;aspect=fixed;imageAspect=0;image=data:image/png,iVBORw0KGgoAAAANSUhEUgAAAEAAAABACAYAAACqaXHeAAAAGXRFWHRTb2Z0d2FyZQBBZG9iZSBJbWFnZVJlYWR5ccllPAAAAyRpVFh0WE1MOmNvbS5hZG9iZS54bXAAAAAAADw/eHBhY2tldCBiZWdpbj0i77u/IiBpZD0iVzVNME1wQ2VoaUh6cmVTek5UY3prYzlkIj8+IDx4OnhtcG1ldGEgeG1sbnM6eD0iYWRvYmU6bnM6bWV0YS8iIHg6eG1wdGs9IkFkb2JlIFhNUCBDb3JlIDUuMy1jMDExIDY2LjE0NTY2MSwgMjAxMi8wMi8wNi0xNDo1NjoyNyAgICAgICAgIj4gPHJkZjpSREYgeG1sbnM6cmRmPSJodHRwOi8vd3d3LnczLm9yZy8xOTk5LzAyLzIyLXJkZi1zeW50YXgtbnMjIj4gPHJkZjpEZXNjcmlwdGlvbiByZGY6YWJvdXQ9IiIgeG1sbnM6eG1wPSJodHRwOi8vbnMuYWRvYmUuY29tL3hhcC8xLjAvIiB4bWxuczp4bXBNTT0iaHR0cDovL25zLmFkb2JlLmNvbS94YXAvMS4wL21tLyIgeG1sbnM6c3RSZWY9Imh0dHA6Ly9ucy5hZG9iZS5jb20veGFwLzEuMC9zVHlwZS9SZXNvdXJjZVJlZiMiIHhtcDpDcmVhdG9yVG9vbD0iQWRvYmUgUGhvdG9zaG9wIENTNiAoTWFjaW50b3NoKSIgeG1wTU06SW5zdGFuY2VJRD0ieG1wLmlpZDpFNTE3OEEyRTk5QTAxMUUyOUExNUJDMTA0NkE4OTA0RCIgeG1wTU06RG9jdW1lbnRJRD0ieG1wLmRpZDpFNTE3OEEyRjk5QTAxMUUyOUExNUJDMTA0NkE4OTA0RCI+IDx4bXBNTTpEZXJpdmVkRnJvbSBzdFJlZjppbnN0YW5jZUlEPSJ4bXAuaWlkOkU1MTc4QTJDOTlBMDExRTI5QTE1QkMxMDQ2QTg5MDREIiBzdFJlZjpkb2N1bWVudElEPSJ4bXAuZGlkOkU1MTc4QTJEOTlBMDExRTI5QTE1QkMxMDQ2QTg5MDREIi8+IDwvcmRmOkRlc2NyaXB0aW9uPiA8L3JkZjpSREY+IDwveDp4bXBtZXRhPiA8P3hwYWNrZXQgZW5kPSJyIj8+FYrpWAAABrNJREFUeNrkW2lsVFUUvjMWirYUkS5BXApUa2vd6gL+wAWjoP5RiW2EUBajAiqSuPADQ0w1UUQTrcFAUUSJEKriEuMWFKuJIElFSS24YNpQK6WoBbuAktbva880M8O8vnfevJm+CSf5cme599xzvnfffffce17AJFjycnLzUVwDXAgUAucBY4BMIEOqdQIdwJ/Az4J64OvWtoONibQvkACHgyiuBe4CbgLOjVNlE/AZsAmoBSE9viQAjueieBCYC5yVoAvWDKwHqkBEmy8IgON09lHgXmCESY4cBaqBlSCieUgIgOPDUCwBngBOM0MjXdL/CyDiv6QRAOcvR7EBKDL+kD3AbJBQl1AC4DjrLwaeBYYbf8m/ciu+BCJ6PScAzp+K4nXgTuNveQuYAxK6PSMAzo9C8TFwtUkN2Q7cDBIOx02AOP8FUGpSSzgf3GBHQsDGec7unwOTTWrKDiGhS02ATHjvALeb1JZ3gRlWE+MpVq0yMzIekRk/1YWP6o7Ors5vHI8AXH1Odl8BaTbKrwd4j10MTAduS8JqkKvA94BPgN0A56htNm2OMyDDKNhuSwCcT5dIrMBG6S4oLI1qezqKBcBjwGiPHW8HVgCr0W97VL/fobjMpv2vQAnaHgv/MdYVXurAeSNPhggRw56BQatRVgL3A0H5+xDwI8Dw9g/5Hlq+clmdDYwF8iV0zpb/GP2tApZHOx4m2xwQUCC+VVqOABg+AUUDkO6AgHkwaL2DJXORxPVNylUnw+gpXObaLXFRlxHoaw7U8uoXQ99vViNgqUPnKQfsKojhdW7GuxDW5JUtIuni432hH4JhLJ7Dq6qwcZiPZnpNXDJPfI0kQEJbjVM5PiIgW3nhlkQQILH9LGWnV/iIAK0ts8TngREwDchVKrnKRwRobckVnwcIKFcq4ONrkY8IWBT2SHUq5eEE3Khs/CRm6Z1+8V5sqVQ26/M5gHuhSJ79TqUFmIhOj/ppwQ8/Rshqb5yiWXFQFhsaWeU352UU0KaXlc2mBI1+Y3OzjyO/Gm2kSAIKFQ2awfQ+v3oP23gL/K5oUhh0GPiEZG8KxP97FHULgsqwtTUFCDioqHsGCRipaHA8BQjQrAcyg4roj5KVAgSMUtRNDyqVj0wBAlQ2koBuRf3xKUBAvqJuN1eCrYpAiHNAltNjpyFYDfL47oix38wdmDA5AvYr+kjzWRgcLVcqnKfsJwGNyk5u9TEBtyjrNwaVgRClTPKA/Db8aVOZslkDG2nD2vEuOkqGlLmYpHcGJLlJu8LjtvJFgx06Jvnq8xC33gUBeUE4waWjduua5wdVPrr6VS6cr6PvoXv5Ixed3g3mH/fB1V9OW1w07fM5IEouUEZR4bIWWJzsTRJ55r8I3ONSRRFs3hsIU8hkgkkulf0CPAx8qElQcuk4beYp9Epgoks138LOvqSPgfyAzIwMZlnFSobgIegc4H3gH6AkxmKDub9Mjb0DeoYDrZ1dne0eO14AvfPx8RXgAYaycahbBvt+GLgFpIM0md3PjqrMTMxpYKxB6p1v+s/n7bbSuMCqldmZyc+fRh9ND+IsAxrmG3C3qtj0J1uP84hLrnwnwJbjEQRIxzw0XB2jER93C9Bog9TjsRgzLpzuJr0BzHV6e8gwf9XoziqdCv1YE/oSTQBHwfem/3w+5syPxuukLtfdO0zk+WIs+YuPKLQ7ohzyWTIix3joPPMTLg1d/Yg5gIL7ogf32U/4WGGhYDr+34J6bUALPpPA62w6XYMOP9BaCv3HoD/PeJubODN6U/eEq4cKTIurttpBAZ4L+87TmKdtOt0ah8FbPXS+WnyLEKskqUy5FaweM5dA2e6w+pNkZuajhfMD3/zYBfDKb3Y6+cWwgytOL7bh98nQ73BEgHReIvd4Roy/a6Cs3CRYJOnq7zjV8HWcybC33mpLLKZIA84FPRYhcSokUNL2Civnjd0MjoZbUCy0+PtNkDDD5wQsFB8sxWm2+GJZd8eSt4HnZXnZ66Nb4CHYYxuxat4XmI1inbHeczskq77DMrK4z8AgK3+Q/L5EEMBn/PzQos0zAsQgvg5XY3TpNKOTSAD3NsrQX63TBqq9PVHM9NgvfXi/06ZSjfNqAoQEHj9Pled+pw8cpw2co6aKbSoJxDlJnYniKdP/sqSVrrEw7IBL/TnG+rSXEy7fYVoG/S1uffDkzVEYypB1qewJRCdb5rp9yxN6mQDZFmOS2wisCIXo8Yin7w7LiKiQEcFYfhOMnBmnzo1CLIO09Qyt47niJxDQ29trTmY56Qn4X4ABAFR7IoDmVT5NAAAAAElFTkSuQmCC;" parent="1" vertex="1">
                    <mxGeometry x="47" y="296" width="50" height="50" as="geometry"/>
                </mxCell>
                <mxCell id="190" value="" style="shape=image;verticalLabelPosition=bottom;labelBackgroundColor=#ffffff;verticalAlign=top;aspect=fixed;imageAspect=0;image=data:image/png,iVBORw0KGgoAAAANSUhEUgAAAMgAAADUCAYAAADZTGx+AAAMSWlDQ1BJQ0MgUHJvZmlsZQAASImVVwdYU8kWnltSSWiBCEgJvYkiSJcSQgsgIFWwEZJAQokxIYjYWZZVcC2oiIC6oqsiLroWQNaKvSyK3bU81EVlZV0s2FDzJgV03e+9973DN/f+OXPOfwpz750BQK+eJ5Xmo/oAFEgKZYmRoaxJ6Rks0iOAwD8yMASmPL5cyk5IiAVQhu5/l9fXoS2UK24qrn/O/1cxEAjlfACQBIizBHJ+AcT7AMDL+FJZIQBEX6i3nVUoVeEpEBvJYIIQS1U4R4PLVDhLg2vUNsmJHIh3AkCm8XiyHAB026CeVcTPgTy6NyF2lwjEEgD0yBAH8UU8AcRREI8qKJihwtAOOGV9wZPzN86sYU4eL2cYa2pRCzlMLJfm82b/n+3431KQrxiK4QAHTSSLSlTVDPt2M29GjArTIO6TZMXFQ2wI8VuxQG0PMUoVKaJSNPaoOV/OgT0DTIjdBbywGIjNIY6Q5MfFavVZ2eIILsRwhaDF4kJustZ3sVAenqTlrJfNSIwfwtkyDlvr28yTqeOq7E8o8lLYWv6bIiF3iP9ViSg5TZMzRi0Sp8ZBrAsxU56XFKOxwexKRJy4IRuZIlGVvx3E/kJJZKiGH5uWLYtI1NrLCuRD9WKLRWJunBbXFoqSo7Q8O/k8df4mELcJJeyUIR6hfFLsUC0CYVi4pnbsklCSoq0X65YWhiZqfV9I8xO09jhVmB+p0ttAbC4vStL64kGFcEFq+PE4aWFCsiZPPCuXF52gyQcvBrGAA8IACyjgyAIzQC4Qd/a19sFfmpkIwAMykAOEwE2rGfJIU89I4DUJlIA/IRIC+bBfqHpWCIqg/uOwVnN1A9nq2SK1Rx54BHEBiAH58LdC7SUZjpYKfoca8T+i82Gu+XCo5v6pY0NNrFajGOJl6Q1ZEsOJYcQoYgTRGTfDg/AAPBZeQ+DwwH1xv6FsP9sTHhG6CA8I1wjdhFvTxaWyr+phgQmgG0aI0Nac9WXNuANk9cJD8UDID7lxJm4G3PBxMBIbD4axvaCWo81cVf3X3H+r4Yuua+0o7hSUMoISQnH62lPXRddrmEXV0y87pMk1a7ivnOGZr+Nzvui0AN5jvrbEFmN7sdPYMewsdhBrBSzsCNaGXcAOqfDwKvpdvYqGoiWq88mDPOJ/xONpY6o6KXdvcu91/6CZKxQWq96PgDNDOlsmzhEVstjwzS9kcSX80aNYHu4eHgCoviOa19RLpvr7gDDPfdaVRgMQaKRUKg9+1sV+D8D++QBQBz7rHJUA0OE34cxcvkJWpNHhqgsBUIEefKJMgSWwBU6wHg/gDQJACAgH0SAeJIN0MA12WQTXswzMAnPBIlAOKsEKsAbUgo1gM9gOfgJ7QCs4CI6BU+A8uASugdtw9fSAp6AfvAaDCIKQEDrCQEwRK8QecUU8EF8kCAlHYpFEJB3JRHIQCaJA5iLfIJVIFVKLbEIakZ+RA8gx5CzShdxC7iO9yAvkPYqhNNQItUAd0DGoL8pGY9BkdCqag85ES9AydBlagzagO9EW9Bh6Hr2GdqNP0QEMYDoYE7PG3DBfjIPFYxlYNibD5mMVWDXWgDVj7fD/fAXrxvqwdzgRZ+As3A2u4Cg8BefjM/H5+FK8Ft+Ot+An8Cv4fbwf/0SgE8wJrgR/ApcwiZBDmEUoJ1QTthL2E07Cp6mH8JpIJDKJjkQf+DSmE3OJc4hLieuJu4hHiV3Eh8QBEolkSnIlBZLiSTxSIamctI60k3SEdJnUQ3pL1iFbkT3IEeQMsoRcSq4m7yAfJl8mPyYPUvQp9hR/SjxFQJlNWU7ZQmmnXKT0UAapBlRHaiA1mZpLXUStoTZTT1LvUF/q6OjY6PjpTNQR6yzUqdHZrXNG577OO5ohzYXGoU2hKWjLaNtoR2m3aC/pdLoDPYSeQS+kL6M30o/T79Hf6jJ0R+tydQW6C3TrdFt0L+s+06Po2eux9abplehV6+3Vu6jXp0/Rd9Dn6PP05+vX6R/Qv6E/YMAwGGsQb1BgsNRgh8FZgyeGJEMHw3BDgWGZ4WbD44YPGRjDlsFh8BnfMLYwTjJ6jIhGjkZco1yjSqOfjDqN+o0NjccZpxoXG9cZHzLuZmJMByaXmc9cztzDvM58P8JiBHuEcMSSEc0jLo94YzLSJMREaFJhssvkmsl7U5ZpuGme6UrTVtO7ZriZi9lEs1lmG8xOmvWNNBoZMJI/smLknpG/maPmLuaJ5nPMN5tfMB+wsLSItJBarLM4btFnybQMscy1XG152LLXimEVZCW2Wm11xOoPljGLzcpn1bBOsPqtza2jrBXWm6w7rQdtHG1SbEptdtnctaXa+tpm26627bDtt7Oym2A3167J7jd7ir2vvch+rf1p+zcOjg5pDt85tDo8cTRx5DqWODY53nGiOwU7zXRqcLrqTHT2dc5zXu98yQV18XIRudS5XHRFXb1dxa7rXbtGEUb5jZKMahh1w43mxnYrcmtyuz+aOTp2dOno1tHPxtiNyRizcszpMZ/cvdzz3be43x5rODZ6bOnY9rEvPFw8+B51Hlc96Z4Rngs82zyfj3MdJxy3YdxNL4bXBK/vvDq8Pnr7eMu8m717fex8Mn3qfW74Gvkm+C71PeNH8Av1W+B30O+dv7d/of8e/78C3ALyAnYEPBnvOF44fsv4h4E2gbzATYHdQaygzKAfgrqDrYN5wQ3BD0JsQwQhW0Mes53Zueyd7Geh7qGy0P2hbzj+nHmco2FYWGRYRVhnuGF4Snht+L0Im4iciKaI/kivyDmRR6MIUTFRK6NucC24fG4jtz/aJ3pe9IkYWkxSTG3Mg1iXWFls+wR0QvSEVRPuxNnHSeJa40E8N35V/N0Ex4SZCb9MJE5MmFg38VHi2MS5iaeTGEnTk3YkvU4OTV6efDvFKUWR0pGqlzoltTH1TVpYWlVa96Qxk+ZNOp9uli5Ob8sgZaRmbM0YmBw+ec3knileU8qnXJ/qOLV46tlpZtPypx2arjedN31vJiEzLXNH5gdePK+BN5DFzarP6udz+Gv5TwUhgtWCXmGgsEr4ODswuyr7SU5gzqqcXlGwqFrUJ+aIa8XPc6NyN+a+yYvP25anzE/L31VALsgsOCAxlORJTsywnFE8o0vqKi2Xds/0n7lmZr8sRrZVjsinytsKjeCG/YLCSfGt4n5RUFFd0dtZqbP2FhsUS4ovzHaZvWT245KIkh/n4HP4czrmWs9dNPf+PPa8TfOR+VnzOxbYLihb0LMwcuH2RdRFeYt+LXUvrSp99U3aN+1lFmULyx5+G/ltU7luuaz8xncB321cjC8WL+5c4rlk3ZJPFYKKc5XuldWVH5byl577fuz3Nd8rl2Uv61zuvXzDCuIKyYrrK4NXbq8yqCqperhqwqqW1azVFatfrZm+5mz1uOqNa6lrFWu7a2Jr2tbZrVux7kOtqPZaXWjdrnrz+iX1b9YL1l/eELKheaPFxsqN738Q/3BzU+SmlgaHhurNxM1Fmx9tSd1y+kffHxu3mm2t3Ppxm2Rb9/bE7ScafRobd5jvWN6ENimaendO2Xnpp7Cf2prdmjftYu6q3A12K3b/8XPmz9f3xOzp2Ou7t3mf/b76/Yz9FS1Iy+yW/lZRa3dbelvXgegDHe0B7ft/Gf3LtoPWB+sOGR9afph6uOyw8kjJkYGj0qN9x3KOPeyY3nH7+KTjV09MPNF5MubkmVMRp46fZp8+cibwzMGz/mcPnPM913re+3zLBa8L+3/1+nV/p3dny0Wfi22X/C61d43vOnw5+PKxK2FXTl3lXj1/Le5a1/WU6zdvTLnRfVNw88mt/FvPfyv6bfD2wjuEOxV39e9W3zO/1/Av53/t6vbuPnQ/7P6FB0kPbj/kP3z6u/z3Dz1lj+iPqh9bPW584vHkYG9E76U/Jv/R81T6dLCv/E+DP+ufOT3b91fIXxf6J/X3PJc9V75Y+tL05bZX4151DCQM3Htd8HrwTcVb07fb3/m+O/0+7f3jwVkfSB9qPjp/bP8U8+mOskCplPJkPPVWAIMDzc4G4MU2uE9IB4BxCe4fJmvOeWpBNGdTNQL/CWvOgmrxBqAZ3lTbdc5RAHbD4QAHDQ7VVj05BKCensNDK/JsTw8NFw2eeAhvlcqXFgCQ2gH4KFMqB9crlR+3wGRvAXB0puZ8qRIiPBv8oOa4zCxeCL6SfwPiMIAPb5ZLogAAAAlwSFlzAAAWJQAAFiUBSVIk8AAAAgZpVFh0WE1MOmNvbS5hZG9iZS54bXAAAAAAADx4OnhtcG1ldGEgeG1sbnM6eD0iYWRvYmU6bnM6bWV0YS8iIHg6eG1wdGs9IlhNUCBDb3JlIDUuNC4wIj4KICAgPHJkZjpSREYgeG1sbnM6cmRmPSJodHRwOi8vd3d3LnczLm9yZy8xOTk5LzAyLzIyLXJkZi1zeW50YXgtbnMjIj4KICAgICAgPHJkZjpEZXNjcmlwdGlvbiByZGY6YWJvdXQ9IiIKICAgICAgICAgICAgeG1sbnM6ZXhpZj0iaHR0cDovL25zLmFkb2JlLmNvbS9leGlmLzEuMC8iCiAgICAgICAgICAgIHhtbG5zOnRpZmY9Imh0dHA6Ly9ucy5hZG9iZS5jb20vdGlmZi8xLjAvIj4KICAgICAgICAgPGV4aWY6UGl4ZWxZRGltZW5zaW9uPjEyMDg8L2V4aWY6UGl4ZWxZRGltZW5zaW9uPgogICAgICAgICA8ZXhpZjpQaXhlbFhEaW1lbnNpb24+MTgzMDwvZXhpZjpQaXhlbFhEaW1lbnNpb24+CiAgICAgICAgIDx0aWZmOk9yaWVudGF0aW9uPjE8L3RpZmY6T3JpZW50YXRpb24+CiAgICAgIDwvcmRmOkRlc2NyaXB0aW9uPgogICA8L3JkZjpSREY+CjwveDp4bXBtZXRhPgrpqkr9AABAAElEQVR4Ae2dB5hURbaAL4OAiCiiouK6DiZMmCMmXHNWzLtmVFzXrPtMqJhRzGJYI+asq6vimkBFWRRlDYhpFTMmzAmQfv9fM9X29PTk6TDQ9X237+26dSucqlMn1KlTSVIOZQiUIVAnBNrV+ab8okUQSKVSwrbTt99+2/mHH37o8uuvv3bm/+xTp07tSKiYPn16O9LMMBA/levXTp06/dq+fftpXL926NDh16+++mrasssuO513qXbt2qW4l0OBIVBGkFYAOAO94vvvv59n8uTJS/z4449rf/nllzvxvM5nn32WeH3yySfh+urLr5Jvvv0m4X3y008/1Sq5oqIiWXLJJZJ5550v6datWzL33HOHe48e8yc9ey78Xs+ePV+df/75X55jjjnenH322d8BaT5eYoklviKjX8oIVAucrRJRRpBmgFHq8Omnn877888/rwGFGPD666/3f+mll5Jnn302GTt2bK0cGcxJly5dktlmmy0RCRjMtS4JSbygLokXVCehjFr5GbHSSisliy++eLLUUkslK6+88rTevXvf37lz59u6du36zIILLvhlGWFygq3JkWUEaSTIpBIff/zxElOmTNnvzTffPGL06NGdHnnkkYTndA4LLbRQwuyekDZcDvj47D0zZP/3nYgTQ3zORKaIXOYr8kCtEhA0fpKsuuqqyfrrr5+stdZa3yy55JJD5pprrntAovfI47d0ovJDkyDwe4806bNZIzGDuAIEWBIWacDEiROPePzxxzvcd999ofEO1oUXXjhBbgiz/bRp08LdwRtDHOTxf0vu2Qhl+V7IKwnySrhLbWTnYlqRZddddxVxhv7xj38cBgJ/SJ1qYmpLKjULfFtGkBydPGHChDkRrHccPfrZi26++aZu48ePD6miTODA/+233wJL5GDMpBQ5sstbVERA75G6RKSx0F9++SVBFgrlH3zwwcnmm2/+Sa9evY5aYIEFHurRo8cPeavYTJRxGUGqO5OB3u6NN95YEopx5v3337/T9ddfH9784Q9/SODt01RCxBAp4lVqY0FkiZfIgsYs/H/33XdDVWUDjz766GS99da7FiQZBMJUYVCpNaRE6jPLI4iI8eKLL648atSo4VdeeWWfd955J8gRIoZ8vrOwSBEHXYn0W6OrISIbZAW9pHbvvfdeiDvmmGOkKiMWXXTRQ9GGvUsby+xXgMzvP7MsggwePLhiyy23XO/pp5++4cQTT1xUZFhkkUUCP58pT8QB9jvI2uZTRPBMmeV///tfaMzAgQOTrbfe+oXllltu58UWW+z9ttnC/NR6lkMQKcarr766/BNPPHHfWWedtfgXX3wR1KXOrFKLKE/kB9ylk6sII0VRBf3WW2+Fiu20007JzjvvfOMqq6xyKFqw70qntsWrySyFIMgXC6Oevencc8/dUPWs6whSCATycHfQzGrBCUEZy8vJ4uuvv0723nvvZLfddjsa9usSYOJK/iwbZokRARJ0fPLJJ88dPnz44TfddFNQz3buPDur2T8H+WJmYaOaO4oj+6W6WESJFOWcc875fIsttthghRVWeKO5ebf172ZqBJGdQkW71sMPP/zYoEGDuthZrjxjFhK0UrMixWhowDpZyHZFROnbt29y6KGHngNFGTQrUpOZFkHQ/3d56qmnbr7gggu21/wDLU2CoWCwgVL9WQ71Q0BEcd1Hueyjjz5KWEf5fK+99lqXVfq36/9y5no7UyLIa6+9tvq99977zMknn9xJo7/55++BnPF9YKdmru7Lb2uksNqPYd+VsEaUrLnmmskBBxxw6IABAy7j3SyhEp6pEIRZrz3aqdMvv/zy40EQqMaSGPv9FNYzylSj+cikII9dV7D90jr5hBNOeGzffffdBk3Xr83PtW18OdMgyPvvvz/PQw899CyswDKCXlnjm2++aRu9UOK1lJKIJK7KzznnnMFAE+F98iGHHLLyVlttNVOvxM8UCMLq9/I33HDDS6effnoHF/tkC1Td2rHl0LoQEKbKJmq6NOG/5JJLVoflGte6pZRObm1+BL018a3+Fw+7+J7LLruMzUZLBsRwJbzMUuVvkLlXRZZLpYfWwxdffPHuhx9++O35K7F4ObdZdY4qXATHw8+/6Pw0cnz33XdBEC8jR34HlOsl7kXRbAVjxwTkuG3YsGHH2if5Lbnwuc9W+CJbXqId8cILL5yGPdUg1jgC5RA5iG955uUcGoSAcJbVUgUssmC/lSCPDGEb8QK8O5p3M01HtG8QGiWWQORgXePMU0455cQRI0YEYZxdfmV5owj9JJJo6eyF6Xxy5513rk1cz379+j2EdfRMgSRtisUSOaQcrIof73ZXZQ6RQ1JfDsWBgEiihsvdjGoOoeoH0E/Xc7WpsVUX9NoUi/Xcc88dyeLfINY6AnKoxi3LG3V1bWHjpSL2B26KklNPPXUvJq3pIMn+bZ3dajMI8tzY5/58yqBTzhc5NBvBZ1RQ5xZ2GJRLawgCujSSkjCR7Yc9108gyWFtGUnaBG/CHvE1Txt82ggFcoEvW+VaRzmUJgRUs+O/S5lkDXZmVvzrX/8aWZo1bbhWJa+Wcw8Hi1Efuc6B76eAHPK95VC6EIBqpD2taDl9xRXDDtx99z2uLt0a112zkhakPvzww87XXnvtKyKHm5tkq8rIUXdnlsob+0gqYnDX4sknn3oVVGTTUqlfU+pRsgiiFuSuO+54Yuh5Q7vjcjNoScrI0ZSuLW5a+8p1Es1R3n777YTNV/9GPd+ruLVqeukliyC33377iUcdc8zaCy24UNBUOSOVEaTpHVzML+wvF3BVx7PVObn66qtfxfqhazHr1NSyS1LS/c9//rPC3/72t9O0HNWCVLOGMnI0tWtLI71rVLLGS/VeKrnmmmu6oGR5Fu5gZfqzTbhDLTktlnIHuwDfxHS9Y2VlZdCtl9c6SmOwN7cW9p+GjTqtu+OOOxbANGXOf/7zn482N79CfldSLBYzS7vrrrvuPgTzLtr36GGjvEpeyOGQv7JcbffIh3nnnTcZOnToUY899li//JXWejmXFIIgd+x93nnnbaZXQwW8mY2tUv0ZL9uWecUuje+9z2zBPu3evXvClujkxhtvfLQtyCMlI4OMGzduvv/7v/+7Xr25i0ze2yqCMPQ5y6BqeMteeEkJvVzgtF3uqXBWNfjfd94jOxmNAE3js+kj0sR7VQlt59c2yhUsvfTSCe6XOrDH/X7ashHtLtnZoCQQBCC1O+200x7Gd1UA3ueff94mV8odzF4OhM6zVzljczC7u/GDDz5o9kiWd3cXn0E2xZlYpIlI1eyMi/ChE4CTH8cxsIB4xYarr7769lSj6kyJItSnoSJLAkEefPDB7W+99dbVpRyqBduiGYmD1V12Low5gKPfWzvAczq22WZb1J1LhA1GHD8Q0kkxvESiTIqhn2BOsAq79VBaJBMmvJ48+eQT6b7UFs19GCKLaSMlSico8QdV9h40hAlRwpaFu7nPjV/gkjyOoZoRKB5E2bI5B9TjezyrV7haLoI4aNpKEJl1sqaWxsFsmG+++ZJddtnFk54S5SkQZzyuc27BBdErUIJJIJHnCuoRxOVm+Swb7KVW0cM+58J8fCFOj1oFFffGwGQr3IJ24ISrBHN/Z16SVIVevXoFeIksbQlRrKsCuy5gOW7iru22226X2KZSuhd9JMKLXrPnnnsOcFaU9DqblnqIA1GfW878HicgUrB2k+D4OZlnnnk+4ZzA00GOh0CeT0H4Fvm3lQUFJvNAmVYACQ9mUtl50qRJCZ7pE7R+AVwacYqkwlA2ptQnGWEoxfXcEnYjJocddtiytGFiqfV9UREE0vpHqMf76MbDts22IJg78GQPpByaUIgkxx57bLL22mv/iPB5OOyT/PTXpMsbpoMwHShjBby5nAkrt5mIgqf6MLY06IysV6kNtlr1AULd5ukWPKQwUb69xx57LA3cqjQXtRIXJ6JoMoizIusdt4scajX0LC4fX8pBpBA5PGTHgD4/WWeddcawSehQWKfxhepcypE1e5Frc+DYjVNu9994442HPvroo8mQIUOCQC9F0wIhUjvrW3KB6Vl5TbmNsx+X5CzFjajjY6VUz6IhCEcnrzj6mdFrCwwFTTq9lOBSoy6yUZq9GEQOnDkn/fv3n4jX853R679O3fNGLWpUJMcfytY73nkgyjBsngaiOr1Itgvr2bCxTCRRKI7q4xxZFDXKvleO0hMmDrJvpx3z06aSoSJFQRCpx1VXXXX78BuGB0M2jzIu1Q6UashG6SitT58+LnD9zPl+W1RWVj5dTMTIHtXU5RfiLga212KFcNkGG2ywl0esaQktr6+quRQD9Q2Uzrqhzey+4oorbsbjiFKpa1EQBM3Fqni96C0Q4r6BUgFIZj00lBRBRA4WMT196bbVVlttv+rBmJm0ZJ6pm5iwN1tfh8D6PQ0bON/IkSPDTsx4prqDspSCVM697Ew+HgV3M/UrGSpScASh8e04QXb4bbfdFmQPt8+WWpBvdx+DdVMV6aE7UI0/QTVGllpd66oPMshEYL0wa0uXs8Y04MILLwxIomVtqcl61kfFggEbre4rrbTS6jyODRFF/ik4gnDWxBJsnFnOdks9nM2Y9YoMht+Lty6uWn/ImRhrrL56gpZtyoYbbrg88Z/+nqptPFHnqdR0f1TDD7Maf49UUC2X2kJNV0olCHMRRFU1e0aSzTbb7B+MC03ii07qCo4g//3vf8/7xz/+EbbQlppaVzlItspVcFSOnif+ArPZBnTUz6UymJpTDxx638ti49IoGl7G+30nhWJDKSGJ9XEdx/DMM8+siLKhJ48fh4gi/hTUmpdZYS7kj21tr2RV7VCpBGcxkUObKReuWNsYA3L0bevIEeGLoP7mjjvuuOhdd931Y1StxnelclejJRXBGXaC1cDfSqFeBaUgY8aM2V2DRIOe+EpJc+W5fFI0jhnzuLGxyyyzjJSjdPiQVhgtLGJ+xiS16LTffnvnz7vt1k3rBVmbUqEkmRMmpvA6wz652H1QMApCY9u9+867Z+nbyoXBUlr7UFMlcrAarrZqAsixHh1T5ZajFQZmKWVBu77aduutl0FjNMM1He3ISmmiUh3tYizjpIK1slWKDbuCIQj2Q38Y//L47ja4lFS7ruI6g7qR5/jjj/8Rq9K1ZlbkiIMNWWQy6tSV1Gwpb6mxYwKLr4t6d+LUFB6ncwkHsR5T1MpQeMEQBLul7TWFiC58it1wy1cOknq4/+SMM87QbERtVWmuqLUywJgQXt1+++33Ud4SSaQkpRIiq4VCZ2cQt2Mx61UwBGF/w3GvvvpqUKGWAs8LIgQE0RKXoxSSjTbaaFviJhWzMwpddmVl5Y377LPPg2xaCjZb7jEpdohrIu6ZufvuuxOQZNli1qkgCIIhYle0Q6rtAikvBXIu3y0533TTTZPdd9/9bhbWHixmRxSjbCaEFAaCuwwePPhXz0KX3XTiKHaQgmgeg1JHl0G7FbM+BUEQWJhlxo8fH9qp9qrYneBMaR20IIbF+JHFsz0dLMXsiGKVTbt/hoLswJpP2JuhNq/YwQk0TqJQ+MN4LhrWFgRBmJ02wmNJAkkP5s3F7gDlDpEDdW6CbZXqXA39ZtmAOcojrJG8KFvjxFHsIHJERQ7OPDozfuYpVp0KgiAcrLKJDVQQLLb8EVWadsCuu+56HUoD91XM0kHqifZuNzd+TWKnoqb9xUYUx4nblTk0SeeBKxSrgwqyUAhPOZ8NjIOzWMC3XNkrde2wVr+iTizoaq2sApYECyF4Lg9vvS6mFauBqN2BTzeE07dhb15hNf8V6jVuiy22eJ/6FmyhEvuzd3D5+gzd5BpQUGAUczKzbLYuJyp2MJPR88koroKHgiAIM9IttGyIgC8WjyvZVkOiOYnOFbC12gKbpIKwViopMNA8kG2xp4AcXTH3yNXRmv9v7Qu9Sv7pT39KLrzowuHrrrPuENjAt4Bd3mUkFkgHUMe3TjjhhLCJqZgIYn9FdS9yyN6A5QhhU+hQEIaTxrYH6BedffbZh7SvwAZrRuFtsKRecfspxpIjDjzwwK3yPehod6d77rnnDIzvjnENaOLEKp8ElchiIqoTRrwcEF7W0f0RLKyGscCCnqb2/+PaoW/fvq/mc4BQfjtYmvdZD1pEg0bNUKxTMYJwiZPZEUccoUOM2dkxqSeYgoaCIEhsEeYDnZ5//vlF2czj5vwlAf6ivFuYa34uV9nnIr4zg6QTdxeIlJHcqN5iWUmAe/Xr1y9ht93c7PP4jnzzFmANVsOcYxTKiS5SLHclurfEWVn1sgMv1+CzjlK6qHLV64dBdfQ222xzI6yhB2PmzQwGxNyeiey+Sy+9NKxoa9hYrCAsnNi0GWPVf1Eo6QeFrktBEaTQjStGeQz6dlCMg7BIvRzqkVRCLaIhZLQ/s+MbClIS02kGEh1FaA6OOcz7Rx11VB80T983lEdz3lP/zmx9/QlkDHtH3GAVZcfm5NeSb4SBE4s2Y8hHm+Fn7NGW5NecbwsigzSnYm31m8cff/w0ZuBBWi17cIzskkoBB1lTBlpM6/deuh+VqpD3ogitH2Dt+keMPlsdSUDKn1955ZVn8O+13meffRaUGlEWKHSfiCBxdZ/JZWXKLziCtJh1KTTQSrm8Z599dg92IAbkUNB2D7gsVRzszam7VMRLeUBE05CPMxu7IUe9zBpBXmxDUK8O2WmnndyTEVTzll+sENlQnF5vWIw6lBGklaCOafaSHPxzE+xV4Jk1n2/N4CB17cbLTUXw5L0eeeSRK1uzjJgX6tXnVl7JCbvqEM5iIYgTS6ReIGu/UKEC/5QRpBUAzizXHvPsx5Q5nOHztZXYgSpFkposvPDCCQi5Hw7XVmqFJmRn8W33ebsHRYAI2RIKmJ1xU/7H9voNtnyd8M5ScJGgjCBN6bE60r744ou74oB5UfeUOIDlnfMVHDRqllzt1usKss4IELRV+5EyUiwc3oEjt8BmaZpTrCAFEUFd4e/Ro0fBDcVaFbDFAmIxy3VwYpZ9pacm4cE9sAQO4nwG81ceUcMFS7cgXgnXbe3yQPb78RwZtkaLIFEWaO1y6svPdjrZeCyGe1YQ1OeqL30+3pURpIVQxancaiwCdpUVsUMLMZAsR5WvxoWszHvE8uUtbEatz6Egbyy6qMtUVRvLaiUoUITwVHsngkBNwo7UAhUdiikjSAuhjX5+//fffz/huIO025oWZtnoz2XnDCDpcth4BXu3Rn/cQEJWsT8VAQ2yOIVA/FxVslwXTj26DQpScKveMoLk6pVGxtF5FZhmDHAxzcXAOGAb+XmLkklFpFr4vJKCuJDWr0UZ1v74+7gNVzbH8ooRIoJYNs+tOgk0pj1lBGkMlOpIw6zWlZk7DUM7s5BBAdZB7HpLtUFfaxY/XVsovUzKzhVLk2WDYtnAd8HWbGBj8kp3bmMSl9PUhAA7JbsrLBvyqbmqWerv/0TIOHhA1i3532rTPBRjhgiiq1JNZGI5v5demCfbGKkXE0JZSC8M2FunFIwuF1Dl6kCyIwsf2qUX0lh7qcBmSQPPVguYeUxWtoqmMq2WcRMzirDFxKbqkJYmft+S5GUK0gLoMShnd3ZVyxI7sQXZNflTxQLZLEP1GSutuk6AXDXNk6qKjSCROlOPrk0GUgs/KCNICwDIAPpFDUscpC3IqtmfRvbDerBeMVP3J20tI0izR0oRPsRmaYqm6Jp+FINHl2qJGAbd5LBQ2apL+GjlOmlJbBnFoJCxSyNsgXXe9sHEsrLvM/WMk93Y1v5fWVn5havZhtiJrV1GfflJPSIFEUFA2Fbd3QSC9JC9so3FRJDYRsxrWrV99cE2visjSIREM+6oQL/V/soQO7EZ2bTokzhwQQ5n16ktyizjY/KtkHXU8FIZK8oBGUkK/ggLWXUMVQFLLiNIC4ANUszgDJF7zcLBVGgqIusjC6S/Y7al3k19WlOV1kEFBGb8YUdjsRDEiSdOAsC34AcZlRGkBQjip+yTvhBWKwzUuPuthVk26nMHjeW5qQn3oQmIelWjPmx8oq6qsFFlF52CROQEQT5vfPVbJ2UZQVoIR7yOjF1ooZ7TNDdxPaSQIZqhL7744p65MqaVy+4pBTFIGeMs3splNJidFCQiCIk/bfCDVk5QRpAWApQOnNa//w6HKiRri2WH5js4WLX9wmO+FEzP9KdSbqu6xMGH8jIeR2coVLvqgpvla1LDBPRlXWnyFV9GkFaA7JZbbnk9DqC/l4rI9uR7tjV/1cs6At9kk02mQcWGtEIzamSBs7udXn755RDnAC1WkHopZ3Gop0jydaHrUUaQVoA4fm2n7rLLLpvYkQrr+UYS1a6a2DtocM+zDdSjVdWfIGC7KVO+6v8Yzu60Fo57XVoBVE3KwolARYQTjx5i8Cv2RZMyaIXEZQRpBSCaxcCBA8fiPfJy2R4HcD524TlgZK28i4R4G7yacxXz4Qpnnq+//qZiAhos21IsSwHbGeUsPT0yAbWuJ4xG9H0ZQRoBpMYmQZN02AEHHDCW4+YCC9TalCSyVZzdl5x++ukj99xzz4OgHq2p2g1NZe1jffxuhWfZKwdqMUImgri7EVV2q63zNLY9xduN39gatqF0sFm/gRyeN/LCVVdd1UdnbwqXqkvtbOKb3Jo4SEQ292V4rslFF1004vDDD5e1alXTklg5zuM4Du+K4WDTYvrnte3RlAar4pfzMRnENtd1L1OQuiDTzHgdLDN4V4PdekF2ywGtMwdZlWjTZMd75QqZ70QKtWMilholLWtvuOGGs8h/a+Ly4gGc8udgbWVNj+vWWYLyR7GC7Y4KAljL+4pRj4JQEIDeFecCfYYPHz4brjlnw65/NuJmQ78d7gCiA/87VN9n496x+n/H6ucQR/ro1LoT7332m07Ez+4dAHr3W82+4+XxrZ0ZbB0re1V26LdBv2TfffcdVllZeWi+AK7QTh3WQsA9HefVJzz11FOhKH1Z6a5Hnt5L/T7p0tRFjY1X5Lu1g3IhUP+0f/3rX6f0799/Y7RW4/fee+98VV2E3nrUqFEh/7gOkrfC6skYK7MABymYC6FMME/XkzxvrwqCIPCzS+HM+VkQJDg8U9tT6ODs/cp/X0meGvWUO+QOAUlPZXbOm14dRJX9ORFV6W0gyQNMDL1wrhD2bdh2EUWqIpUQKUQYWSh9XUWh2BOWUCFP45DRgZxnchN55lXfCrK2w53pxWeeeWYSjz+gzEJ3VSiPaSPp1LFTOMtlhx12kN17sxgVKQiCMDCmiRwc0OJxWmFgOHMWOjgQ55p7rmTIkCEJawfDKH+3fNdhxRVXfI22LrHddtv1xcHcBSDM6rqw0TG057N7umwMqlRXXnnl5I+L/DFZbPHFnmXmHITzttEiBgJ5TJa3O+rUpfEvvGAsoBh9FMsWMdXYGVwMBTYFV/FadkEQBK1ImPkcoJLtyEJYgUKGOBvqiODWW2/dFfbl77A9H+a7DpQrNRnNtQaDbk7ODulN2X1AkKW55oOi/soM+TEyxuvUZ8L666//Ad+ElXGoR76rF/KnXu1A4OvPOeecBPaz4C6McjUyCuiY0owHHkURhgqCIMwEoXGyDnGQ5gJIvuOcERX65Okvv/xyD/G8nrhNqFPByBll6eXBg0O9SibAci4xZsxza6pY0DN9FI6LVUEnUVnx5ZdfXkXFFcWqR0G0WPhU/UF+2gYXi3pEACsYG+T9b7rppo04USkfzp9jcW3iLvVATrzrzDPPCtTDfnIyKWZwnHgyF8fBuRFsZLHqUhAEgX/8GmEzNFjBtNjAV3WpCvOaa65J0DA9Sn3ycs5GsTq1qeWiudoC/74rugBp38RJpKn5tFZ6uQwnMIPyB5PrpPCnCD8FQRA0Ir/06dMn2PJHwasIbU0XKfvgINClzXnnnTcfJypdwcAojromXaviPNDuznhlvFfZQ7N5FzWLyQYLBcuPdWDs3MVzXrV39UG+IAhiBTg34yLvzt5R+PJ/sYIzpWTcc7ivuOKKAbBa4QjmYtWnGOU6KSCY3z1o0KBOrtHEFf9i1CWzTPtFdfefOAobSn9p5rtCPxcMQbCjuYuFrkQ7Jfc4FzuIIFISZaMrr7wywbTiAbwTVha7XoUsnxN0/3zttdduCQUNk1YxV81ju1XkaJ6jBa8HiXIEw7j4rhj3giHIsssu++4aa6wRVJelgCACWzbLQSGrNXjw4IQjql8HcQruQbwYHc8Mvfw///nPm6GegbVyb0mphMhhgBwjYK+KWrGCIQgNnYGd0ml2gjO3ayKlEKJjZgcIFrKdWcgTSap8+ZRCBfNQB0xYFnjggQdePvroo9Naq8jz56G4JmWpjOrZ8K7/QN1PadLHeUhc0FHKvunrDj744AAATbeLrS2J8BRhXTzUgwf8+IITJkx4CyQpuBe/WJ983rFkmAfkeH2fffap0JzECaJU+sF2q+W0TptvvvkMDit9KZ+waEzeBUUQjPgmswsu7OMsnsPn3GCRgogkmnlzlHNPkOUdkGTu3KnbZiwWDT04GfdDDB+7e9iobXZyKJVQgb1cDGjUzoSq5cViOZbRmHtBEcQKwWYduNZaawUz8FKRRSKgtBxVaOfEWtmtHtiQfQySVMb3bfmOScuSV1999QfYdnVxIlD2KiXKIWw74RVGg04Q2NX8S0oB3gVHELaIjtt0002/VEvhXgcGYCnAIdTBujhwXA+Qkpx44old0PC8R3y/kqlkEytC3dtxLMJubOB666ijjuqENjFYC5cS5YhNimtkqHdH4Awvb5bWsbzG3AuOIArrWKkOkMWS14wai8ZUthBpRBLdbbo5idNrEzYnJY899thIVMCn867g8GpJm6lvx7Fjx15zxhln3IZsFRDftjkJlIpQbvuEuapdTutKkI1U7R7Vkna35rdF6fBtt932YYT1X9VWlILpSS6Aym65eObebChegrn+IOr7Ep3ZJtTACOOrcnb7l5jJ73fzzTcn7un+/vsfSopiR7i79uE4MCCcT0A4L8rej1ifzHtREITZa3rfvn33syKS+mIbMGYCJPPZuknp1PYceeSRXiuy8WkK1GRvEKUosMusX65nrHLnZffmPeeff/647bffvquDT9+9VbsDS4edzay7yKEG8c9/+XPC/pndGR8lU9GidTImBHcec8wxP+rfSQCVmsBoB0r6Nb+Qmqj1gV3RUVuCsDucDn2dd0tldnQxn6lrVyjcmSNGjPhyv/3264+SIaxxWHfbUIrwjfByd6Vh2222Hc9SwGsxvhTuRUOQDTfcUCrylwiEUlk4jPXJvIsocaOXiPJ///d/Ce59erMS/SamM09qokKaohg7Uu5CbL666tFHH/3u+OOPP4E9LkFD6O5E1biljBjCOC4MsuMyYRngL6VEPaxfUTrVgg2oU9tjbv75ZZdd1h2+MxwWX0rCY1Uta/5qhi3bJfvlfoV+/fqFVV8UD2/i5udQ2JmnaENe/TeBFF3QAm7MdQ4aqt533HFHcuONNwYTfjWDIrP1K3XkcOJhr0dQ7eKt5QGcUWxXE9rF/1dUBLH5sARro358zkMoDXZsWwgispoXB6O78AyabsiCMXv/EzeZwxZYYIEXiP6etC3iqRlIs0ENFgJGGyFjHMOaxnKYqCcI4cno0aODAwg2paUX/qxbqQeR152dIDhwOyo54ogj5wVuU0qt3kWHJJ3f7uSTT34Knnk9/a/q1KEtdHCso2pqKYph0qRJ4Y6HxWTHHXdMYCETkGQaPPb9LIo+iKz1Fj6yxKZvuKQybm90tdh+cPvzbMgMXVB/9wDxFuW+OvLDX0COXvrFwjTdDV7JyJEjSZqYd/DgqNrWy+Cs3BaC8FP2lArDHh4Hy31OKda76AgiUJ5++umFMO/4BA1REIblneMALEWgZddJ+UlEkf3ycrBGZHFlXjZMFrKysjKwQR7bNvdcWLEAfdvpbPr9d98n333/XViDmfL1lOSTjz8Jg0dVuHCJQdlCvl3tlOVEVqqtIEZsh6yV6x5Dhw79EmXNQsChJFmHkkAQgYYThXNZG/l77969w16AUhbaYydn3x2kXtZdquLlQFaT5ElNTRnEIo4siGxcNMlxYVWkEKF879XWgjDQUFVLCvebs5NxeSjuhFJtR8lAGAvajqz4fnnbbbd11RxCmaQtDgA7Otbbu8jiPcY1ZSBEhMu8+31TEK0p5RUirXAQQd57770Eh3rDsA3Lm4fL1mhP0dS82ZXXXSfeAzdRjeqM66zZVgdCHNDO9LJA8ZKaGJerXcb5zst08Rvvmd/l+jYblqX633ZoKCly4Lv4S/wUHF2qdY31KhkEsUJbbbXVWFarb2R/eJh5S81OKwKtqfc4+OPAl02SXcq8ojyRjRBNLauU0yuUixx4wU+gHGs6KZZyfa1bSSGIFcIl6IGofb9RayNA2/KMaXvKoQoCTnZyBU4EcAoHYZD4bluATckhiMcH/OUvf+kLoiT6sHXhS7ajHNomBJQ5pIr2ow47zjrrrMdwxnBVW2lNySGIgGNVeiKbZo7o3n3esPilrU4ZSdrKkKpZT5FDJ32qdAcMGDB555139uCftrFYQ1NKRotVE6xBU9Pu+uuvfwDDu61ltViZDsJ7W1T/ZrdtVvkveyzlkBNgIXAGJ2MthLVucCDYVmBQEOfVzQGGswyhPx44JrDZZ0mB7bqCPKxkuxxKGwIqJEQODDnDATgnnXRS37aGHEK4ZBHEyoEI01hQWg2k+AQ7py6VlZVGl5EkQKF0f2SHpfo6wVZljynRHmyjHVu6Na67ZiWNIFYb1uo7VqF7s3D4AeYoFZpa2AFlmaTuTi3mGym9q/+aC2lXh4Pw4zBlv6WYdWpJ2SUppGc3iP3hH6MaXN5dfRq3eSimHVEOpQUBJy3ZYOVEKccll1wybK+99jq3tGrZtNqUPAWJzcHYbyJhNSjJuOuuuy4Y/2mOUkaUCKHi3u0H1zlEEBcDOZPyOo6ZO7wtaaxyQbDNIIiV54zDF7HZWh5T8NduueWWsFdcUl5mt3J1beHiIlulZYDIwX746xDOD8DfcZtfwGpTCGKXY54wYfz48UvN0XmON66+5uoK95DoykatSVm7VTiksCTh7TqH61TC381jF1544XAo+0yBHLaxzSGIleYk2LfRrfeao8sc70DKO/Tq1StotnROUF4nEUKFCVGVqzCuOpdjJC4YOHDgMW2drcqEXptEEBuA98MPIOd/RMs1ATVid48wiKrFMpJkdnF+nmVr45ZZjrbwEKIjcBhxycyEHEKuza+4odXqjNOCkexKW1NHbwqJ7NsuOY+N+Rmmhc9VeWPGjBSeJ+cN5iM4I0/wptIfH1z3Fb42+S+xTah56wMD6yI/s4dkHU5KunLqtKmJfrbczlkOrQ8BkcMJaJ55ugXkYPHvVza5rTCzIocQbPMUJA4DOq8dDqf34VDO63Rs4K5EdfFl05QIoZbdZak0HVHOc7/OgQceOJFrbU6hrXJH07LsS/brmQZBIoRxh7MsKuBnL7300m4K72paFCLdj+BzOTQNAiKGsNPRBOtQQc7DZP069nMM1Plf03Jre6lnyhHDvoNOnPt9/bHHHru7XcL6SYLRY5j9ykjStEGq1YLaqkm4NGLH5wysqzfjMNYnZjZhvC6ozJQIYmNluXCstilOIB5GiK/QPkg7LgX48ppJXcOhKl6qoWMFYeY+DlkrjEWf3Wyzzbbk8KPv6v965no70yJI7CYWFbvhcO0RkGRNzvkIZ2QobJbZrgih3+9OHJGdcg+H8ttBBx2UYGy4J8cS3DKrUI3fITITCemZjcp+lpqMGTNmKxDk3iFDhnTQPAUv4sHi1OdywDkBBoZxRVxzkY022kjHCveiodqHHYHfz6owmukpSGbHgiidH3744Qvwyn4QRxiEVyKK+xbUzhhmJRlFSipidOkyJ2e0tA9OpBXGcZrx+cYbbyw79WIAyiz8M0shSOxnHCYv8sILL9zFcchrIqOEQaJrUNXCIotIMrOuxosUUTOlAC5L5cGZBnxV/Qzl+Aub1B7ANU/RT5iN/VXM+yyJIAJctuu1117r89JLL90JovS+5557Qj9IUbRKlaLIkzugZpYg0us7WOFb+UJWyuB5J+uvv/7BaKmuYXKo8oI9szS6he2YZREkwk1EwYR+NY4tuwEv48t4zoaBY4jDqrFURWQRUdoa+xWRW6RQK+VRd+zRCIaFejg87LDDfsY/7kDs2u7U3VKESfn+OwRmeQSJoBBRYL2W4Rr23HPPbegRZjHIfhkU6DXplkURWUoNYUSIiBQig0gRbdNc/TZsscUWaqUms21g33XXXfcx2lBmpQJkcv+UESQHXDgQZ3748sNQdZ4watRTFTfeeEM6lZQlHnEgKyYbJsIY4uBMJy7AQ0RU2SeRQoRQrnC9Jx7sgzmISOHxytdS/7OXX375d/lu5uEd8wjnMoLUA1wG/GwcA73GRx99dBb8+gbPPvtswlFh6S88wEZWxQEZ/eyKMBFpIsJAa9IK9aZQnfh9vEdksLyIEG5zFTFkAzXUtGyDSMHCnntnXuUI6EH8f5Tvq1R16RaUHxqCQBlBGoJQ9XsG6RywX+viYeU4ZuYNEe7D8WejRo2qkYP7UhSC40zu4I4OqbORx3fZgz8igQggIjj4vXyWUilcy+a5i9LFzsyAy9ZwqhWKhgnskzkJLdWTyBcztTFhZvvz8VxGkGZAlUHdEarSG3XolgzSgSBNLyhNOOvbFegXQZ7pDOS6glTHmV9WLVIDkUdEkhKpGKhvAdNtxrJ6DH7PFU8qKysns8h3HWsYD4IYr3Je4Q91lV2ObxoEygjSNHjlTA3CdPjiiy/mBWF6MbCXZZCvzn01ZvqVGewVHLoZjmYGkcJdbyzKCFIAtUq+hw0KPmxFHi8X7GThcHmUeEAn/3/u2KHjuE6zdxoHco2HQr2FjdT75D+lLRwjkBNwbSCyjCB57iSQx01p7WHLOsAedeL/7AzqjjzDRVVUQDUqoB7toSYpBv2vsFhTvXieDqs2DSTxDI3fiGvzHkLyDOpy9mUIlCFQhkAZAmUIlCFQhkAZAmUIlCFQhkAZAmUIlCFQhkAZAmUIlCFQhkAZAmUIlCFQhkAZAmUIlCFQhkAZAmUIlCFQhkAZAmUIlCFQhkAZAmUIlCFQhkAZAmUIlCFQhkAZAmUIlCFQhkAZAmUIzDwH6MxsfYkv4dR7k95LOs/eOWy/XWWVVZLevXtXsHGq7I2khZ3tJjbcq2710EMPHcpuzbU4GmNyz549bz3uuOP+gQO9T1uYfWE+txE0YGt86J7EMQYr839W2/0oIqSvI444oowYrTD0GEftyeYlYYtT7gBfNnam4fzkk0/2b4Vi8puFyLHvvvs+aSPihVvMofkttbRyx+NhCoqR6tevX4DBSSed5L0cWgiBU089dWeySAlfPNCkON8yBfVI4TMsJaJwKlkKHwFztrCY/H4OxdjERqy33nopjhgOjfE/PqnWyG/JpZP7qquuGhBjpZVWCvcTB53o3vRyaCEE8Db5yEILLZTiROQUDjECFYHNCneRhOxTY8eO3TsWU5Kn3OIhZFMrqO+nd999N3gC8T+udY71PisEqGhoJjJHVXNTSRlBWqHjcZgxh37GhC8UI+0+1rjodI9i0uOsJBEEdzZjhYWub/T/BMYH0EAOHwkPs+ZP2bl06/T7OL1Q6o8sM0SEqY57Lb4rSQShcvfBe49FYArO2DzWGfc3t+BD6tpY8VnwXqYgrdDpgwcPvhUOJUHuqEFF5plnnnBQKd4oZyCbDIxFzRYfSunu4S1gdN+bbrqpL/5ml/nDH/7wn3322ee1WVzFWaYgrTNI1WC9j5yxKDJH8GQpq6VTP1l6TiDrgxO/r1unqHIueYMA6x5BYMT5dLifeOKJb+WtsFksY07unW/bbbeVIgfYVt9/ePDBBxfLBkVJUpDsSpb6f6idkrRXKo9UruyZvZUGAurzL+mzHi+//PIQqMaOuHK9mDWR81Dx1oJxsxAEtmcenDSvwJEA6+Njdh180i5GQV1Rm32MymwcJOppziQfjYr2IwZMybjMBCgdOPdjfby0H/Lxxx/3mzRp0tObbLLJXzbccMMmOXvmRKo5P/jgg5WAw2a0fzvO9uuj4KcP3euuu+57nEk/gHLhVuDwFO3/sZX6tcUyCO3v+Prrry9J+9fnQJ318BG80tdffz1vly5dvu7WrdtE+u9JPMOPgR9/LddgaaV25MwGmHZEkzQX9ZsbN61dqFsH6taeuvyGr+JpKGp+pG7fcH0LTKfnzKQJkeSha/yDqq8mfFlHUgcXZ41vs+uuu75LkkzSVOfzTjvt9APfHGDH1JFtndEujLmY8+c//znFqUipAw44wHJqhClTpsy933777cIi4km4/r8LnvJxTrBdr0Yi/lB+e8jnANJkk9UURx3fnp0+13/yqGBVfy0QarRZNubaf//9UyNGjDiXbzvlyrO+uGwWCyR8rr709b2bOHFi5YUXXngtZ4Q0qt7kleLcwkdGjx7dm7rnzYKBvDtyhv2uLN695QKd5TZ0cSpW6vLLL38SJF+1qXUz/QvPv5Bi8krtuOOOKc5PSXH+e7hz3HXKNadrrrmGZL+3uUEKQuKKu+++e3uk+1uxWQkdrep19tlnD32igONFuvTlORa68ue7LlxXoTm4jIG7PaccjQBzBUKDgeMFEg+s8QRWtQ4cSVzrG2aYPszYd/iCGTB4Sx8/fvzK/J03JuY4taUBwhP//ve/exq3xBJLhGMHPBOck27Vjm0U0+a6C6xhw4b1pd7/5P18pvFINvXmxKV16bH98bQpKQrA9vo7CHzQ008/vRZ2Pq/nKqMxccC4yRRESs/i6s3LLLPMlpZhfWEvgorTZ9sQg/V2HcB2ANfk3HPP3YzrDSao8ePGjdsK5GpVGyUOUF0H85knLr744jCm1CLBcYTyrZP1sE6OLevqNYM4kNZrQ5KMY1yN/fDDD7eEW5kS21HfnTxSfu/aml71PdE4Bs9z8egJPe6bLsb/DqEYk3EXwGDaE/fee+/KkOEEDEtgp9KHuogEuvGH3QhfuV7hQI1HlKF9Ci79GbQdwNCH9tprrxGwZf0bQ749hMbgsQAiiPlmB3TZHYxz0LN2knioDfxkd+MAcIfLLrvszL59+/7d/9bdxjso1IF7CI2BuJHhIccPwOzKZHAfdd6IOicem2z77TTz8TAbB1M8/4+OCvUwfzvYuruWg01ZV64JgwYN2p+zD6/L7IAcxeaMIr9GIwhp2zEhbEv5InUCWxLabPutm5cIDFuTLos1plB3B6JnlwhTJ5Fbb711Za5PLrnkkmMOPfTQC5pT93QhPFg3jt4+jmPgzjK+T58+ATHhBpLJkyenEcJ3nszFtOtjgKcwZQU8wFTYgyBrcn3F4asbb7rppk+EhA382HcGz1gRHubpJYIik4Sx20AWVa+ZXZfnKbAkkmaAHZbnaZA1rnH5jsNcasSZxrQu61dWVqai6QTxX/3nP/9ZgHu94aCDDgr5cUBMuMPaeK8RmAlccU8xMFMx3QUXXJBiJryEgfiT79QCAYxAVjVbMS7j+oGOn5//tQJHQy9HpEJbSnYntoPZOPP78MxgCjY9ps28NF3QnAGKE/LwHeeQn+8g4bnekM1iocV6qN4Pql+a91VXXeUJpKHPZBs0pRAG2X2kHZJ9y2CtUW+4gxRnjqQ4jCdleyNsYRnvIf96J9X66mjdTj755Ausm3Zmjg8NBhmcoY5Q83C3vrmu+J7JMthRWa9ocHjppZceXl/Z8R1cSRjTts/8/N4+iv160UUX1RDUczYWkroKgHvRWdyZU5IkdXDGQbhNdt555wS2xZnpZ2bIm7leYlb6nNm1K8JVb3jefe+6664F4ftDvahMgkCc0BEJpLU77NKHlLEEZVSRnlj7HHdnNEO8ZyUJ5Nl3zigGyfLw4cMPRYYJVMNZyVk8zpYYQXqg5ecMmKNAmLv4ttbMfN999/VDDTgSoIV8bTOAtO6hDOSeBIT1hKdX6axH6ODJdH4HZsFKYLDtK6+80hPWL7BwDLIwK0KFQn2eeOKJo+iY7sx8A7garcAg/1r1DJXJ+HEAwg5ewkx/CBNDoLxSPAZAWHA16d///vekX79+YSa2T+1jOQFZDi9kguTss84O8JKq+E4Kvvrqq8su9kcZM5py1gVuTRaUKfvU884770j6PVBdqbjUTI7DQL6Bmtif6TjmnOnTpod3pjXIDtnPsuFzwtkwmSS0+aLTTjutAwh4XkhUxw9USQQIBVpOuKBUGeHnjOfaj9g79SQ2YLUzo9gdZxiFZc7kS3F60kk0ZgE7pHYOVTG8685K+EkbbLBBmJ2cLcR8ZzLInHFT4R8DO5Qrj0hBnAF5n4KEeq8RQDpNk8NM6UzgrBNngkqolpTFmco0nAmeggUbR6csU1+9n3nmmRVN7wyjQZuXFMA4FQXk8Ty86lrkUdWrvMgOvJudiWJN5K//zDVX1/Ct1ATWJQiCpLc9V9ZXjxwUpEFlwi233PJX85YqwA4GiiEVMA72LoU8l5oBI99QwJo1df3114fv/FZYMDjTVPDwww//V31155taYciQIdsRmVpjjTXCOIjUwD7z2VmciSwYp9rnUnv70rKlFP63LabL/NbvjV9zzTVDfa+44opdahWeEQHbrCwV8tWa1+8dO3HcQEF8nzvQ6NmQ7L/gbSB/FmwF/c+HKYSaa0nTJFNgZpweCHtOvaESIknMc4899niX/GoaxVRXLRtBcrFYzMq7ma8sXgS0A8P/Xpox+x5qNpVyNuKqE6Et9u23356L21TZKdkP71DQkAfauF+gUus0lIf5ZAbkk2VAztApdrTsiwOYNCkGzTGZaTOfsxEELdZNme+zn6HIixMXzLattxOR/72c1DIDLKhsaM6LmTmdFHikoLYhDydJZu4UlCT8R/g/NLsOdf3HOluWOrRbJLCvMi/HmZNxHBemzXWJJKYzfeb3kU2KMBs5cuQSddVlzHNjghbWsupAkHfq+jaJvKvyAkJ5mvcEGAItaELq/LieF3zbAbbnaZIEINlQNDoBCAy8nBifjSC5KMg7772zt3mKDBFg0cYfBUHIf9TIUS9Rftd6qpd+dfTRRz9ifg4GZyk7w/8IvCLy3OmETXzg246Q/9B+ZzrzVV1p3pg8SLFqhdjZGSvpddqhkX97ZBvZ1UDtRG5Yp5A/rCWvU1COGQEhMhEgvMjxE5HHVyghVIWHvIRLJvJBwausSGvV/vcIsqjg3+t+JzWOlN7+is+RQ7H+hxxyiBNaCoSXWqeef/75FGMk9be//S3UwTRRdol97l3K4jjwPVzD15Sbk8Ijg6hJrI+CVPHRJKoR4OdUjYbOQyOUZqvQBAmnNWokbsYf8miPIHWNZWRdr+TKrjEIAgUZaF4RQRzUIogIaDwD+2nKzSlnZZcJ772M3wh884idhrD+BXk0iWpm5+1/2w9rUqv9zGRv5EqfjSBQkCtzpTMOLWNgX0QmFtWCUoTo1H//+1+KTaWQIwKChD9N+IFihtTIICkWUwNMZV1lF83ftRkS1EuVWX/ZybTC05k/kz0SQWJfHXzwwdb3LcrchDzn4hKxhFsF15zEb4iW6fUBAwaEsqUAmZTEfEWSWLdrr732TL/PDrBY44irD0F8nw7pwfPII4+cZqwCEIUFgRS1bILmYlcEmefTXzTzgTx+49P90RoNZj1lH9Sku9Ho2UDGIxCwmpUrgEsvQCpsMfOF1WxWY5OhQ4d+A9XZhPhGCZN33n3nhVZC4U+VnwL5WWedlWyzzTZrkccPzapgxkex/WecccapCKD78H9X5KEZqJEP8XzzhgLpc54rDQzawxYP93uFbAZwUFfeeeed4Yho2xOF24bKyH6vKluYMvASBnpQMqgCVq3tegrwWRulx7J897u+OCMTqEAH2MmbGcjBENB6UN+QwnqBIEF5wCScHHjggVtQ3r9pZ1WC6nz4ryJD+I/k2+VYJNwBmfCeY489NqybqIQxX/MjbSjHT4HzCUygQ2GRXTFPB1btfkn/yfFAHj9lRgcEoeCOaJYO9oX6cQFjgOX4NwhzV/jTSj/w4x+R1RnVV6NzjYCt8UFF0in+9731VuNiYNBtQ2MbZQHrFkvI9GYugKobj2skdL56///FMlrjjrD8IfmcXn01OkvqkRNBVCqwDtBNjZswUJeP3JCwOBnyNs7B09xAuQFJkJ+Sc845J4kD03gD8s3F3DYOf7J+WEeTsnVyfUhNYPzG+sByJa+++mqCWn4G1KOSd8Kl3kAakede2rQ0iPsqFKzD2muvHfos5m0GWGCERWa0r3vy91LjYki1S9WLIORd433ABPjgpbkSgWxBzsACAnI1oLpSMf+i3V00qhVmJFXL+byAGiUuTAp0ZCk7YEyt9HVEQHZX9ZULY1oI2H5XwWG1AlWt47OCRjOoclJC1pQOtyIugIkMBia2hK2l4bm51CN8nPXDqnoYFyheAqfhaxZAVX50ZZx8n5mcuHYMfJEnrFCLFLEungNvP7lUMHDgwDX5tkHkyMyb9G+yQL0Qywj/xlIi9F3m+/h8zz33yJrUQBD+16/GTZIak2pAEFS7oRBnYPXeBir/MhX5OPwphZ8c+EG1qpbbeZA1FEkMCMC3UXdZukYFJodtTSj1jIOMPJ4ij28blUEBElGXGh1nkdS1/Q477LBX9XOC2jys+ThRSAW94spxS6ooTMxHawWE6IS1lsDeVMLOYUKUwMqsTf6PZpaBweG8qFx7yl5pbeH3tCGML9k0A252HkAZVIPnz8yjvmfq8hX1Wh32svfCiyy8w/Sp0xUFluKb6SDiu5T5GBqzq7LzIE0NCpH9nv81ECggCPx275jQ2cEAu3FGjCuFexy4WXUJFMR3zkogerLlllsmaHEezkpX718oxm4mcHHKBUUWCRPYgnPr/ajAL2ljLQrCwJzPAaqMoF2Rk4RUcO+992712glj4ePCo4jiXVnNgBywDbcaCAKru6LvlDNMK3KYR6TQmAC5cHycaZobyFOS+QbX2dVXg1lRh1oTTeZHULoa7wOCsJtqPhOJ5a5OMispqL+c+WGJPqdZLAFvcAWZWemtxtYXgLVrX9E+zHRR9kKTJYvyWmPzKEQ6BkMtGYQF256WHYVg6+8Eh1yS1yopP0itI3WCcm2SXSAKg+WNs19MK9WQO4lIhVraereqfJddh1z/6e+GKEhOBAlSnBhuQGC1QV/lKqCU4hg0aQSJ9armvT+P/xtxn21Gakbg2WP7NcwkfN2IbwuZpBYFYbYLdmTOzgb5fE1HkB3TM3ZrVtByZEPVbBminINlwWLZ5ZBmYeP8JsLV76yfYeneS3urhfRG5jO0b9e+BgJklwXS13gfKAiRNVRh1Q2qyP64BP+nZZBYN6iBj1V8Yoys5w57FUZX7ESTVj8XvPPqqaavpma/Z/ClJTPrLAVRW+RVyAB716Gu8qqm3Kq31jFWuaJ9cYYXWqwaCJBdb+pYg8IEBIFifGLCSDIl05DvWoMvO7MS+F8l7WVUpNo8ul4gZCRX2Ax96MwYO4+2m8ROrwGszO+K8FyLglCHsD4j5RA5FNKxUAjrFcblO1imay/AsFZRvPsgRGYghVos4WxABezNMVZj3cHIPIeG+rTG2AkIgoA70UoJVHlEVo/VPCxJVJPUb3luWK3sqW8tFqt6kNeabWt9/HvEdIwwE3b+BVcwRqOBcYLQLqvRlOj37PLzRFtrUTQE8jCxqSXSYtnwpz/9KTnllFMcsS4IORhELHkiMSZO6OEOrOJ/XjU/sL+j1scI8q8b+evUXwPySj1EkOrJJ6zXwHJtQJIRtT5uQQTlyELQtNwLxLxvaGzUQJBA5yorKwM62wjlDzUirJYe1IJ6tvqn1QO/FmAk1AAADZRJREFURr7E1aIg1QkareIlD61eQ/tVi7L2kWCmkGCNG7QwNQos4h8GV62OxcRmMtYC6Y1GVg/bpQRLha9o15dcP3D9wjWN6zeuGdVXPp1LBCixgh0Q5Ltvv0uvmVB2GFsuyIpUaOH+wZhrEa/F9+3YnrA4BpGno9H7lPv0f/3rX9OwpP6ARdNe2V1WkWpwZ2YNOAcKguYnMK1SEMmmAaOunSl8Lhr1XXYhRfmfe66rqmztCjWJv8A4czhZnKIaU5Wp5gvsgjyKuIdrZ12cmFwUhL75mY1UH7KSvoiTGyYY+nVKcGtzLLU8ujg1rSoV9e7n7BuahuFhB+vljsHIwsd1EGzIFmHv+758cW1T6ypiYA29CjC4i29rIQJxi6y2xmojuVdypcOMdjXVuOkX1Q/kVwNBAvayKCYr8aFmGnGxTbMCTDCOzM6gaP/b5Sw5J4LQyNzolDOLJAFB/uUrBxmzb0h18803b4TZSZWiv47vChxdo+Ni2awnnOizdXcdxIBd3VH87xr+FOmHPpgBu3eWxavtsn4G4oNpiLZcWmswEesloXd42cgf0ndgx+uNxx9//DhsvXqxnpJgvBgurUEYzyGn/ffbv4byqSr7+ilITgTxQyo7FIQIcohqQtdDIFWDqcwiVRm3/Je8KiCrAzFj/oxdd79xv4bZOuhUm5M7jclFnqc0NS/WPV7ZeuutZ7hIKJ+s0Mk+7OT5cc9f0NS8GkrPHov5afdptP8dLIg1lc6J5Nn50NYavHF8zwaksO8cljAMPEzpE+y9XPAcEtO01p0856TuO1H30xmgWt3mnraqC0RhcKWPOIxOO/nwv5Owwvocc3QJgxmzk5fJq9J3DQXS9WTj1we0ew/TOqmrtVNu9HJR0nFswL4wlB/+VP+Ap7VkuZrv65BRaLSzZTAXdlNT3AuBCbJ7IaqmpsycmvgsMMnrGsvIul7KlVVjzN0xRhttXu5/iGbOkN2c5vO5ysiMw25nkHlpMh73U/RYoEfqw8kfrpmZrrnPtL8C8/tjLCPzYs1l31x5Zpu7M+g3z5XOOCyXL+UWTMeRJ0P+LPamoIYr1fVNU+KtO1bYh1hG5sUOyx0ayod+vN9v3NmJfJu+3DiFLBJ2WfoeqpcCcTZ2nOTKk/j2XPvipzldB8eo+WSa0MedgbpcYi9Lt+y8oFjCu05zd7ys1OiP9AzMAPsas/PbQJSgzYkWrWh4ejHruw+5UTNddoXif9R6A5ilB/hfDyNsHAqv2CPRlEW9mF24M6tOrxFR9SdodnLE1xvFgDwPK9BfkT2CHIYAnHz+2efJ4Qcf/hyzUouoKLDrALW4H7uhoQqoehnRCtUAQtc7o8VKI4PkpCC+R1A/zrtua2QRZTkQXJMzzzzzeWbvhX3X3GDd2bB0P1bYl8LOhLpHFgar4bBaXl/ee+655wG+V+6QctBnIbnynlRPJ9J6KtFwETdAj7FN+0G85CxOuWFBC9V1ZyjDFgzsT+ByrmMLd6BGUkrlGvMhbcjXhUj/G0CQM9DI1mKx4BDqhTdwzsnKhkzRXM3HQ9jL7O4vOjJgK0JWCvL6GhWZOyRswg/fVODEYXCvxXqFvJxJ3NgSKRTkcrFc2TWGgvzvvf/p6SObgtyQK7/GxI0aNWo983NPNB2a3gKKA7wUnbRGY/LITkP758Mn1rvmK2WWOrnBy/9oenidW1bIpiDw21UYlV1A9X+0Qtuap1tiUf+mKSqDaioDca06Pqs32rrffvvtb5ivYwHTkPQGJ+y9rHujZDQQVYVBgKt1izO+d/N0a7QboEwTL+zhwi5CHBWm43znupUwzKQc5uNWa7c0mwaPNh9Qt5wT+pjRY3Y1jeWhsQwUzY1bkfJAQXbhfd0BNdnevA1bY8HANJIYB7CmonPfjsLTlKeunEjTThKPFmOS33qJHOjH0y6AUMX9ra7vsxEk1550WKzbzTeTxUK5EATDuvJtKB4ADTZPBxp2RGGHof+9Hn/8cfce1yLbvKsVSDcnvPAgNviEb+0MWQodScTBgBXxn2t9WB2RjSDsfaiXXRLemJc7OQTnCgjGaSQRdrC3t5OmR13lZcaTbo5JkyYdjYYs1N3B4yDSbZD5WgauZzfO/Ka+Z/Kr6Nev3/N+JyvsRJGJJObtf8sRAfxv2njNN3+VWx7fCUcn2Pi9bFumnwPkjp+YEKoWhXJUCvN42cL6EKR+tlFAszU2zMwOEivgjBd5W/eGM+g/hWXaGWSZl/SBFPodVwdJOiRyH3TSH5vWyjgozEOqFB0WYAp9kd/kaEOIykaQ6rxqJKcTA++diSCwLO4BaHawTkceeWSQldw/7iShAwTU36EtsAzyyw+jxNiatH/gcnvoHFzduP74468/bodbzIdvvPHGgBBUJHR8RBC3nhoHfIaQvs72ZyMIFGSphhpFfu033njjp81fvwIieERG41hATMGqvATLuCtpZWPm4erCZRsWYULbDMvue5A30oPTLchu4zUfZ23zgV2sfxDlqKisEtGf+b0U2jwzZRKfRQzvUhTHixOK487/IkR8n/mdyLHSilWeb8j7N5Qgf8hRfDrqmWfGaHlcJ4LgnGTrdGIeapEheERgldoWfu7f8IQbyc8qj6gdULuFzt1rQb69062iDM6wHROghjMWNHcYPnx4ugx3ohnn+oLqPrZhup9gKAhwrGWlEzbjgXp+mP0ZeYY1nez4xv63ToMHDz6Qtv8EsA5loAVzCjolrFZzZknCtQX5bcH+6LAzznfRfxRULYFnTxcnzJhtw0lZ3tXogBwnwr+f3ZT2s4bwYzrTOh7I7zc8evwJZH4QJN4MTU/waQYrF+QqfOAmXCszSd3urjutJrQEVqOk5mfC6xOShx+qWvoBocM7kD1spEN7ZakzOJ66LzAZW0cV6oxmkvyZ9i8FFXoHajaf8gwTXJAfXHujL9PyibD0Ms5Au2rdfW9Qpquu2xTEgOWYzCaHF3X84L2olgxi/rEMPqvxvhaCmK+ApnKbA6Rr8Wixl3EOdIUq9dc2yK2p+GHyVa2g4CXwbYTfiEQAJaSDhdsd/vIOyqgXOTIqHL7L/m8kce+ElzV/Pqr5t+n/QBB93xzOxqPXjznmmCvMwYGuSQdsQACmNkiuuOcKzHqa3AehWasEF8oU/gkz2L24AULu6FzfZcbFRbXYboTPBhHE73GuMJ26b4nyYzCT1kkMzDAxiZiqrx10TlJeuQIDLKyniDQK1QzoMABRKrzJPve+5Dcl13eNiSOvb1HrV/71r399FiXCio4l1erC1bIUsmN7vcdn6+xlML2CuIhtnMiBjPgMbd2ccfdTI+oREMC8I4xj3n5LfBXmVWeUE0FiQj7ch869nc35DyIvBLlDAJqxCKCvWrIEYQKXlTaD9r2XK/POEgYQ7X283m1AJ70fIhr54wYgtRy5AlqbicZLnaIZNUhZi6rk+rahOABlj1z52GOPPcVq7ygGeODf1UA5QTjDQvJDJ9ppBjvY4H87wE6P7SePu/EsuB/ffB8SNfBjHg7OatN7TX8ahSBmS9laEpzMgL6L07qe5Hk+tUjmZ91hl0LfmNZyHCD2lXWOg0aEcl3BgMOGg+mDq0COqgaG2Ob9ALcfKW/Vf/zjH8fDRZxuLvYfLFQoW25F5BSW1sv6WGfh4LNx1st1OgNbo3eBkt9d3V8hroGfgABu+rK95udVNZZDH9ZAkAbyqnpNBp0wYTgETBVADpz0pf8p+UUvZYzMdz7jGWUqhoB7kEfVKCKyMUEtCenSF8KXzzWCXjOIyKzTD8z+DSoQamTSiD/UfTYUFAM5ljqzrMDjM2jS7ZdXJrsaF6zaKHT3yzSimOwkmflUkd/sFI34L9yvvPLK/kxsmgyl81S2UnarhMf3zsBNv4vp8OV1KRNDo5QSjahKrSQsHyx49tln3x/Li3flDeulDGLdoBi16nbO0HOOrZZrauVbXwQs4jqxnFz3888/v2/m93UKiZmJ4jPA7sCq5woYxA1EA3MAalG9EcbX4a5+Gl31ZAb01ZDlfzFb/RdMDWStRsIG/ujVT/7XHWnOKrJpUJ9a9dWfFTsiT8TM4lNmnfMQUj9rIOtmvxYhoQp9aP/2wgDE76EuPjOg2HAF9xPafj7C6G3UuWoazkzUiGdY0hTsyETaNYLZ/Sza9VUjPqszCX1Xgbp5OYT0Axj0B2kjlZ24X79+CXLLGOp+EWzgiMZSu+x8mvofROnGUsDGwPQInFCsg/xUIws5CNdJmIwfoH7DgOkzvXKcBlXjozr+AIeu7LhcRuqeHYxDvpqY2e70gOPD9HP1h5n/fY6XM7Ss2YIIdvdADleUPBsggf9DEB8EyRzDXxe2fOGs691ZIN4zZwSi0zObzwbfx5D5HOO81xUf02TWP8Z5z4zPfo7/vWdettn/3qWEFbS7Eyu16wDUM2h/L8m1LADt/5nZ+VhhQbpvuX6EFfyFge4ClL0iCRcmES51waQjaepaHIx1I0m6ntYtXtbRPpqNyaUj7FUnnjtzzcU1P+zTzsiQ/R0Q9HtgNWS1YGPepO4DSePirSyddY71tZ6xrjzW6rMY5936ZYZY33jPrqf10+RoAeSRK9mPtGQU0oWp1UeDNgxKMow0wlS45KpXHBPxTrJa4yTzne9rBPqxxvv/B4O8BUaWsKUcAAAAAElFTkSuQmCC;" parent="1" vertex="1">
                    <mxGeometry x="43.7" y="470" width="56.6" height="60" as="geometry"/>
                </mxCell>
                <mxCell id="191" value="&lt;font style=&quot;font-size: 13px&quot;&gt;Github&lt;/font&gt;" style="text;html=1;align=center;verticalAlign=middle;resizable=0;points=[];autosize=1;strokeColor=none;fillColor=none;fontFamily=Helvetica;fontColor=#666666;" parent="1" vertex="1">
                    <mxGeometry x="47" y="345" width="50" height="20" as="geometry"/>
                </mxCell>
                <mxCell id="194" value="" style="endArrow=openThin;html=1;rounded=1;fontFamily=Helvetica;fontSize=13;fontColor=#666666;strokeColor=#666666;endFill=0;endSize=4;startSize=4;" parent="1" edge="1">
                    <mxGeometry width="50" height="50" relative="1" as="geometry">
                        <mxPoint x="70.5" y="233" as="sourcePoint"/>
                        <mxPoint x="71" y="280" as="targetPoint"/>
                        <Array as="points">
                            <mxPoint x="70.5" y="177"/>
                        </Array>
                    </mxGeometry>
                </mxCell>
                <mxCell id="195" value="" style="endArrow=openThin;html=1;rounded=1;fontFamily=Helvetica;fontSize=13;fontColor=#666666;strokeColor=#666666;endFill=0;exitX=1.048;exitY=0.383;exitDx=0;exitDy=0;exitPerimeter=0;endSize=4;" parent="1" source="190" target="126" edge="1">
                    <mxGeometry width="50" height="50" relative="1" as="geometry">
                        <mxPoint x="110" y="495" as="sourcePoint"/>
                        <mxPoint x="230" y="500" as="targetPoint"/>
                    </mxGeometry>
                </mxCell>
                <mxCell id="198" value="&lt;span style=&quot;font-family: &amp;quot;amazon ember&amp;quot; , &amp;quot;helvetica neue&amp;quot; , &amp;quot;roboto&amp;quot; , &amp;quot;arial&amp;quot; , sans-serif&quot;&gt;&lt;font color=&quot;#666666&quot; style=&quot;font-size: 10px&quot;&gt;10.0.12.0/24&lt;/font&gt;&lt;/span&gt;" style="text;html=1;align=center;verticalAlign=middle;resizable=0;points=[];autosize=1;strokeColor=none;fillColor=none;fontStyle=2" parent="1" vertex="1">
                    <mxGeometry x="584" y="580" width="70" height="20" as="geometry"/>
                </mxCell>
                <mxCell id="199" value="&lt;span style=&quot;font-family: &amp;quot;amazon ember&amp;quot; , &amp;quot;helvetica neue&amp;quot; , &amp;quot;roboto&amp;quot; , &amp;quot;arial&amp;quot; , sans-serif&quot;&gt;&lt;font color=&quot;#666666&quot; style=&quot;font-size: 10px&quot;&gt;10.0.22.0/24&lt;/font&gt;&lt;/span&gt;" style="text;html=1;align=center;verticalAlign=middle;resizable=0;points=[];autosize=1;strokeColor=none;fillColor=none;fontStyle=2" parent="1" vertex="1">
                    <mxGeometry x="584" y="719" width="70" height="20" as="geometry"/>
                </mxCell>
                <mxCell id="200" value="&lt;span style=&quot;font-family: &amp;quot;amazon ember&amp;quot; , &amp;quot;helvetica neue&amp;quot; , &amp;quot;roboto&amp;quot; , &amp;quot;arial&amp;quot; , sans-serif&quot;&gt;&lt;font color=&quot;#666666&quot; style=&quot;font-size: 10px&quot;&gt;10.0.21.0/24&lt;/font&gt;&lt;/span&gt;" style="text;html=1;align=center;verticalAlign=middle;resizable=0;points=[];autosize=1;strokeColor=none;fillColor=none;fontStyle=2" parent="1" vertex="1">
                    <mxGeometry x="330" y="720" width="70" height="20" as="geometry"/>
                </mxCell>
                <mxCell id="178" value="ElastiCache" style="text;html=1;align=center;verticalAlign=middle;resizable=0;points=[];autosize=1;strokeColor=none;fillColor=none;fontColor=#666666;" parent="1" vertex="1">
                    <mxGeometry x="231.80000000000007" y="270" width="80" height="20" as="geometry"/>
                </mxCell>
                <mxCell id="204" value="" style="sketch=0;points=[[0,0,0],[0.25,0,0],[0.5,0,0],[0.75,0,0],[1,0,0],[0,1,0],[0.25,1,0],[0.5,1,0],[0.75,1,0],[1,1,0],[0,0.25,0],[0,0.5,0],[0,0.75,0],[1,0.25,0],[1,0.5,0],[1,0.75,0]];outlineConnect=0;fontColor=#232F3E;gradientColor=#4D72F3;gradientDirection=north;fillColor=#3334B9;strokeColor=#ffffff;dashed=0;verticalLabelPosition=bottom;verticalAlign=top;align=center;html=1;fontSize=12;fontStyle=0;aspect=fixed;shape=mxgraph.aws4.resourceIcon;resIcon=mxgraph.aws4.elasticache;" parent="1" vertex="1">
                    <mxGeometry x="251" y="224.5" width="45.5" height="45.5" as="geometry"/>
                </mxCell>
                <mxCell id="210" value="" style="endArrow=openThin;html=1;rounded=1;fontFamily=Helvetica;fontSize=13;fontColor=#666666;strokeColor=#666666;endFill=0;startSize=4;endSize=4;" parent="1" edge="1">
                    <mxGeometry width="50" height="50" relative="1" as="geometry">
                        <mxPoint x="71.58" y="429.93" as="sourcePoint"/>
                        <mxPoint x="72.08" y="456.93" as="targetPoint"/>
                        <Array as="points">
                            <mxPoint x="71.58" y="373.93"/>
                        </Array>
                    </mxGeometry>
                </mxCell>
                <mxCell id="225" value="" style="group" parent="1" vertex="1" connectable="0">
                    <mxGeometry x="308.99" y="132" width="44" height="62" as="geometry"/>
                </mxCell>
                <mxCell id="222" value="" style="sketch=0;points=[[0,0,0],[0.25,0,0],[0.5,0,0],[0.75,0,0],[1,0,0],[0,1,0],[0.25,1,0],[0.5,1,0],[0.75,1,0],[1,1,0],[0,0.25,0],[0,0.5,0],[0,0.75,0],[1,0.25,0],[1,0.5,0],[1,0.75,0]];outlineConnect=0;fontColor=#232F3E;gradientColor=#4D72F3;gradientDirection=north;fillColor=#3334B9;strokeColor=#ffffff;dashed=0;verticalLabelPosition=bottom;verticalAlign=top;align=center;html=1;fontSize=12;fontStyle=0;aspect=fixed;shape=mxgraph.aws4.resourceIcon;resIcon=mxgraph.aws4.simple_email_service;" parent="225" vertex="1">
                    <mxGeometry width="44" height="44" as="geometry"/>
                </mxCell>
                <mxCell id="223" value="&lt;font color=&quot;#666666&quot;&gt;SES&lt;/font&gt;" style="text;html=1;align=center;verticalAlign=middle;resizable=0;points=[];autosize=1;strokeColor=none;fillColor=none;" parent="225" vertex="1">
                    <mxGeometry x="2" y="42" width="40" height="20" as="geometry"/>
                </mxCell>
            </root>
        </mxGraphModel>
    </diagram>
</mxfile>